<?xml version="1.0" standalone="no"?>
<!DOCTYPE svg PUBLIC "-//W3C//DTD SVG 1.1//EN" "http://www.w3.org/Graphics/SVG/1.1/DTD/svg11.dtd" >
<svg>
<metadata>
Created by FontForge 20090914 at Tue Jan 11 02:30:16 2022
 By www-data
Copyright &#194;&#169; 2020 by Connary Fagen. All rights reserved.
</metadata>
<defs>
<font id="ArticulatCF-ExtraBold" horiz-adv-x="610" >
  <font-face 
    font-family="Articulat CF Extra Bold"
    font-weight="800"
    font-stretch="normal"
    units-per-em="1000"
    panose-1="0 0 9 0 0 0 0 0 0 0"
    ascent="800"
    descent="-200"
    x-height="520"
    cap-height="700"
    bbox="-189.002 -376.999 1080 938"
    underline-thickness="50"
    underline-position="-50"
    unicode-range="U+0020-U+25CA"
  />
<missing-glyph horiz-adv-x="510" 
d="M418 -220h-323v1020h323v-1020zM171 732v-34h67v-38h-68v-33h170v33h-68v38h68v34h-169zM170 600v-106h170v35h-68v71h-102zM238 529h-34v36h34v-36zM170 466v-33h68v-38h-68v-34h102v72h68v33h-170zM306 405v-67h-136v-35h170v102h-34zM238 281v-57h34v23h34v-48h-102
v82h-34v-115h170v115h-102zM170 104v-115h170v115h-170zM306 23h-102v48h102v-48zM170 -34v-34h72l-72 -48v-34h170v34h-104l71 48h33v34h-170z" />
    <glyph glyph-name=".notdef" horiz-adv-x="510" 
d="M418 -220h-323v1020h323v-1020zM171 732v-34h67v-38h-68v-33h170v33h-68v38h68v34h-169zM170 600v-106h170v35h-68v71h-102zM238 529h-34v36h34v-36zM170 466v-33h68v-38h-68v-34h102v72h68v33h-170zM306 405v-67h-136v-35h170v102h-34zM238 281v-57h34v23h34v-48h-102
v82h-34v-115h170v115h-102zM170 104v-115h170v115h-170zM306 23h-102v48h102v-48zM170 -34v-34h72l-72 -48v-34h170v34h-104l71 48h33v34h-170z" />
    <glyph glyph-name="space" unicode=" " horiz-adv-x="230" 
 />
    <glyph glyph-name="exclam" unicode="!" horiz-adv-x="295" 
d="M65 700h166l-22 -445h-123zM79 17.5c-18.667 18.333 -28 40.833 -28 67.5s9.33301 49.167 28 67.5s41.667 27.5 69 27.5c26.667 0 49.5 -9.16699 68.5 -27.5s28.5 -40.833 28.5 -67.5s-9.5 -49.167 -28.5 -67.5s-41.833 -27.5 -68.5 -27.5
c-27.333 0 -50.333 9.16699 -69 27.5z" />
    <glyph glyph-name="quotedbl" unicode="&#x22;" horiz-adv-x="498" 
d="M301 700h157v-307h-157v307zM40 700h157v-307h-157v307z" />
    <glyph glyph-name="numbersign" unicode="#" horiz-adv-x="598" 
d="M557 435h-90l-17 -169h81v-100h-91l-17 -166h-98l17 166h-121l-17 -166h-98l17 166h-82v100h92l17 169h-83v99h92l17 166h98l-17 -166h121l17 166h98l-17 -166h81v-99zM352 266l17 169h-121l-17 -169h121z" />
    <glyph glyph-name="dollar" unicode="$" horiz-adv-x="639" 
d="M534.5 51c-46.333 -36 -106.833 -55.999 -181.5 -59.999v-81h-64v81c-78.667 5.33301 -140.5 29 -185.5 71s-67.5 100 -67.5 174h168c1.33301 -26.667 9 -49.167 23 -67.5s34.667 -30.5 62 -36.5v162l-37 7c-60 11.333 -108 32.333 -144 63s-54 76.667 -54 138
c0 64 21.167 113.5 63.5 148.5s99.5 54.167 171.5 57.5v82h64v-82c71.333 -6 128 -27.667 170 -65s63 -89.333 63 -156h-167c0.666992 22.667 -5 40.667 -17 54s-28.333 22 -49 26v-150l27 -5c81.333 -15.333 139 -39.333 173 -72s51 -76.334 51 -131.001
c0 -69.333 -23.167 -122 -69.5 -158zM289 430.001v137.999c-22.667 -4 -39.167 -12.667 -49.5 -26s-15.5 -28.666 -15.5 -45.999c0 -36 21.333 -58 64 -66h1zM411.5 156c13.667 13.333 20.5 31.002 20.5 53.002c0 20 -6.33301 35.667 -19 47s-32.667 19.666 -60 24.999v-150
c25.333 3.33301 44.833 11.666 58.5 24.999z" />
    <glyph glyph-name="percent" unicode="%" horiz-adv-x="753" 
d="M79 426c-28.667 28 -43 69.333 -43 124c0 52 14.333 92.167 43 120.5s64.667 42.5 108 42.5c44 0 80.333 -14.167 109 -42.5s43 -68.5 43 -120.5c0 -54.667 -14.167 -96 -42.5 -124s-64.833 -42 -109.5 -42c-43.333 0 -79.333 14 -108 42zM212.5 504.5
c7.66699 8.33301 11.5 23.5 11.5 45.5c0 20.667 -3.83301 35 -11.5 43s-16.167 12 -25.5 12s-17.666 -4 -24.999 -12s-11 -22.333 -11 -43c0 -22 3.66699 -37.167 11 -45.5s15.666 -12.5 24.999 -12.5s17.833 4.16699 25.5 12.5zM66 197l553 401l67 -92l-553 -401zM457 33
c-28.667 28 -43 69.333 -43 124c0 51.333 14.5 91.166 43.5 119.499s65.167 42.5 108.5 42.5s79.5 -14.167 108.5 -42.5s43.5 -68.166 43.5 -119.499c0 -54.667 -14.333 -96 -43 -124s-65 -42 -109 -42s-80.333 14 -109 42zM591 111c7.33301 8.66699 11 24 11 46
c0 20.667 -3.66699 35 -11 43s-15.666 12 -24.999 12s-17.833 -4 -25.5 -12s-11.5 -22.333 -11.5 -43c0 -22 3.83301 -37.333 11.5 -46s16.167 -13 25.5 -13s17.666 4.33301 24.999 13z" />
    <glyph glyph-name="ampersand" unicode="&#x26;" horiz-adv-x="736" 
d="M534 0l-40.999 44c-56.667 -36 -120.334 -54 -191.001 -54c-50.667 0 -96.334 8.83301 -137.001 26.5s-72.334 42.5 -95.001 74.5s-34 68.667 -34 110c0 46 12 84 36 114s57 56.667 99 80c-21.333 28 -37.166 53.5 -47.499 76.5s-15.5 46.5 -15.5 70.5
c0 29.333 7.33301 56.666 22 81.999s37.334 45.833 68.001 61.5s68.667 23.5 114 23.5c44 0 81 -7.5 111 -22.5s52.333 -35.167 67 -60.5s22 -53.333 22 -84c0 -36.667 -11.167 -70.667 -33.5 -102s-54.5 -57.333 -96.5 -78l103 -111c16 37.333 24 79 24 125h144
c0 -93.333 -21.333 -172.666 -64 -237.999l127 -138h-182zM266.001 581.5c-10.667 -10.333 -16 -22.833 -16 -37.5c0 -10.667 3.5 -22.5 10.5 -35.5s18.833 -29.833 35.5 -50.5c28 15.333 47 29.833 57 43.5s15 27.167 15 40.5c0 16 -5.66699 29.167 -17 39.5
s-25.333 15.5 -42 15.5c-18 0 -32.333 -5.16699 -43 -15.5zM397.001 146l-142.999 153.999c-32 -22.667 -48 -50.667 -48 -84c0 -25.333 10.167 -47.166 30.5 -65.499s47.166 -27.5 80.499 -27.5c28 0 54.667 7.66699 80 23z" />
    <glyph glyph-name="quotesingle" unicode="'" horiz-adv-x="237" 
d="M40 700h157v-307h-157v307z" />
    <glyph glyph-name="parenleft" unicode="(" horiz-adv-x="355" 
d="M71.5 75.5c-17.667 73.667 -26.5 155.167 -26.5 244.5c0 84.667 8.83301 161.834 26.5 231.501s44.167 134.167 79.5 193.5h159c-33.333 -60.667 -58.5 -125.834 -75.5 -195.501s-25.5 -146.167 -25.5 -229.5c0 -170.667 33.667 -320.667 101 -450h-159
c-35.333 63.333 -61.833 131.833 -79.5 205.5z" />
    <glyph glyph-name="parenright" unicode=")" horiz-adv-x="355" 
d="M45 -130c67.333 129.333 101 279.333 101 450c0 83.333 -8.5 159.833 -25.5 229.5s-42.167 134.834 -75.5 195.501h159c35.333 -59.333 61.833 -123.833 79.5 -193.5s26.5 -146.834 26.5 -231.501c0 -89.333 -8.83301 -170.833 -26.5 -244.5
s-44.167 -142.167 -79.5 -205.5h-159z" />
    <glyph glyph-name="asterisk" unicode="*" horiz-adv-x="488" 
d="M217 700h53l-4 -142h-44zM61 542l14 53l138 -45l-14 -45zM274 550l138 45l15 -53l-139 -37zM113 380l87 115l36 -28l-80 -118zM252 467l35 28l88 -115l-43 -31z" />
    <glyph glyph-name="plus" unicode="+" horiz-adv-x="621" 
d="M235 212h-184v141h184v183h151v-183h185v-141h-185v-185h-151v185z" />
    <glyph glyph-name="comma" unicode="," horiz-adv-x="275" 
d="M43 -77c30.667 0 53.1641 2.00098 67.4971 6.00098s23.833 10.667 28.5 20s7.33398 24.333 8.00098 45c-34 0.666992 -61 10.5 -81 29.5s-30 41.5 -30 67.5c0 25.333 8.83301 46.5 26.5 63.5s39.834 25.5 66.501 25.5c32.667 0 59.334 -11.833 80.001 -35.5
s31 -60.834 31 -111.501c0 -61.333 -15.333 -107.333 -46 -138s-73 -46 -127 -46h-31v74h7z" />
    <glyph glyph-name="hyphen" unicode="-" horiz-adv-x="397" 
d="M40 336h317v-122h-317v122z" />
    <glyph glyph-name="period" unicode="." horiz-adv-x="265" 
d="M64 17.5c-18.667 18.333 -28 40.833 -28 67.5s9.33301 49.167 28 67.5s41.667 27.5 69 27.5c26.667 0 49.5 -9.16699 68.5 -27.5s28.5 -40.833 28.5 -67.5s-9.5 -49.167 -28.5 -67.5s-41.833 -27.5 -68.5 -27.5c-27.333 0 -50.333 9.16699 -69 27.5z" />
    <glyph glyph-name="slash" unicode="/" horiz-adv-x="498" 
d="M303 700h165l-273 -698h-165z" />
    <glyph glyph-name="zero" unicode="0" horiz-adv-x="639" 
d="M182.5 25c-43 23.333 -78.1689 61.833 -105.502 115.5s-41 123.5 -41 209.5c0 85.333 13.833 154.833 41.5 208.5s62.834 92.167 105.501 115.5s88.334 35 137.001 35s94.5 -11.667 137.5 -35s78.167 -61.833 105.5 -115.5s41 -123.167 41 -208.5
c0 -86 -13.667 -155.833 -41 -209.5s-62.333 -92.167 -105 -115.5s-88.667 -35 -138 -35c-48.667 0 -94.5 11.667 -137.5 35zM418.498 190.5c19 42.333 28.5 95.5 28.5 159.5c0 63.333 -9.5 116.166 -28.5 158.499s-51.833 63.5 -98.5 63.5s-79.667 -21.167 -99 -63.5
s-29 -95.166 -29 -158.499c0 -64 9.5 -117.167 28.5 -159.5s52.167 -63.5 99.5 -63.5c46.667 0 79.5 21.167 98.5 63.5z" />
    <glyph glyph-name="one" unicode="1" horiz-adv-x="429" 
d="M125 462.5c-26.667 -7 -56.333 -10.5 -89 -10.5v134c42.667 5.33301 76.667 16.5 102 33.5s44 43.833 56 80.5h164v-700h-164v502c-19.333 -19.333 -42.333 -32.5 -69 -39.5z" />
    <glyph glyph-name="two" unicode="2" horiz-adv-x="588" 
d="M55 154.5c10 34.333 28.165 66.668 54.498 97.001s63.5 59.5 111.5 87.5l36 20c32 17.333 56 31.5 72 42.5s29 24 39 39s15 33.167 15 54.5c0 28 -8.66699 47.5 -26 58.5s-37.333 16.5 -60 16.5c-25.333 0 -46.5 -7.66699 -63.5 -23s-25.5 -40 -25.5 -74v-14h-158v21
c0 67.333 20.333 122.333 61 165s103.334 64 188.001 64c80 0 141.333 -18.833 184 -56.5s64 -87.834 64 -150.501c0 -43.333 -9.66699 -80.333 -29 -111s-41.166 -54.5 -65.499 -71.5s-56.5 -36.5 -96.5 -58.5c-48 -27.333 -81.333 -50.166 -100 -68.499
s-28 -36.5 -28 -54.5v-3h315v-135h-503v35c0 45.333 5 85.166 15 119.499z" />
    <glyph glyph-name="three" unicode="3" horiz-adv-x="603" 
d="M94.5 57c-43 44.667 -64.1689 106.333 -63.502 185h154c0.666992 -41.333 11.834 -70.666 33.501 -87.999s48.5 -26 80.5 -26c29.333 0 54.666 7 75.999 21s32 35.667 32 65c0 26 -9.33301 47 -28 63s-49 24 -91 24h-44v117h37c42.667 0 70.834 7.5 84.501 22.5
s20.5 32.833 20.5 53.5c0 25.333 -8.33301 44.166 -25 56.499s-36.667 18.5 -60 18.5c-26 0 -48.167 -7.66699 -66.5 -23s-27.833 -41.333 -28.5 -78h-153c0 75.333 21.333 134.333 64 177s105 64 187 64c48.667 0 91.167 -7.66699 127.5 -23s64.5 -37 84.5 -65
s30 -60.667 30 -98c0 -30.667 -6 -57 -18 -79s-26.667 -39 -44 -51s-34.666 -19.667 -51.999 -23c17.333 -1.33301 37 -7.66602 59 -18.999s41.167 -29.333 57.5 -54s24.5 -55.667 24.5 -93c0 -40.667 -11.333 -77.334 -34 -110.001s-55 -58.167 -97 -76.5
s-91.667 -27.5 -149 -27.5c-89.333 0 -155.5 22.333 -198.5 67z" />
    <glyph glyph-name="four" unicode="4" horiz-adv-x="602" 
d="M328 158h-297v131l297 411h164v-411h80v-131h-80v-158h-164v158zM328 289v215l-155 -215h155z" />
    <glyph glyph-name="five" unicode="5" horiz-adv-x="601" 
d="M463.5 456.5c35 -19.667 62.332 -48.001 81.999 -85.001s29.5 -80.167 29.5 -129.5c0 -80 -24.5 -142 -73.5 -186s-114.833 -66 -197.5 -66c-55.333 0 -103 10 -143 30s-70.333 47.833 -91 83.5s-30.334 76.834 -29.001 123.501h148
c1.33301 -36.667 13.5 -63.334 36.5 -80.001s47.5 -25 73.5 -25c28 0 53.833 8.83301 77.5 26.5s35.5 48.834 35.5 93.501c0 46 -11.667 77.5 -35 94.5s-48.666 25.5 -75.999 25.5c-22.667 0 -43.667 -5.5 -63 -16.5s-32.333 -25.5 -39 -43.5h-150l59 398h400v-130h-288
l-18 -134c7.33301 8.66699 22.833 19.167 46.5 31.5s55.834 18.5 96.501 18.5c44 0 83.5 -9.83301 118.5 -29.5z" />
    <glyph glyph-name="six" unicode="6" horiz-adv-x="615" 
d="M454.5 441.5c35 -15 64.5 -40.001 88.5 -75.001s36 -80.5 36 -136.5c0 -60 -14 -107.833 -42 -143.5s-61.833 -60.667 -101.5 -75s-79.5 -21.5 -119.5 -21.5c-50.667 0 -96.5 12 -137.5 36s-74.167 63 -99.5 117s-38 124.333 -38 211c0 110 23.5 196.667 70.5 260
s117.833 95 212.5 95c54 0 99.167 -10.333 135.5 -31s63 -47 80 -79s25.167 -65 24.5 -99h-144c-4.66699 30.667 -16.5 51.667 -35.5 63s-40.5 17 -64.5 17c-49.333 0 -83 -19.167 -101 -57.5s-26.667 -79.166 -26 -122.499c20 19.333 42 34.833 66 46.5
s53.667 17.5 89 17.5c36 0 71.5 -7.5 106.5 -22.5zM389 147.999c22.667 17.333 33.999 45.333 33.999 84s-11.333 66.5 -34 83.5s-47.667 25.5 -75 25.5c-26 0 -50.167 -8.5 -72.5 -25.5s-33.5 -44.833 -33.5 -83.5c0 -39.333 11.333 -67.5 34 -84.5s47 -25.5 73 -25.5
c26.667 0 51.334 8.66699 74.001 26z" />
    <glyph glyph-name="seven" unicode="7" horiz-adv-x="520" 
d="M175.5 280.5c37.667 92.333 88.833 187.5 153.5 285.5h-299v134h455v-134c-66.667 -98 -119 -193.167 -157 -285.5s-60.333 -185.833 -67 -280.5h-153c7.33301 94.667 29.833 188.167 67.5 280.5z" />
    <glyph glyph-name="eight" unicode="8" horiz-adv-x="608" 
d="M165.5 16c-41.667 17.333 -74.498 42.833 -98.498 76.5s-36 73.167 -36 118.5c0 87.333 45.333 149.333 136 186c-32 17.333 -54.5 38.5 -67.5 63.5s-19.5 51.167 -19.5 78.5c0 32 8.83301 61 26.5 87s43.5 46.333 77.5 61s74 22 120 22s86 -7.33301 120 -22
s59.833 -35 77.5 -61s26.5 -55 26.5 -87c0 -27.333 -6.5 -53.5 -19.5 -78.5s-35.5 -46.167 -67.5 -63.5c91.333 -36.667 137 -98.667 137 -186c0 -45.333 -12.167 -84.833 -36.5 -118.5s-57.333 -59.167 -99 -76.5s-87.834 -26 -138.501 -26s-96.834 8.66699 -138.501 26z
M367.002 461.5c14.667 15 22 34.167 22 57.5c0 24.667 -7.66699 44.667 -23 60s-36 23 -62 23s-46.667 -7.66699 -62 -23s-23 -35.333 -23 -60c0 -23.333 7.33301 -42.5 22 -57.5s35.667 -22.5 63 -22.5s48.333 7.5 63 22.5zM389.502 148
c18.333 20.667 27.5 46.334 27.5 77.001c0 33.333 -10.667 60 -32 80s-48.333 30 -81 30s-59.667 -10 -81 -30s-32 -46.667 -32 -80c0 -30.667 9.16699 -56.334 27.5 -77.001s46.833 -31 85.5 -31s67.167 10.333 85.5 31z" />
    <glyph glyph-name="nine" unicode="9" horiz-adv-x="617" 
d="M438.5 672c41 -24 74.165 -63 99.498 -117s38 -124.333 38 -211c0 -110 -23.5 -196.667 -70.5 -260s-117.833 -95 -212.5 -95c-54.667 0 -100.167 10.5 -136.5 31.5s-63 47.5 -80 79.5s-24.833 64.667 -23.5 98h144c4.66699 -30.667 16.334 -51.667 35.001 -63
s40.334 -17 65.001 -17c49.333 0 83 19 101 57s26.667 79 26 123c-20 -19.333 -42 -34.833 -66 -46.5s-53.667 -17.5 -89 -17.5c-36 0 -71.667 7.5 -107 22.5s-65 40 -89 75s-36 80.5 -36 136.5c0 60 14 107.833 42 143.5s62 60.667 102 75s80 21.5 120 21.5
c50.667 0 96.5 -12 137.5 -36zM375.498 383.5c22.333 17 33.501 44.5 33.501 82.5c0 39.333 -11.167 67.5 -33.5 84.5s-46.833 25.5 -73.5 25.5s-51.334 -8.66699 -74.001 -26s-34 -45.333 -34 -84c0 -38 11.333 -65.5 34 -82.5s47.667 -25.5 75 -25.5
c26 0 50.167 8.5 72.5 25.5z" />
    <glyph glyph-name="colon" unicode=":" horiz-adv-x="265" 
d="M64 17.5c-18.667 18.333 -28 40.833 -28 67.5s9.33301 49.167 28 67.5s41.667 27.5 69 27.5c26.667 0 49.5 -9.16699 68.5 -27.5s28.5 -40.833 28.5 -67.5s-9.5 -49.167 -28.5 -67.5s-41.833 -27.5 -68.5 -27.5c-27.333 0 -50.333 9.16699 -69 27.5zM64 357.5
c-18.667 18.333 -28 40.833 -28 67.5s9.33301 49.167 28 67.5s41.667 27.5 69 27.5c26.667 0 49.5 -9.16699 68.5 -27.5s28.5 -40.833 28.5 -67.5s-9.5 -49.167 -28.5 -67.5s-41.833 -27.5 -68.5 -27.5c-27.333 0 -50.333 9.16699 -69 27.5z" />
    <glyph glyph-name="semicolon" unicode=";" horiz-adv-x="275" 
d="M64 357.5c-18.667 18.333 -28 40.833 -28 67.5s9.33301 49.167 28 67.5s41.667 27.5 69 27.5c26.667 0 49.5 -9.16699 68.5 -27.5s28.5 -40.833 28.5 -67.5s-9.5 -49.167 -28.5 -67.5s-41.833 -27.5 -68.5 -27.5c-27.333 0 -50.333 9.16699 -69 27.5zM43 -77
c30.667 0 53.1641 2.00098 67.4971 6.00098s23.833 10.667 28.5 20s7.33398 24.333 8.00098 45c-34 0.666992 -61 10.5 -81 29.5s-30 41.5 -30 67.5c0 25.333 8.83301 46.5 26.5 63.5s39.834 25.5 66.501 25.5c32.667 0 59.334 -11.833 80.001 -35.5s31 -60.834 31 -111.501
c0 -61.333 -15.333 -107.333 -46 -138s-73 -46 -127 -46h-31v74h7z" />
    <glyph glyph-name="less" unicode="&#x3c;" horiz-adv-x="507" 
d="M45 173v138l417 172v-151l-268 -90l268 -91v-151z" />
    <glyph glyph-name="equal" unicode="=" horiz-adv-x="444" 
d="M394 416v-122h-343v122h343zM394 256v-122h-343v122h343z" />
    <glyph glyph-name="greater" unicode="&#x3e;" horiz-adv-x="507" 
d="M45 151l268 91l-268 90v151l417 -172v-138l-417 -173v151z" />
    <glyph glyph-name="question" unicode="?" horiz-adv-x="577" 
d="M233 337.5c9.33301 21.667 20.498 39.168 33.498 52.501s29.5 27.666 49.5 42.999c18 13.333 31.167 24.833 39.5 34.5s12.5 21.167 12.5 34.5c0 16.667 -5.16699 31.667 -15.5 45s-28.833 20 -55.5 20c-34 0 -57.167 -9.83301 -69.5 -29.5s-18.5 -45.167 -18.5 -76.5
h-164c-1.33301 86 21.834 148.5 69.501 187.5s108.5 58.5 182.5 58.5c70 0 126.667 -18 170 -54s65 -86.333 65 -151c0 -34 -6.33301 -60.333 -19 -79s-31 -37.334 -55 -56.001c-21.333 -17.333 -37.166 -33.333 -47.499 -48s-15.5 -34.667 -15.5 -60v-22h-176v22
c0 30.667 4.66699 56.834 14 78.501zM233.998 17.501c-18.667 18.333 -28 40.833 -28 67.5s9.33301 49.167 28 67.5s41.667 27.5 69 27.5c26.667 0 49.5 -9.16699 68.5 -27.5s28.5 -40.833 28.5 -67.5s-9.5 -49.167 -28.5 -67.5s-41.833 -27.5 -68.5 -27.5
c-27.333 0 -50.333 9.16699 -69 27.5z" />
    <glyph glyph-name="at" unicode="@" horiz-adv-x="786" 
d="M580.5 668c53 -27.333 94.4951 -66.168 124.495 -116.501s45 -108.166 45 -173.499c0 -66 -14.167 -115.167 -42.5 -147.5s-64.166 -48.5 -107.499 -48.5c-32.667 0 -58.667 7.83301 -78 23.5s-31.666 33.167 -36.999 52.5c-1.33301 -10 -6.5 -21.167 -15.5 -33.5
s-21.833 -22.833 -38.5 -31.5s-36 -13 -58 -13c-24.667 0 -48.167 6 -70.5 18s-40.5 30.333 -54.5 55s-21 54.334 -21 89.001c0 35.333 6.66699 65.666 20 90.999s31 44.666 53 57.999s45.667 20 71 20c28 0 52.5 -6.66699 73.5 -20s33.5 -29.666 37.5 -48.999l8 60h70v-159
c0 -54.667 13.667 -82 41 -82c20.667 0 35.5 11.333 44.5 34s13.5 50 13.5 82c0 48 -10.167 90.5 -30.5 127.5s-50 65.833 -89 86.5s-85.5 31 -139.5 31c-52.667 0 -99.667 -10.667 -141 -32s-73.833 -52.5 -97.5 -93.5s-35.5 -89.833 -35.5 -146.5
c0 -56 11.833 -104.667 35.5 -146s57 -72.833 100 -94.5s92.833 -32.5 149.5 -32.5c41.333 0 78.333 5.66699 111 17v-86c-40 -12 -80.333 -18 -121 -18c-67.333 0 -128.666 14.167 -183.999 42.5s-99.333 69.5 -132 123.5s-49 118 -49 192s16.333 138.167 49 192.5
s76.834 96 132.501 125s116.834 43.5 183.501 43.5s126.5 -13.667 179.5 -41zM438.995 287.998c10.667 16.667 16 35.332 16 55.999s-5.33301 39.667 -16 57s-28.334 26 -53.001 26c-25.333 0 -43 -9 -53 -27s-15 -36.667 -15 -56s5 -37.666 15 -54.999s27.667 -26 53 -26
c24.667 0 42.334 8.33301 53.001 25z" />
    <glyph glyph-name="A" unicode="A" horiz-adv-x="747" 
d="M555 0l-40 119h-283l-40 -119h-176l249 700h217l250 -700h-177zM273 243h201l-95 287h-10z" />
    <glyph glyph-name="B" unicode="B" horiz-adv-x="647" 
d="M341 700c77.333 0 135.332 -15.499 173.999 -46.499s58 -74.167 58 -129.5c0 -38 -8.33301 -68 -25 -90s-41.667 -38.333 -75 -49c99.333 -26.667 149 -86 149 -178c0 -60.667 -22.167 -110.334 -66.5 -149.001s-111.166 -58 -200.499 -58h-304v700h290zM383.999 436.501
c13.333 11.667 20 29.833 20 54.5c0 24 -6.66699 41.333 -20 52s-29.666 16 -48.999 16h-117v-140h117c19.333 0 35.666 5.83301 48.999 17.5zM424.999 165c15.333 16 23 36.333 23 61c0 26 -7.66699 47.167 -23 63.5s-40.666 24.5 -75.999 24.5h-131v-173h131
c35.333 0 60.666 8 75.999 24z" />
    <glyph glyph-name="C" unicode="C" horiz-adv-x="696" 
d="M190.5 33.5c-49.667 29 -87.832 70.5 -114.499 124.5s-40 118 -40 192c0 73.333 13.333 137 40 191s64.834 95.5 114.501 124.5s107.834 43.5 174.501 43.5c85.333 0 155.333 -21.833 210 -65.5s85 -109.167 91 -196.5h-164c-19.333 78 -65 117 -137 117
c-54.667 0 -94.334 -19.667 -119.001 -59s-37 -91 -37 -155c0 -64.667 12.167 -116.667 36.5 -156s64.166 -59 119.499 -59c72 0 117.667 39.333 137 118h164c-6 -88 -36.333 -153.833 -91 -197.5s-124.667 -65.5 -210 -65.5c-66.667 0 -124.834 14.5 -174.501 43.5z" />
    <glyph glyph-name="D" unicode="D" horiz-adv-x="693" 
d="M326 700c108 0 190.167 -30 246.5 -90s84.5 -146.667 84.5 -260s-28.167 -200 -84.5 -260s-138.5 -90 -246.5 -90h-275v700h275zM414 166.5c25.333 13.667 43.5 35.167 54.5 64.5s16.5 69 16.5 119s-5.5 89.667 -16.5 119s-29.167 50.833 -54.5 64.5
s-60.333 20.5 -105 20.5h-91v-408h91c44.667 0 79.667 6.83301 105 20.5z" />
    <glyph glyph-name="E" unicode="E" horiz-adv-x="573" 
d="M51 700h487v-146h-320v-136h290v-130h-290v-142h330v-146h-497v700z" />
    <glyph glyph-name="F" unicode="F" horiz-adv-x="548" 
d="M51 700h467v-146h-300v-142h249v-135h-249v-277h-167v700z" />
    <glyph glyph-name="G" unicode="G" horiz-adv-x="717" 
d="M123.5 85c-58.333 63.333 -87.502 151 -87.502 263c0 74 13.833 138.167 41.5 192.5s66.5 96 116.5 125s108.333 43.5 175 43.5c78.667 0 145.167 -20 199.5 -60s86.833 -100.667 97.5 -182h-167c-10 36.667 -27.333 62 -52 76s-51 21 -79 21
c-54 0 -94 -19.833 -120 -59.5s-39 -90.5 -39 -152.5c0 -62.667 13 -114.5 39 -155.5s66 -61.5 120 -61.5c37.333 0 69.833 9.5 97.5 28.5s41.834 50.167 42.501 93.5h-123v136h291v-62c0 -227.333 -101.333 -341 -304 -341c-107.333 0 -190.166 31.667 -248.499 95z" />
    <glyph glyph-name="H" unicode="H" horiz-adv-x="685" 
d="M467 700h168v-700h-168v282h-249v-282h-167v700h167v-279h249v279z" />
    <glyph glyph-name="I" unicode="I" horiz-adv-x="269" 
d="M51 700h167v-700h-167v700z" />
    <glyph glyph-name="J" unicode="J" horiz-adv-x="688" 
d="M130 59.5c-52.667 46.333 -78.999 115.166 -78.999 206.499h169c0 -42 10.833 -74.167 32.5 -96.5s52.5 -33.5 92.5 -33.5s70.833 12 92.5 36s32.5 59.667 32.5 107v421h168v-434c0 -91.333 -26.5 -160.166 -79.5 -206.499s-124.167 -69.5 -213.5 -69.5
c-90.667 0 -162.334 23.167 -215.001 69.5z" />
    <glyph glyph-name="K" unicode="K" horiz-adv-x="719" 
d="M511 0l-200 269l-93 -110v-159h-167v700h167v-315l261 315h197l-262 -310l290 -390h-193z" />
    <glyph glyph-name="L" unicode="L" horiz-adv-x="556" 
d="M51 700h167v-554h313v-146h-480v700z" />
    <glyph glyph-name="M" unicode="M" horiz-adv-x="854" 
d="M51 700h212l164 -470l164 470h213v-700h-168v412h-6l-141 -412h-124l-141 412h-6v-412h-167v700z" />
    <glyph glyph-name="N" unicode="N" horiz-adv-x="704" 
d="M51 700h173l258 -429h4v429h168v-700h-180l-252 418h-4v-418h-167v700z" />
    <glyph glyph-name="O" unicode="O" horiz-adv-x="748" 
d="M195.5 36c-51 30.667 -90.333 73.167 -118 127.5s-41.5 116.5 -41.5 186.5s13.833 132.167 41.5 186.5s67 96.666 118 126.999s110.5 45.5 178.5 45.5s127.667 -15.167 179 -45.5s90.833 -72.666 118.5 -126.999s41.5 -116.5 41.5 -186.5s-13.833 -132.167 -41.5 -186.5
s-67.167 -96.833 -118.5 -127.5s-111 -46 -179 -46s-127.5 15.333 -178.5 46zM496.5 194c28.333 39.333 42.5 91.333 42.5 156c0 65.333 -14.167 117.333 -42.5 156s-69.166 58 -122.499 58s-94.166 -19.333 -122.499 -58s-42.5 -90.667 -42.5 -156
c0 -64.667 14.167 -116.667 42.5 -156s69.166 -59 122.499 -59s94.166 19.667 122.499 59z" />
    <glyph glyph-name="P" unicode="P" horiz-adv-x="640" 
d="M341 700c92 0 160.5 -21.5 205.5 -64.5s67.5 -100.833 67.5 -173.5s-22.5 -130.667 -67.5 -174s-113.5 -65 -205.5 -65h-123v-223h-167v700h290zM415 394c17.333 16.667 26 39.333 26 68s-8.66699 51.167 -26 67.5s-44 24.5 -80 24.5h-117v-185h117
c36 0 62.667 8.33301 80 25z" />
    <glyph glyph-name="Q" unicode="Q" horiz-adv-x="748" 
d="M651 129l57.999 -58.999l-102 -95l-58 59c-51.333 -29.333 -109.666 -44 -174.999 -44c-68 0 -127.5 15.333 -178.5 46s-90.333 73.167 -118 127.5s-41.5 116.5 -41.5 186.5s13.833 132.167 41.5 186.5s67 96.666 118 126.999s110.5 45.5 178.5 45.5
s127.667 -15.167 179 -45.5s90.833 -72.666 118.5 -126.999s41.5 -116.5 41.5 -186.5c0 -86.667 -20.667 -160.334 -62 -221.001zM436.999 147.001l-84.001 84.999l102 95l71 -72c8.66699 26.667 13 58.334 13 95.001c0 65.333 -14.167 117.333 -42.5 156
s-69.166 58 -122.499 58s-94.166 -19.333 -122.499 -58s-42.5 -90.667 -42.5 -156c0 -64.667 14.167 -116.667 42.5 -156s69.166 -59 122.499 -59c24 0 45 4 63 12z" />
    <glyph glyph-name="R" unicode="R" horiz-adv-x="647" 
d="M455 0l-126 222.999h-111v-223h-167v700h290c92 0 160.5 -21.5 205.5 -64.5s67.5 -100.833 67.5 -173.5c0 -51.333 -11.333 -95.666 -34 -132.999s-56.667 -65 -102 -83l143 -246h-166zM218 368.999l117 -0.000976562c36 0 62.667 8.33301 80 25s26 39.334 26 68.001
s-8.66699 51.167 -26 67.5s-44 24.5 -80 24.5h-117v-185z" />
    <glyph glyph-name="S" unicode="S" horiz-adv-x="662" 
d="M116.5 53.5c-53.667 42.333 -80.5029 103.171 -80.5029 182.504h174c1.33301 -32 12.333 -57.833 33 -77.5s51.667 -29.5 93 -29.5c36 0 63.667 6.83301 83 20.5s29 33.5 29 59.5c0 20 -6.66699 35.667 -20 47s-34.666 19.666 -63.999 24.999l-103 20
c-62.667 11.333 -112.667 32.333 -150 63s-56 76.667 -56 138c0 67.333 24.667 118.666 74 153.999s115 53 197 53c84.667 0 152.834 -18.833 204.501 -56.5s77.5 -92.834 77.5 -165.501h-174c1.33301 28.667 -7.83398 49.667 -27.501 63s-45.5 20 -77.5 20
c-34 0 -58.833 -7 -74.5 -21s-23.5 -31.667 -23.5 -53c0 -15.333 4.83301 -29 14.5 -41s26.834 -20.333 51.501 -25l96 -18c84.667 -15.333 144.667 -39.333 180 -72s53 -76.334 53 -131.001c0 -74 -27.167 -129 -81.5 -165s-124.166 -54 -209.499 -54
c-92 0 -164.833 21.167 -218.5 63.5z" />
    <glyph glyph-name="T" unicode="T" horiz-adv-x="606" 
d="M219 554h-198v146h565v-146h-199v-554h-168v554z" />
    <glyph glyph-name="U" unicode="U" horiz-adv-x="688" 
d="M130 59.5c-52.667 46.333 -78.998 115.166 -78.998 206.499v434h169v-421c0 -46.667 11 -82.167 33 -106.5s52.667 -36.5 92 -36.5s69.666 12.167 90.999 36.5s32 59.833 32 106.5v421h170v-434c0 -91.333 -26.5 -160.166 -79.5 -206.499s-124.167 -69.5 -213.5 -69.5
c-90.667 0 -162.334 23.167 -215.001 69.5z" />
    <glyph glyph-name="V" unicode="V" horiz-adv-x="757" 
d="M21 700h176l177 -530h10l176 530h177l-250 -700h-217z" />
    <glyph glyph-name="W" unicode="W" horiz-adv-x="1026" 
d="M21 700h172l103 -463h6l125 463h172l125 -463h6l103 463h173l-181 -700h-174l-138 489l-138 -489h-174z" />
    <glyph glyph-name="X" unicode="X" horiz-adv-x="687" 
d="M672 0h-189l-139 215l-140 -215h-188l234 360l-221 340h188l127 -195l126 195h188l-220 -340z" />
    <glyph glyph-name="Y" unicode="Y" horiz-adv-x="719" 
d="M273 253l-252 447h191l148 -284l148 284h191l-253 -447v-253h-173v253z" />
    <glyph glyph-name="Z" unicode="Z" horiz-adv-x="624" 
d="M40 146l354 408h-348v146h534l1 -146l-357 -408h360v-146h-544v146z" />
    <glyph glyph-name="bracketleft" unicode="[" horiz-adv-x="336" 
d="M51 745h235v-140h-71v-595h71v-140h-235v875z" />
    <glyph glyph-name="backslash" unicode="\" horiz-adv-x="498" 
d="M468 2h-165l-273 698h165z" />
    <glyph glyph-name="bracketright" unicode="]" horiz-adv-x="336" 
d="M286 -130h-235v140h71v595h-71v140h235v-875z" />
    <glyph glyph-name="asciicircum" unicode="^" horiz-adv-x="508" 
d="M206 700h98l159 -235h-145l-64 102l-64 -102h-145z" />
    <glyph glyph-name="underscore" unicode="_" horiz-adv-x="590" 
d="M45 0h500v-140h-500v140z" />
    <glyph glyph-name="grave" unicode="`" horiz-adv-x="257" 
d="M113 580l-103 141h144l103 -141h-144z" />
    <glyph glyph-name="a" unicode="a" horiz-adv-x="563" 
d="M459.5 488c35 -28 52.4971 -70.667 52.4971 -128v-360h-156v89h-6c-1.33301 -10.667 -7.66602 -23.834 -18.999 -39.501s-28.666 -29.5 -51.999 -41.5s-52 -18 -86 -18c-46 0 -85.333 11.833 -118 35.5s-49 60.5 -49 110.5c0 52 16.833 88.167 50.5 108.5
s76.834 33.5 129.501 39.5l97 13c14 1.33301 24.167 3.83301 30.5 7.5s10.333 8.66699 12 15s2.5 16.5 2.5 30.5c0 24 -5.83301 40 -17.5 48s-27.5 12 -47.5 12c-21.333 0 -38.833 -4 -52.5 -12s-20.5 -23.333 -20.5 -46v-4l-154 -2v22c0 52.667 18.5 92.834 55.5 120.501
s95.833 41.5 176.5 41.5c79.333 0 136.5 -14 171.5 -42zM347.997 226c-4 -3.33301 -9.16797 -5.83203 -15.501 -7.49902s-15.833 -3.5 -28.5 -5.5l-57 -8c-18.667 -4 -33.167 -9.33301 -43.5 -16s-15.5 -17.334 -15.5 -32.001c0 -12.667 4.83301 -24 14.5 -34
s27.834 -15 54.501 -15c29.333 0 51.833 7.5 67.5 22.5s23.5 32.167 23.5 51.5v44z" />
    <glyph glyph-name="b" unicode="b" 
d="M265.5 14c-26.333 16 -43.166 34.667 -50.499 56v-70h-164v700h164v-250c7.33301 21.333 24.166 40 50.499 56s57.5 24 93.5 24c38 0 74.167 -9.66699 108.5 -29s62.5 -49.166 84.5 -89.499s33 -90.833 33 -151.5s-11 -111.334 -33 -152.001s-50.167 -70.5 -84.5 -89.5
s-70.5 -28.5 -108.5 -28.5c-36 0 -67.167 8 -93.5 24zM398 160.5c22 23 33 56.167 33 99.5s-11 76.5 -33 99.5s-48.667 34.5 -80 34.5c-30.667 0 -56.667 -11.5 -78 -34.5s-32 -56.167 -32 -99.5s10.667 -76.5 32 -99.5s47.333 -34.5 78 -34.5c31.333 0 58 11.5 80 34.5z
" />
    <glyph glyph-name="c" unicode="c" horiz-adv-x="563" 
d="M162 17.5c-40 18.333 -72.666 47.502 -97.999 87.502s-38 91.333 -38 154c0 63.333 12.667 115.166 38 155.499s57.833 69.666 97.5 87.999s82.5 27.5 128.5 27.5c59.333 0 112.5 -15.833 159.5 -47.5s74.833 -88.5 83.5 -170.5h-145c-10.667 54.667 -43.667 82 -99 82
c-37.333 0 -65 -12.333 -83 -37s-27 -57.334 -27 -98.001c0 -39.333 9 -71.333 27 -96s45.667 -37 83 -37c54.667 0 87.667 27.667 99 83h145c-6.66699 -81.333 -33.834 -138.166 -81.501 -170.499s-101.5 -48.5 -161.5 -48.5c-45.333 0 -88 9.16699 -128 27.5z" />
    <glyph glyph-name="d" unicode="d" 
d="M143 18.5c-34 19 -62 48.833 -84 89.5s-33 91.334 -33 152.001s11 111.167 33 151.5s50 70.166 84 89.499s70 29 108 29c36 0 67.167 -8 93.5 -24s43.166 -34.667 50.499 -56h1v250h164v-700h-164v70h-1c-7.33301 -21.333 -24.166 -40 -50.499 -56s-57.5 -24 -93.5 -24
c-38 0 -74 9.5 -108 28.5zM370.5 160.5c21.667 23 32.5 56.167 32.5 99.5s-10.833 76.5 -32.5 99.5s-47.834 34.5 -78.501 34.5c-31.333 0 -57.833 -11.5 -79.5 -34.5s-32.5 -56.167 -32.5 -99.5s10.833 -76.5 32.5 -99.5s48.167 -34.5 79.5 -34.5
c30.667 0 56.834 11.5 78.501 34.5z" />
    <glyph glyph-name="e" unicode="e" horiz-adv-x="568" 
d="M540 218l-359.003 -0.000976562c4.66699 -39.333 17 -67.5 37 -84.5s47.667 -25.5 83 -25.5c28.667 0 49.334 5.33301 62.001 16s22.334 26.667 29.001 48h144c-12 -59.333 -39.5 -105.166 -82.5 -137.499s-97.167 -48.5 -162.5 -48.5c-46.667 0 -90 9 -130 27
s-72.5 47.333 -97.5 88s-37.5 93 -37.5 157c0 92.667 25 161.167 75 205.5s113.333 66.5 190 66.5c74.667 0 135.334 -22.167 182.001 -66.5s70 -114.833 70 -211.5c0 -10.667 -1 -22 -3 -34zM387.997 304.999c-2 30 -10.667 54.333 -26 73s-40.333 28 -75 28
c-31.333 0 -56 -8.66699 -74 -26s-28.667 -42.333 -32 -75h207z" />
    <glyph glyph-name="f" unicode="f" horiz-adv-x="380" 
d="M254 528v-8.00098h98v-126h-98v-394h-164v394h-74v126h74v25c0 58.667 15.833 101.834 47.5 129.501s76.167 41.5 133.5 41.5h84v-124h-45c-37.333 0 -56 -21.333 -56 -64z" />
    <glyph glyph-name="g" unicode="g" horiz-adv-x="603" 
d="M552 520l0.00195312 -497.999c0 -87.333 -27.667 -147.666 -83 -180.999s-118.333 -50 -189 -50c-62.667 0 -119 12.667 -169 38s-75.333 73.666 -76 144.999h145c1.33301 -20.667 11.666 -35.334 30.999 -44.001s40.666 -13 63.999 -13c33.333 0 60.5 8.66699 81.5 26
s31.5 43.666 31.5 78.999v57c-14 -18.667 -33.333 -34.167 -58 -46.5s-53.667 -18.5 -87 -18.5c-36.667 0 -71.5 8.66699 -104.5 26s-60 45.333 -81 84s-31.5 88 -31.5 148c0 59.333 10.667 108.333 32 147s48.5 66.834 81.5 84.501s67.5 26.5 103.5 26.5
c33.333 0 62.333 -6.16699 87 -18.5s44 -27.833 58 -46.5v55h164zM365.002 181.501c20 21 30 51.167 30 90.5s-10 69.5 -30 90.5s-45.333 31.5 -76 31.5c-31.333 0 -57.333 -10.5 -78 -31.5s-31 -51.167 -31 -90.5s10.333 -69.5 31 -90.5s46.667 -31.5 78 -31.5
c30.667 0 56 10.5 76 31.5z" />
    <glyph glyph-name="h" unicode="h" horiz-adv-x="612" 
d="M511.5 478.5c33 -34.333 49.5 -83.166 49.5 -146.499v-332h-164v292c0 68.667 -28.667 103 -86 103c-28 0 -51 -8.5 -69 -25.5s-27 -42.833 -27 -77.5v-292h-164v700h164v-290h6c4 18.667 12.5 37.167 25.5 55.5s31 33.666 54 45.999s50.5 18.5 82.5 18.5
c52.667 0 95.5 -17.167 128.5 -51.5z" />
    <glyph glyph-name="i" unicode="i" horiz-adv-x="265" 
d="M70.5 595c-17.667 16.667 -26.5 37 -26.5 61s8.83301 44.5 26.5 61.5s38.5 25.5 62.5 25.5c23.333 0 43.833 -8.5 61.5 -25.5s26.5 -37.5 26.5 -61.5c0 -23.333 -8.83301 -43.5 -26.5 -60.5s-38.167 -25.5 -61.5 -25.5c-24 0 -44.833 8.33301 -62.5 25zM51 520h164v-520
h-164v520z" />
    <glyph glyph-name="j" unicode="j" horiz-adv-x="276" 
d="M81 595c-17.333 16.667 -26 37 -26 61s8.66699 44.5 26 61.5s38 25.5 62 25.5s44.667 -8.5 62 -25.5s26 -37.5 26 -61.5s-8.66699 -44.333 -26 -61s-38 -25 -62 -25s-44.667 8.33301 -62 25zM13 -196c-27.333 0 -48 1.00098 -62 3.00098v127h55c36.667 0 55 21.667 55 65
v521h164v-545c0 -58.667 -15.833 -101.834 -47.5 -129.501s-76.167 -41.5 -133.5 -41.5h-31z" />
    <glyph glyph-name="k" unicode="k" horiz-adv-x="596" 
d="M411 0l-155 194l-41 -44v-150h-164v700h164v-374l170 194h179l-208 -220l235 -300h-180z" />
    <glyph glyph-name="l" unicode="l" horiz-adv-x="265" 
d="M51 700h164v-700h-164v700z" />
    <glyph glyph-name="m" unicode="m" horiz-adv-x="908" 
d="M811 478.5c31.333 -34.333 46.999 -83.166 46.999 -146.499v-332h-164v292c0 35.333 -6.83301 61.333 -20.5 78s-32.167 25 -55.5 25c-24 0 -43.667 -8.5 -59 -25.5s-23 -42.833 -23 -77.5v-292h-164v292c0 35.333 -6.66699 61.333 -20 78s-32 25 -56 25
c-23.333 0 -42.666 -8.5 -57.999 -25.5s-23 -42.833 -23 -77.5v-292h-164v520h164v-110h6c2.66699 18 10.667 36.333 24 55s30.833 34.167 52.5 46.5s45.834 18.5 72.501 18.5c36.667 0 68.834 -10.167 96.501 -30.5s47.167 -49.833 58.5 -88.5h1
c3.33301 18 12 36.167 26 54.5s32.667 33.666 56 45.999s49.666 18.5 78.999 18.5c51.333 0 92.666 -17.167 123.999 -51.5z" />
    <glyph glyph-name="n" unicode="n" horiz-adv-x="612" 
d="M511.5 478.5c33 -34.333 49.5 -83.166 49.5 -146.499v-332h-164v292c0 68.667 -28.667 103 -86 103c-28 0 -51 -8.5 -69 -25.5s-27 -42.833 -27 -77.5v-292h-164v520h164v-110h6c4 18.667 12.5 37.167 25.5 55.5s31 33.666 54 45.999s50.5 18.5 82.5 18.5
c52.667 0 95.5 -17.167 128.5 -51.5z" />
    <glyph glyph-name="o" unicode="o" horiz-adv-x="579" 
d="M160 19c-40 19.333 -72.333 49.166 -97 89.499s-37 90.833 -37 151.5s12.333 111.167 37 151.5s57 70.166 97 89.499s83.333 29 130 29c46 0 89 -9.66699 129 -29s72.5 -49.166 97.5 -89.499s37.5 -90.833 37.5 -151.5s-12.5 -111.167 -37.5 -151.5
s-57.5 -70.166 -97.5 -89.499s-83 -29 -129 -29c-46.667 0 -90 9.66699 -130 29zM370 160c20 22.667 30 56 30 100s-10 77.333 -30 100s-46.667 34 -80 34s-60.166 -11.333 -80.499 -34s-30.5 -56 -30.5 -100s10.167 -77.333 30.5 -100s47.166 -34 80.499 -34
s60 11.333 80 34z" />
    <glyph glyph-name="p" unicode="p" 
d="M215 520v-70c7.33301 21.333 24.166 40 50.499 56s57.5 24 93.5 24c38 0 74.167 -9.66699 108.5 -29s62.5 -49.166 84.5 -89.499s33 -90.833 33 -151.5s-11 -111.334 -33 -152.001s-50.167 -70.5 -84.5 -89.5s-70.5 -28.5 -108.5 -28.5c-36 0 -67.167 8 -93.5 24
s-43.166 34.667 -50.499 56v-260h-164v710h164zM398 160.5c22 23 33 56.167 33 99.5s-11 76.5 -33 99.5s-48.667 34.5 -80 34.5c-30.667 0 -56.667 -11.5 -78 -34.5s-32 -56.167 -32 -99.5s10.667 -76.5 32 -99.5s47.333 -34.5 78 -34.5c31.333 0 58 11.5 80 34.5z" />
    <glyph glyph-name="q" unicode="q" 
d="M396 -190v260h-1c-7.33301 -21.333 -24.166 -40 -50.499 -56s-57.5 -24 -93.5 -24c-38 0 -74 9.5 -108 28.5s-62 48.833 -84 89.5s-33 91.334 -33 152.001s11 111.167 33 151.5s50 70.166 84 89.499s70 29 108 29c36 0 67.167 -8 93.5 -24s43.166 -34.667 50.499 -56h1
v70h164v-710h-164zM370.5 160.5c21.667 23 32.5 56.167 32.5 99.5s-10.833 76.5 -32.5 99.5s-47.834 34.5 -78.501 34.5c-31.333 0 -57.833 -11.5 -79.5 -34.5s-32.5 -56.167 -32.5 -99.5s10.833 -76.5 32.5 -99.5s48.167 -34.5 79.5 -34.5
c30.667 0 56.834 11.5 78.501 34.5z" />
    <glyph glyph-name="r" unicode="r" horiz-adv-x="421" 
d="M406 519v-138c-17.333 2 -31.333 3 -42 3c-42 0 -77.333 -12.667 -106 -38s-43 -68 -43 -128v-218h-164v520h164v-129h4c10 42 27.333 74.667 52 98s56.334 35 95.001 35c13.333 0 26.666 -1.66699 39.999 -5z" />
    <glyph glyph-name="s" unicode="s" horiz-adv-x="508" 
d="M79 37.5c-39.333 31.667 -58.667 78.168 -58 139.501h146c2.66699 -22.667 10.5 -39.334 23.5 -50.001s32.833 -16 59.5 -16c22 0 38.833 3.83301 50.5 11.5s17.5 18.5 17.5 32.5c0 9.33301 -3 17 -9 23s-15.667 10.333 -29 13l-95 21c-100 21.333 -150 73.333 -150 156
c0 51.333 19.5 91.166 58.5 119.499s91.833 42.5 158.5 42.5c70.667 0 124 -16.5 160 -49.5s54 -78.833 54 -137.5h-136c-2.66699 44 -27 66 -73 66c-20.667 0 -37 -3.5 -49 -10.5s-18 -16.5 -18 -28.5c0 -10.667 4.33301 -19.5 13 -26.5s20 -11.5 34 -13.5l100 -22
c100.667 -21.333 151 -71.333 151 -150c0 -55.333 -22.5 -97.166 -67.5 -125.499s-102.167 -42.5 -171.5 -42.5c-74 0 -130.667 15.833 -170 47.5z" />
    <glyph glyph-name="t" unicode="t" horiz-adv-x="395" 
d="M375 123l0.000976562 -127c-20.667 -2 -50.334 -3 -89.001 -3c-57.333 0 -101.833 14 -133.5 42s-47.5 71.333 -47.5 130v229h-89v126h89v136h164v-136h102v-126h-102v-206c0 -43.333 19 -65 57 -65h49z" />
    <glyph glyph-name="u" unicode="u" horiz-adv-x="612" 
d="M562 520v-520h-164v110h-7c-4 -18.667 -12.5 -37.167 -25.5 -55.5s-31 -33.666 -54 -45.999s-50.5 -18.5 -82.5 -18.5c-52.667 0 -95.5 17.167 -128.5 51.5s-49.5 83.166 -49.5 146.499v332h164v-292c0 -68.667 28.667 -103 86 -103c28 0 51.167 8.5 69.5 25.5
s27.5 42.833 27.5 77.5v292h164z" />
    <glyph glyph-name="v" unicode="v" 
d="M16 520h166l120 -363h6l119 363h167l-186 -520h-206z" />
    <glyph glyph-name="w" unicode="w" horiz-adv-x="837" 
d="M16 520h154l81 -362h4l93 362h141l93 -362h4l81 362h155l-136 -520h-184l-83 302l-83 -302h-185z" />
    <glyph glyph-name="x" unicode="x" horiz-adv-x="595" 
d="M204 263l-166 257h176l84 -140l83 140h176l-166 -257l179 -263h-176l-96 145l-97 -145h-175z" />
    <glyph glyph-name="y" unicode="y" horiz-adv-x="591" 
d="M110 -67c31.333 0 53.999 4.66797 67.999 14.001s24 20.666 30 33.999c5.33301 12 8 22.333 8 31c0 9.33301 -3.66699 23 -11 41l-189 467h167l111 -311l114 311h168l-210 -514c-21.333 -52 -42.833 -93.167 -64.5 -123.5s-47 -52.5 -76 -66.5s-64.167 -21 -105.5 -21
c-15.333 0 -32.666 1 -51.999 3v138c16 -2 30 -3 42 -3z" />
    <glyph glyph-name="z" unicode="z" horiz-adv-x="513" 
d="M40 137l237 246h-227v137h423v-137l-237 -246h237v-137h-433v137z" />
    <glyph glyph-name="braceleft" unicode="{" horiz-adv-x="369" 
d="M126.5 -105c-24.333 16.667 -36.5 48.667 -36.5 96v244l-45 71l45 73v245c0 47.333 12.333 79.333 37 96s52.667 25 84 25h113v-140h-35c-23.333 0 -35 -9.66699 -35 -29v-202l-59 -68l59 -66v-201c0 -19.333 11.667 -29 35 -29h35v-140h-113
c-32 0 -60.167 8.33301 -84.5 25z" />
    <glyph glyph-name="bar" unicode="|" horiz-adv-x="290" 
d="M75 800h140v-990h-140v990z" />
    <glyph glyph-name="braceright" unicode="}" horiz-adv-x="369" 
d="M45 -130l-0.00195312 140h35c23.333 0 35 9.66699 35 29v201l59 66l-59 68v202c0 19.333 -11.667 29 -35 29h-35v140h114c30.667 0 58.334 -8.33301 83.001 -25s37 -48.667 37 -96v-245l45 -73l-45 -71v-244c0 -47.333 -12.167 -79.333 -36.5 -96
s-52.166 -25 -83.499 -25h-114z" />
    <glyph glyph-name="asciitilde" unicode="~" horiz-adv-x="613" 
d="M359.5 196.5c-19.667 9.66699 -42.8311 24.167 -69.498 43.5c-19.333 14.667 -35.666 25.5 -48.999 32.5s-27 10.5 -41 10.5c-14.667 0 -27 -4 -37 -12s-15 -19.333 -15 -34h-97c-2.66699 41.333 8.66602 75.833 33.999 103.5s58.666 41.5 99.999 41.5
c25.333 0 48 -4.83301 68 -14.5s43.333 -24.167 70 -43.5c19.333 -14.667 35.666 -25.5 48.999 -32.5s27 -10.5 41 -10.5c14.667 0 27 4 37 12s15 19.333 15 34h98c2 -41.333 -9.83301 -75.833 -35.5 -103.5s-59.167 -41.5 -100.5 -41.5
c-25.333 0 -47.833 4.83301 -67.5 14.5z" />
    <glyph glyph-name="exclamdown" unicode="&#xa1;" horiz-adv-x="295" 
d="M216.5 502.5c19 -18.333 28.5 -40.833 28.5 -67.5s-9.5 -49.167 -28.5 -67.5s-41.833 -27.5 -68.5 -27.5c-27.333 0 -50.333 9.16699 -69 27.5s-28 40.833 -28 67.5s9.33301 49.167 28 67.5s41.667 27.5 69 27.5c26.667 0 49.5 -9.16699 68.5 -27.5zM86 265h123l22 -445
h-166z" />
    <glyph glyph-name="cent" unicode="&#xa2;" horiz-adv-x="563" 
d="M388 280l145.001 0.000976562c-6 -74 -30 -127.167 -72 -159.5s-91 -50.5 -147 -54.5v-106h-55v106c-66 6 -121.333 30.667 -166 74s-67 106.333 -67 189c0 83.333 22.333 146.666 67 189.999s100 68 166 74v107h55v-107c55.333 -4 103.833 -21.667 145.5 -53
s66.167 -84.333 73.5 -159h-145c-8.66699 44.667 -33.334 70.667 -74.001 78v-258c40 6.66699 64.667 33 74 79zM198.501 245.001c13 -22.667 33.167 -37 60.5 -43v256c-27.333 -6 -47.5 -20.5 -60.5 -43.5s-19.5 -51.5 -19.5 -85.5c0 -33.333 6.5 -61.333 19.5 -84z" />
    <glyph glyph-name="sterling" unicode="&#xa3;" horiz-adv-x="587" 
d="M391 480l-0.000976562 14.9971c0 16 -6.5 32 -19.5 48s-36.5 24 -70.5 24s-57.5 -8.16699 -70.5 -24.5s-19.5 -34.833 -19.5 -55.5c0 -15.333 3 -29.5 9 -42.5s15 -29.833 27 -50.5l13 -21h105v-86h-73v-10c0 -24.667 -7 -48.834 -21 -72.501s-39 -49.167 -75 -76.5
c24 8.66699 49.333 13 76 13c13.333 0 27.833 -1 43.5 -3s26.5 -3.33301 32.5 -4c33.333 -6 64 -9 92 -9c34.667 0 68.334 4.33301 101.001 13v-138c-27.333 -6.66699 -58 -10 -92 -10c-30 0 -71 4.66699 -123 14c-48 8 -83.667 12 -107 12c-40 0 -79.667 -8.66699 -119 -26
l-59 94c30.667 28.667 54.167 56.334 70.5 83.001s24.833 53.334 25.5 80.001c0 14.667 -2 28 -6 40h-90v86h46c-11.333 18.667 -20 37.334 -26 56.001s-9 40 -9 64c0 42.667 11 80.334 33 113.001s51.833 57.667 89.5 75s79.5 26 125.5 26c43.333 0 83.833 -8 121.5 -24
s68 -39.833 91 -71.5s34.5 -69.167 34.5 -112.5v-19h-156z" />
    <glyph glyph-name="currency" unicode="&#xa4;" horiz-adv-x="611" 
d="M513 398l49.998 -49.001l-104 -102l-38 38c-36.667 -22 -76 -33 -118 -33c-41.333 0 -79.666 10.333 -114.999 31l-36 -36l-104 102l46 46c-10 25.333 -15 52.333 -15 81c0 30.667 5.66699 59.334 17 86.001l-48 48l104 102l41 -41c32.667 19.333 69.334 29 110.001 29
c41.333 0 79 -10.333 113 -31l43 43l104 -102l-52 -52c10.667 -26.667 16 -54 16 -82c0 -27.333 -4.66699 -53.333 -14 -78zM374.998 416.499c12.667 21 19 40.833 19 59.5s-6.33301 38.5 -19 59.5s-36.667 31.5 -72 31.5c-36 0 -60.167 -10.5 -72.5 -31.5
s-18.5 -40.833 -18.5 -59.5c0 -19.333 6.16699 -39.333 18.5 -60s36.5 -31 72.5 -31c35.333 0 59.333 10.5 72 31.5z" />
    <glyph glyph-name="yen" unicode="&#xa5;" horiz-adv-x="719" 
d="M699 700l-250 -441h115v-80h-118v-32h118v-79h-118v-68h-173v68h-113v79h113v32h-113v80h110l-249 441h191l148 -284l148 284h191z" />
    <glyph glyph-name="brokenbar" unicode="&#xa6;" horiz-adv-x="290" 
d="M75 800h140v-320h-140v320zM75 130h140v-320h-140v320z" />
    <glyph glyph-name="section" unicode="&#xa7;" horiz-adv-x="710" 
d="M621 86c19.333 -28.667 29.0049 -65.332 29.0049 -109.999c0 -72.667 -28.5 -126.167 -85.5 -160.5s-128.5 -51.5 -214.5 -51.5c-88 0 -158.5 20.167 -211.5 60.5s-82.5 99.833 -88.5 178.5h184c4 -30 15.5 -52 34.5 -66s46.833 -21 83.5 -21
c35.333 0 63.166 5.33301 83.499 16s30.5 26 30.5 46c0 22 -6.33301 38.167 -19 48.5s-36.334 19.5 -71.001 27.5l-87 20c-46 10.667 -84.333 23.167 -115 37.5s-55.5 35.166 -74.5 62.499s-28.5 63 -28.5 107c0 46 13.667 85.333 41 118c-20.667 28 -31 64.667 -31 110
c0 41.333 11.667 77 35 107s55.666 52.833 96.999 68.5s88.666 23.5 141.999 23.5c79.333 0 144.833 -18 196.5 -54s81.167 -90 88.5 -162h-183c-3.33301 25.333 -14.333 42.333 -33 51s-41.667 13 -69 13c-30.667 0 -53.334 -5.16699 -68.001 -15.5s-22 -22.833 -22 -37.5
c0 -12.667 3.83301 -23.667 11.5 -33s23.167 -17 46.5 -23l109 -25c56 -13.333 100.5 -29.666 133.5 -48.999s57 -42.833 72 -70.5s22.5 -61.834 22.5 -102.501c0 -44 -13 -82 -39 -114zM422.005 194.002c14 -3.33301 30.333 -8.00098 49 -14.001c3.33301 8 5 15.333 5 22
c0 22 -6.5 38.667 -19.5 50s-36.5 21.333 -70.5 30l-87 20c-5.33301 0.666992 -16 3.33398 -32 8.00098c-8 -10 -12 -21.667 -12 -35c0 -12.667 3.83301 -23.5 11.5 -32.5s23.167 -16.833 46.5 -23.5z" />
    <glyph glyph-name="dieresis" unicode="&#xa8;" horiz-adv-x="430" 
d="M26.5 595.5c-17.667 17 -26.5 37.167 -26.5 60.5c-0 24 8.83301 44.5 26.5 61.5s38.167 25.5 61.5 25.5c24 0 44.833 -8.5 62.5 -25.5s26.5 -37.5 26.5 -61.5s-8.83301 -44.333 -26.5 -61s-38.5 -25 -62.5 -25c-23.333 0 -43.833 8.5 -61.5 25.5zM279.5 595
c-17.667 16.667 -26.5 37 -26.5 61s8.83301 44.5 26.5 61.5s38.5 25.5 62.5 25.5c23.333 0 43.833 -8.5 61.5 -25.5s26.5 -37.5 26.5 -61.5c0 -23.333 -8.83301 -43.5 -26.5 -60.5s-38.167 -25.5 -61.5 -25.5c-24 0 -44.833 8.33301 -62.5 25z" />
    <glyph glyph-name="copyright" unicode="&#xa9;" horiz-adv-x="785" 
d="M213.5 39c-54.333 30.667 -97.5 73.334 -129.5 128.001s-48 115.667 -48 183s16 128.166 48 182.499s75.167 96.833 129.5 127.5s114.166 46 179.499 46s125.166 -15.333 179.499 -46s97.5 -73.167 129.5 -127.5s48 -115.166 48 -182.499s-16 -128.333 -48 -183
s-75.167 -97.334 -129.5 -128.001s-114.166 -46 -179.499 -46s-125.166 15.333 -179.499 46zM526.5 117c40.333 22.667 72.167 54.334 95.5 95.001s35 86.667 35 138s-11.833 97.166 -35.5 137.499s-55.5 71.833 -95.5 94.5s-84.333 34 -133 34s-93.167 -11.333 -133.5 -34
s-72.166 -54.167 -95.499 -94.5s-35 -86.166 -35 -137.499s11.667 -97.333 35 -138s55.166 -72.334 95.499 -95.001s84.833 -34 133.5 -34s93.167 11.333 133.5 34zM302.001 178.5c-29.333 15.667 -52.665 38.333 -69.998 68s-26 64.167 -26 103.5
s8.66699 73.666 26 102.999s40.666 51.833 69.999 67.5s61 23.5 95 23.5c39.333 0 75.5 -10.833 108.5 -32.5s54.167 -60.167 63.5 -115.5h-97c-2.66699 18 -11.167 31.667 -25.5 41s-31.5 14 -51.5 14c-25.333 0 -46.333 -8.66699 -63 -26s-25 -42.333 -25 -75
s8.33301 -57.834 25 -75.501s37.667 -26.5 63 -26.5c19.333 0 36.333 4.83301 51 14.5s24 23.834 28 42.501h96c-8.66699 -55.333 -29.834 -94.166 -63.501 -116.499s-70.167 -33.5 -109.5 -33.5c-34 0 -65.667 7.83301 -95 23.5z" />
    <glyph glyph-name="ordfeminine" unicode="&#xaa;" horiz-adv-x="409" 
d="M58 397.5c-21.333 17 -31.999 42.501 -31.999 76.501s10.833 58.333 32.5 73s51.167 23.334 88.5 26.001l87 5c0.666992 21.333 -2.83301 36.333 -10.5 45s-20.5 13 -38.5 13c-34 0 -51 -12.333 -51 -37h-93c0.666992 44 13.5 74.833 38.5 92.5s61.167 26.5 108.5 26.5
c57.333 0 97 -12.833 119 -38.5s33 -65.834 33 -120.501v-111c0 -15.333 1 -28.333 3 -39s7 -22.334 15 -35.001h-91c-12.667 12 -19 31 -19 57c-8.66699 -17.333 -23.334 -31.5 -44.001 -42.5s-43.667 -16.5 -69 -16.5c-30 0 -55.667 8.5 -77 25.5zM209.501 472.001
c10.333 10 17.832 22.334 22.499 37.001v10l-69 -6c-9.33301 -0.666992 -16.166 -4.16699 -20.499 -10.5s-6.5 -12.5 -6.5 -18.5c0 -6.66699 2.83301 -12.834 8.5 -18.501s14.167 -8.5 25.5 -8.5c16 0 29.167 5 39.5 15z" />
    <glyph glyph-name="guillemotleft" unicode="&#xab;" horiz-adv-x="480" 
d="M40 231v134l180 144v-146l-82 -65l82 -65v-146zM260 231v134l180 144v-146l-82 -65l82 -65v-146z" />
    <glyph glyph-name="logicalnot" unicode="&#xac;" horiz-adv-x="543" 
d="M329 187h-278v125h442v-221h-164v96z" />
    <glyph glyph-name="uni00AD" unicode="&#xad;" horiz-adv-x="397" 
d="M40 336h317v-122h-317v122z" />
    <glyph glyph-name="registered" unicode="&#xae;" horiz-adv-x="785" 
d="M572.5 660c54.333 -30.667 97.5 -73.167 129.5 -127.5s48 -115.166 48 -182.499s-16 -128.333 -48 -183s-75.167 -97.334 -129.5 -128.001s-114.166 -46 -179.499 -46s-125.166 15.333 -179.499 46s-97.5 73.334 -129.5 128.001s-48 115.667 -48 183
s16 128.166 48 182.499s75.167 96.833 129.5 127.5s114.166 46 179.499 46s125.166 -15.333 179.499 -46zM526.5 117c40.333 22.667 72.167 54.334 95.5 95.001s35 86.667 35 138s-11.833 97.166 -35.5 137.499s-55.5 71.833 -95.5 94.5s-84.333 34 -133 34
s-93.167 -11.333 -133.5 -34s-72.166 -54.167 -95.499 -94.5s-35 -86.166 -35 -137.499s11.667 -97.333 35 -138s55.166 -72.334 95.499 -95.001s84.833 -34 133.5 -34s93.167 11.333 133.5 34zM544.501 339.5c-11.667 -18.333 -28.833 -32.167 -51.5 -41.5l75 -113h-103
l-68 103h-52v-103h-99v331h185c41.333 0 73.5 -10 96.5 -30s34.5 -47.333 34.5 -82c0 -24.667 -5.83301 -46.167 -17.5 -64.5zM345.002 365.999h77c29.333 0 44 12 44 36c0 10 -3.66699 18 -11 24s-18.333 9 -33 9h-77v-69z" />
    <glyph glyph-name="macron" unicode="&#xaf;" horiz-adv-x="337" 
d="M0 721h337v-93h-337v93z" />
    <glyph glyph-name="degree" unicode="&#xb0;" horiz-adv-x="361" 
d="M103 440c-22.667 13.333 -40.334 31.1699 -53.001 53.5029s-19 47.166 -19 74.499s6.33301 52.166 19 74.499s30.334 40.166 53.001 53.499s48.334 20 77.001 20s54.5 -6.5 77.5 -19.5s40.833 -30.833 53.5 -53.5s19 -47.667 19 -75s-6.33301 -52.333 -19 -75
s-30.5 -40.5 -53.5 -53.5s-48.833 -19.5 -77.5 -19.5s-54.334 6.66699 -77.001 20zM211 541.004c6.66699 8.66699 10 17.667 10 27c0 10 -3.33301 19.333 -10 28s-17 13 -31 13c-13.333 0 -23.333 -4.33301 -30 -13s-10 -18 -10 -28c0 -9.33301 3.33301 -18.333 10 -27
s16.667 -13 30 -13c14 0 24.333 4.33301 31 13z" />
    <glyph glyph-name="plusminus" unicode="&#xb1;" horiz-adv-x="621" 
d="M235 392h-184v141h184v183h151v-183h185v-141h-185v-185h-151v185zM139 123h342v-123h-342v123z" />
    <glyph glyph-name="uni00B2" unicode="&#xb2;" horiz-adv-x="269" 
d="M53 520c8.66699 18.667 28 36.667 58 54l21 10.5c10 5 17.167 10.333 21.5 16s6.5 12.834 6.5 21.501s-3 15.334 -9 20.001s-12.667 7 -20 7c-6.66699 0 -13.167 -2.66699 -19.5 -8s-9.5 -13.333 -9.5 -24v-8h-62v8c0 26.667 7.5 48 22.5 64s37.833 24 68.5 24
s54.167 -8 70.5 -24s24.5 -35.667 24.5 -59c0 -20.667 -5.66699 -36.834 -17 -48.501s-24.5 -21.834 -39.5 -30.501s-25.167 -14.667 -30.5 -18c-10.667 -6 -18 -11.167 -22 -15.5s-6 -8.5 -6 -12.5v-3h113v-54h-184v7c0 30 4.33301 54.333 13 73z" />
    <glyph glyph-name="uni00B3" unicode="&#xb3;" horiz-adv-x="278" 
d="M64.5 459c-16.333 15.333 -24.498 36 -24.498 62h59c0.666992 -10.667 4.5 -19.167 11.5 -25.5s16.167 -9.5 27.5 -9.5c26 0 39 11.667 39 35c0 22.667 -15 34 -45 34h-11v43h11c22.667 0 34 10 34 30c0 8 -2.5 14.5 -7.5 19.5s-12.167 7.5 -21.5 7.5
c-8.66699 0 -16.167 -2.66699 -22.5 -8s-9.5 -13.333 -9.5 -24h-56c0 26 8.16699 46.167 24.5 60.5s38.166 21.5 65.499 21.5s48.666 -6.33301 63.999 -19s23 -29.334 23 -50.001c0 -15.333 -4.33301 -28 -13 -38s-18.667 -16.333 -30 -19c12.667 0 25 -5.16699 37 -15.5
s18 -26.166 18 -47.499c0 -24 -9.16699 -43.333 -27.5 -58s-42.833 -22 -73.5 -22c-32 0 -56.167 7.66699 -72.5 23z" />
    <glyph glyph-name="acute" unicode="&#xb4;" horiz-adv-x="248" 
d="M104 721h144l-104 -141h-144z" />
    <glyph glyph-name="uni00B5" unicode="&#xb5;" horiz-adv-x="612" 
d="M562 520v-520.001h-164v110h-7c-4 -18.667 -12.5 -37.167 -25.5 -55.5s-31 -33.666 -54 -45.999s-50.5 -18.5 -82.5 -18.5h-14v-180h-164v710h164v-292c0 -68.667 28.667 -103 86 -103c28 0 51.167 8.5 69.5 25.5s27.5 42.833 27.5 77.5v292h164z" />
    <glyph glyph-name="paragraph" unicode="&#xb6;" horiz-adv-x="726" 
d="M675 -220l-132 -0.00195312v825h-96v-825h-145v507h-41c-49.333 0 -91.833 9.83301 -127.5 29.5s-62.5 45.5 -80.5 77.5s-27 65.333 -27 100s9 67.834 27 99.501s44.833 57.334 80.5 77.001s78.167 29.5 127.5 29.5h414v-920z" />
    <glyph glyph-name="periodcentered" unicode="&#xb7;" horiz-adv-x="275" 
d="M69 209.5c-18.667 18.333 -28 40.833 -28 67.5s9.33301 49.167 28 67.5s41.667 27.5 69 27.5c26.667 0 49.5 -9.16699 68.5 -27.5s28.5 -40.833 28.5 -67.5s-9.5 -49.167 -28.5 -67.5s-41.833 -27.5 -68.5 -27.5c-27.333 0 -50.333 9.16699 -69 27.5z" />
    <glyph glyph-name="cedilla" unicode="&#xb8;" horiz-adv-x="216" 
d="M191 -82c16.667 -18.667 25 -41.332 25 -67.999c0 -40 -16.833 -68.333 -50.5 -85s-75.167 -25 -124.5 -25v77c18.667 -1.33301 34.167 1 46.5 7s18.5 15 18.5 27c0 9.33301 -3.33301 16.666 -10 21.999s-14.667 8 -24 8c-11.333 0 -21.333 -3.33301 -30 -10l-42 53
l71 76h106l-57 -54h7c26 0 47.333 -9.33301 64 -28z" />
    <glyph glyph-name="uni00B9" unicode="&#xb9;" horiz-adv-x="202" 
d="M82 608c-7.33301 -3.33301 -15.668 -5 -25.001 -5c-3.33301 0 -9 0.666992 -17 2v59c12 -2 23.667 1 35 9s19 17 23 27h59v-261h-59v183c-3.33301 -6 -8.66602 -10.667 -15.999 -14z" />
    <glyph glyph-name="ordmasculine" unicode="&#xba;" horiz-adv-x="399" 
d="M112.5 392.5c-26.333 13.667 -47.333 33.667 -63 60s-23.5 57.833 -23.5 94.5c0 35.333 7.83301 65.833 23.5 91.5s36.667 45.334 63 59.001s55.5 20.5 87.5 20.5c31.333 0 60.333 -6.83301 87 -20.5s47.834 -33.334 63.501 -59.001s23.5 -56.167 23.5 -91.5
c0 -36.667 -7.83301 -68.167 -23.5 -94.5s-36.834 -46.333 -63.501 -60s-55.667 -20.5 -87 -20.5c-32 0 -61.167 6.83301 -87.5 20.5zM248.5 493c11 14 16.5 31.999 16.5 53.999c0 20 -5.66699 36.833 -17 50.5s-27.333 20.5 -48 20.5
c-21.333 0 -37.666 -6.83301 -48.999 -20.5s-17 -30.5 -17 -50.5c0 -21.333 5.66699 -39.166 17 -53.499s27.666 -21.5 48.999 -21.5s37.5 7 48.5 21z" />
    <glyph glyph-name="guillemotright" unicode="&#xbb;" horiz-adv-x="486" 
d="M51 87v146l82 65l-82 65v146l180 -144v-134zM271 87v146l82 65l-82 65v146l180 -144v-134z" />
    <glyph glyph-name="onequarter" unicode="&#xbc;" 
d="M82 608c-7.33301 -3.33301 -15.668 -5 -25.001 -5c-3.33301 0 -9 0.666992 -17 2v59c12 -2 23.667 1 35 9s19 17 23 27h59v-261h-59v183c-3.33301 -6 -8.66602 -10.667 -15.999 -14zM468.998 700h80l-436 -700h-80zM475.998 66h-116v48l116 147h59v-147h30v-48h-30v-66
h-59v66zM475.998 114v81l-64 -81h64z" />
    <glyph glyph-name="onehalf" unicode="&#xbd;" horiz-adv-x="596" 
d="M77 608c-7.33301 -3.33301 -15.668 -5 -25.001 -5c-3.33301 0 -9 0.666992 -17 2v59c12 -2 23.667 1 35 9s19 17 23 27h59v-261h-59v183c-3.33301 -6 -8.66602 -10.667 -15.999 -14zM472.998 700h80l-436 -700h-80zM379.998 80c8.66699 18.667 28 36.667 58 54l21 10.5
c10 5 17.167 10.333 21.5 16s6.5 12.834 6.5 21.501s-3 15.334 -9 20.001s-12.667 7 -20 7c-6.66699 0 -13.167 -2.66699 -19.5 -8s-9.5 -13.333 -9.5 -24v-8h-62v8c0 26.667 7.5 48 22.5 64s37.833 24 68.5 24s54.167 -8 70.5 -24s24.5 -35.667 24.5 -59
c0 -20.667 -5.66699 -36.834 -17 -48.501s-24.5 -21.834 -39.5 -30.501s-25.167 -14.667 -30.5 -18c-10.667 -6 -18 -11.167 -22 -15.5s-6 -8.5 -6 -12.5v-3h113v-54h-184v7c0 30 4.33301 54.333 13 73z" />
    <glyph glyph-name="threequarters" unicode="&#xbe;" horiz-adv-x="605" 
d="M64.5 459c-16.333 15.333 -24.498 36 -24.498 62h59c0.666992 -10.667 4.5 -19.167 11.5 -25.5s16.167 -9.5 27.5 -9.5c26 0 39 11.667 39 35c0 22.667 -15 34 -45 34h-11v43h11c22.667 0 34 10 34 30c0 8 -2.5 14.5 -7.5 19.5s-12.167 7.5 -21.5 7.5
c-8.66699 0 -16.167 -2.66699 -22.5 -8s-9.5 -13.333 -9.5 -24h-56c0 26 8.16699 46.167 24.5 60.5s38.166 21.5 65.499 21.5s48.666 -6.33301 63.999 -19s23 -29.334 23 -50.001c0 -15.333 -4.33301 -28 -13 -38s-18.667 -16.333 -30 -19c12.667 0 25 -5.16699 37 -15.5
s18 -26.166 18 -47.499c0 -24 -9.16699 -43.333 -27.5 -58s-42.833 -22 -73.5 -22c-32 0 -56.167 7.66699 -72.5 23zM454.002 700h80l-436 -700h-80zM497.002 66h-116v48l116 147h59v-147h30v-48h-30v-66h-59v66zM497.002 114v81l-64 -81h64z" />
    <glyph glyph-name="questiondown" unicode="&#xbf;" horiz-adv-x="577" 
d="M343.5 502.5c19 -18.333 28.5 -40.833 28.5 -67.5s-9.5 -49.167 -28.5 -67.5s-41.833 -27.5 -68.5 -27.5c-27.333 0 -50.333 9.16699 -69 27.5s-28 40.833 -28 67.5s9.33301 49.167 28 67.5s41.667 27.5 69 27.5c26.667 0 49.5 -9.16699 68.5 -27.5zM344 182.5
c-9.33301 -21.667 -20.498 -39.1699 -33.498 -52.5029s-29.5 -27.666 -49.5 -42.999c-18 -13.333 -31.167 -24.833 -39.5 -34.5s-12.5 -21.167 -12.5 -34.5c0 -16.667 5.16699 -31.667 15.5 -45s29.166 -20 56.499 -20c33.333 0 56.166 9.83301 68.499 29.5
s18.5 45.167 18.5 76.5h164c1.33301 -85.333 -21.667 -147.666 -69 -186.999s-108 -59 -182 -59c-70.667 0 -127.667 18 -171 54s-65 86.333 -65 151c0 34 6.16699 60.333 18.5 79s30.5 37.334 54.5 56.001c21.333 16.667 37.333 32.5 48 47.5s16 35.5 16 61.5v21h176v-21
c0 -31.333 -4.66699 -57.833 -14 -79.5z" />
    <glyph glyph-name="Agrave" unicode="&#xc0;" horiz-adv-x="747" 
d="M555 0l-40 119h-283l-40 -119h-176l249 700h217l250 -700h-177zM273 243h201l-95 287h-10zM304 760l-103 141h144l103 -141h-144z" />
    <glyph glyph-name="Aacute" unicode="&#xc1;" horiz-adv-x="747" 
d="M555 0l-40 119h-283l-40 -119h-176l249 700h217l250 -700h-177zM273 243h201l-95 287h-10zM401 901h144l-104 -141h-144z" />
    <glyph glyph-name="Acircumflex" unicode="&#xc2;" horiz-adv-x="747" 
d="M555 0l-40 119h-283l-40 -119h-176l249 700h217l250 -700h-177zM273 243h201l-95 287h-10zM257 901h232l93 -144h-149l-60 95l-60 -95h-149z" />
    <glyph glyph-name="Atilde" unicode="&#xc3;" horiz-adv-x="747" 
d="M555 0l-40 119h-283l-40 -119h-176l249 700h217l250 -700h-177zM273 243h201l-95 287h-10zM416.5 775c-13.667 6 -28.499 14.667 -44.499 26c-12.667 8.66699 -23.167 15 -31.5 19s-17.833 6 -28.5 6c-11.333 0 -19.833 -2.33301 -25.5 -7
s-8.83398 -12.334 -9.50098 -23.001h-83c0 36 9 64.167 27 84.5s43 30.5 75 30.5c19.333 0 35.666 -2.83301 48.999 -8.5s28.333 -14.167 45 -25.5c12.667 -8.66699 23.167 -15 31.5 -19s17.5 -6 27.5 -6c11.333 0 19.833 2.33301 25.5 7s8.83398 12.334 9.50098 23.001h83
c0 -36 -8.83301 -64.333 -26.5 -85s-42.5 -31 -74.5 -31c-19.333 0 -35.833 3 -49.5 9z" />
    <glyph glyph-name="Adieresis" unicode="&#xc4;" horiz-adv-x="747" 
d="M555 0l-40 119h-283l-40 -119h-176l249 700h217l250 -700h-177zM273 243h201l-95 287h-10zM184.5 775.5c-17.667 17 -26.5 37.167 -26.5 60.5c0 24 8.83301 44.5 26.5 61.5s38.167 25.5 61.5 25.5c24 0 44.833 -8.5 62.5 -25.5s26.5 -37.5 26.5 -61.5
s-8.83301 -44.333 -26.5 -61s-38.5 -25 -62.5 -25c-23.333 0 -43.833 8.5 -61.5 25.5zM437.5 775c-17.667 16.667 -26.5 37 -26.5 61s8.83301 44.5 26.5 61.5s38.5 25.5 62.5 25.5c23.333 0 43.833 -8.5 61.5 -25.5s26.5 -37.5 26.5 -61.5
c0 -23.333 -8.83301 -43.5 -26.5 -60.5s-38.167 -25.5 -61.5 -25.5c-24 0 -44.833 8.33301 -62.5 25z" />
    <glyph glyph-name="Aring" unicode="&#xc5;" horiz-adv-x="747" 
d="M555 0l-40 119h-283l-40 -119h-176l249 700h217l250 -700h-177zM273 243h201l-95 287h-10zM297 760c-20.667 20 -31 44.667 -31 74s10.333 54 31 74s46.334 30 77.001 30s56.167 -10 76.5 -30s30.5 -44.667 30.5 -74s-10.167 -54 -30.5 -74s-45.833 -30 -76.5 -30
s-56.334 10 -77.001 30zM397.5 810c6.33301 6 9.49902 14 9.49902 24s-3.16699 18 -9.5 24s-14.166 9 -23.499 9s-17.166 -3 -23.499 -9s-9.5 -14 -9.5 -24s3 -18 9 -24s14 -9 24 -9c9.33301 0 17.166 3 23.499 9z" />
    <glyph glyph-name="AE" unicode="&#xc6;" horiz-adv-x="1009" 
d="M654 146h329v-146h-497v116h-215l-78 -116h-177l468 700h489v-146h-319v-136h289v-130h-289v-142zM358 247h128v190z" />
    <glyph glyph-name="Ccedilla" unicode="&#xc7;" horiz-adv-x="696" 
d="M502 253l164 0.00292969c-4.66699 -76.667 -28.334 -136.5 -71.001 -179.5s-98.667 -69.5 -168 -79.5l-51 -48h7c26 0 47.333 -9.33301 64 -28s25 -41.334 25 -68.001c0 -40 -16.833 -68.333 -50.5 -85s-75.167 -25 -124.5 -25v77c18.667 -1.33301 34.334 1 47.001 7
s19 15 19 27c0 9.33301 -3.33301 16.666 -10 21.999s-15 8 -25 8c-11.333 0 -21.333 -3.33301 -30 -10l-42 53l64 68c-88.667 9.33301 -158.167 45.666 -208.5 108.999s-75.5 146.333 -75.5 249c0 73.333 13.333 137 40 191s64.834 95.5 114.501 124.5
s107.834 43.5 174.501 43.5c85.333 0 155.333 -21.833 210 -65.5s85 -109.167 91 -196.5h-164c-19.333 78 -65 117 -137 117c-54.667 0 -94.334 -19.667 -119.001 -59s-37 -91 -37 -155c0 -64.667 12.167 -116.667 36.5 -156s64.166 -59 119.499 -59
c72 0 117.667 39.333 137 118z" />
    <glyph glyph-name="Egrave" unicode="&#xc8;" horiz-adv-x="573" 
d="M51 700h487v-146h-320v-136h290v-130h-290v-142h330v-146h-497v700zM238 760l-103 141h144l103 -141h-144z" />
    <glyph glyph-name="Eacute" unicode="&#xc9;" horiz-adv-x="573" 
d="M51 700h487v-146h-320v-136h290v-130h-290v-142h330v-146h-497v700zM336 901h144l-104 -141h-144z" />
    <glyph glyph-name="Ecircumflex" unicode="&#xca;" horiz-adv-x="573" 
d="M51 700h487v-146h-320v-136h290v-130h-290v-142h330v-146h-497v700zM192 901h232l93 -144h-149l-60 95l-60 -95h-149z" />
    <glyph glyph-name="Edieresis" unicode="&#xcb;" horiz-adv-x="573" 
d="M51 700h487v-146h-320v-136h290v-130h-290v-142h330v-146h-497v700zM118.5 775.5c-17.667 17 -26.5 37.167 -26.5 60.5c0 24 8.83301 44.5 26.5 61.5s38.167 25.5 61.5 25.5c24 0 44.833 -8.5 62.5 -25.5s26.5 -37.5 26.5 -61.5s-8.83301 -44.333 -26.5 -61
s-38.5 -25 -62.5 -25c-23.333 0 -43.833 8.5 -61.5 25.5zM371.5 775c-17.667 16.667 -26.5 37 -26.5 61s8.83301 44.5 26.5 61.5s38.5 25.5 62.5 25.5c23.333 0 43.833 -8.5 61.5 -25.5s26.5 -37.5 26.5 -61.5c0 -23.333 -8.83301 -43.5 -26.5 -60.5
s-38.167 -25.5 -61.5 -25.5c-24 0 -44.833 8.33301 -62.5 25z" />
    <glyph glyph-name="Igrave" unicode="&#xcc;" horiz-adv-x="269" 
d="M51 700h167v-700h-167v700zM63 760l-103 141h144l103 -141h-144z" />
    <glyph glyph-name="Iacute" unicode="&#xcd;" horiz-adv-x="269" 
d="M51 700h167v-700h-167v700zM160 901h144l-104 -141h-144z" />
    <glyph glyph-name="Icircumflex" unicode="&#xce;" horiz-adv-x="269" 
d="M51 700h167v-700h-167v700zM16 901h232l93 -144h-149l-60 95l-60 -95h-149z" />
    <glyph glyph-name="Idieresis" unicode="&#xcf;" horiz-adv-x="269" 
d="M51 700h167v-700h-167v700zM-56.5 775.5c-17.667 17 -26.5 37.167 -26.5 60.5c0 24 8.83301 44.5 26.5 61.5s38.167 25.5 61.5 25.5c24 0 44.833 -8.5 62.5 -25.5s26.5 -37.5 26.5 -61.5s-8.83301 -44.333 -26.5 -61s-38.5 -25 -62.5 -25
c-23.333 0 -43.833 8.5 -61.5 25.5zM196.5 775c-17.667 16.667 -26.5 37 -26.5 61s8.83301 44.5 26.5 61.5s38.5 25.5 62.5 25.5c23.333 0 43.833 -8.5 61.5 -25.5s26.5 -37.5 26.5 -61.5c0 -23.333 -8.83301 -43.5 -26.5 -60.5s-38.167 -25.5 -61.5 -25.5
c-24 0 -44.833 8.33301 -62.5 25z" />
    <glyph glyph-name="Eth" unicode="&#xd0;" horiz-adv-x="730" 
d="M609.5 610c56.333 -60 84.5 -146.667 84.5 -260s-28.167 -200 -84.5 -260s-138.5 -90 -246.5 -90h-275v282h-68v122h68v296h275c108 0 190.167 -30 246.5 -90zM451 166.5c25.333 13.667 43.5 35.167 54.5 64.5s16.5 69 16.5 119s-5.5 89.667 -16.5 119
s-29.167 50.833 -54.5 64.5s-60.333 20.5 -105 20.5h-91v-150h82v-122h-82v-136h91c44.667 0 79.667 6.83301 105 20.5z" />
    <glyph glyph-name="Ntilde" unicode="&#xd1;" horiz-adv-x="704" 
d="M51 700h173l258 -429h4v429h168v-700h-180l-252 418h-4v-418h-167v700zM394.5 775c-13.667 6 -28.499 14.667 -44.499 26c-12.667 8.66699 -23.167 15 -31.5 19s-17.833 6 -28.5 6c-11.333 0 -19.833 -2.33301 -25.5 -7s-8.83398 -12.334 -9.50098 -23.001h-83
c0 36 9 64.167 27 84.5s43 30.5 75 30.5c19.333 0 35.666 -2.83301 48.999 -8.5s28.333 -14.167 45 -25.5c12.667 -8.66699 23.167 -15 31.5 -19s17.5 -6 27.5 -6c11.333 0 19.833 2.33301 25.5 7s8.83398 12.334 9.50098 23.001h83c0 -36 -8.83301 -64.333 -26.5 -85
s-42.5 -31 -74.5 -31c-19.333 0 -35.833 3 -49.5 9z" />
    <glyph glyph-name="Ograve" unicode="&#xd2;" horiz-adv-x="748" 
d="M195.5 36c-51 30.667 -90.333 73.167 -118 127.5s-41.5 116.5 -41.5 186.5s13.833 132.167 41.5 186.5s67 96.666 118 126.999s110.5 45.5 178.5 45.5s127.667 -15.167 179 -45.5s90.833 -72.666 118.5 -126.999s41.5 -116.5 41.5 -186.5s-13.833 -132.167 -41.5 -186.5
s-67.167 -96.833 -118.5 -127.5s-111 -46 -179 -46s-127.5 15.333 -178.5 46zM496.5 194c28.333 39.333 42.5 91.333 42.5 156c0 65.333 -14.167 117.333 -42.5 156s-69.166 58 -122.499 58s-94.166 -19.333 -122.499 -58s-42.5 -90.667 -42.5 -156
c0 -64.667 14.167 -116.667 42.5 -156s69.166 -59 122.499 -59s94.166 19.667 122.499 59zM303 760l-103 141h144l103 -141h-144z" />
    <glyph glyph-name="Oacute" unicode="&#xd3;" horiz-adv-x="748" 
d="M195.5 36c-51 30.667 -90.333 73.167 -118 127.5s-41.5 116.5 -41.5 186.5s13.833 132.167 41.5 186.5s67 96.666 118 126.999s110.5 45.5 178.5 45.5s127.667 -15.167 179 -45.5s90.833 -72.666 118.5 -126.999s41.5 -116.5 41.5 -186.5s-13.833 -132.167 -41.5 -186.5
s-67.167 -96.833 -118.5 -127.5s-111 -46 -179 -46s-127.5 15.333 -178.5 46zM496.5 194c28.333 39.333 42.5 91.333 42.5 156c0 65.333 -14.167 117.333 -42.5 156s-69.166 58 -122.499 58s-94.166 -19.333 -122.499 -58s-42.5 -90.667 -42.5 -156
c0 -64.667 14.167 -116.667 42.5 -156s69.166 -59 122.499 -59s94.166 19.667 122.499 59zM401 901h144l-104 -141h-144z" />
    <glyph glyph-name="Ocircumflex" unicode="&#xd4;" horiz-adv-x="748" 
d="M195.5 36c-51 30.667 -90.333 73.167 -118 127.5s-41.5 116.5 -41.5 186.5s13.833 132.167 41.5 186.5s67 96.666 118 126.999s110.5 45.5 178.5 45.5s127.667 -15.167 179 -45.5s90.833 -72.666 118.5 -126.999s41.5 -116.5 41.5 -186.5s-13.833 -132.167 -41.5 -186.5
s-67.167 -96.833 -118.5 -127.5s-111 -46 -179 -46s-127.5 15.333 -178.5 46zM496.5 194c28.333 39.333 42.5 91.333 42.5 156c0 65.333 -14.167 117.333 -42.5 156s-69.166 58 -122.499 58s-94.166 -19.333 -122.499 -58s-42.5 -90.667 -42.5 -156
c0 -64.667 14.167 -116.667 42.5 -156s69.166 -59 122.499 -59s94.166 19.667 122.499 59zM257 901h232l93 -144h-149l-60 95l-60 -95h-149z" />
    <glyph glyph-name="Otilde" unicode="&#xd5;" horiz-adv-x="748" 
d="M195.5 36c-51 30.667 -90.333 73.167 -118 127.5s-41.5 116.5 -41.5 186.5s13.833 132.167 41.5 186.5s67 96.666 118 126.999s110.5 45.5 178.5 45.5s127.667 -15.167 179 -45.5s90.833 -72.666 118.5 -126.999s41.5 -116.5 41.5 -186.5s-13.833 -132.167 -41.5 -186.5
s-67.167 -96.833 -118.5 -127.5s-111 -46 -179 -46s-127.5 15.333 -178.5 46zM496.5 194c28.333 39.333 42.5 91.333 42.5 156c0 65.333 -14.167 117.333 -42.5 156s-69.166 58 -122.499 58s-94.166 -19.333 -122.499 -58s-42.5 -90.667 -42.5 -156
c0 -64.667 14.167 -116.667 42.5 -156s69.166 -59 122.499 -59s94.166 19.667 122.499 59zM416.5 775c-13.667 6 -28.499 14.667 -44.499 26c-12.667 8.66699 -23.167 15 -31.5 19s-17.833 6 -28.5 6c-11.333 0 -19.833 -2.33301 -25.5 -7
s-8.83398 -12.334 -9.50098 -23.001h-83c0 36 9 64.167 27 84.5s43 30.5 75 30.5c19.333 0 35.666 -2.83301 48.999 -8.5s28.333 -14.167 45 -25.5c12.667 -8.66699 23.167 -15 31.5 -19s17.5 -6 27.5 -6c11.333 0 19.833 2.33301 25.5 7s8.83398 12.334 9.50098 23.001h83
c0 -36 -8.83301 -64.333 -26.5 -85s-42.5 -31 -74.5 -31c-19.333 0 -35.833 3 -49.5 9z" />
    <glyph glyph-name="Odieresis" unicode="&#xd6;" horiz-adv-x="748" 
d="M195.5 36c-51 30.667 -90.333 73.167 -118 127.5s-41.5 116.5 -41.5 186.5s13.833 132.167 41.5 186.5s67 96.666 118 126.999s110.5 45.5 178.5 45.5s127.667 -15.167 179 -45.5s90.833 -72.666 118.5 -126.999s41.5 -116.5 41.5 -186.5s-13.833 -132.167 -41.5 -186.5
s-67.167 -96.833 -118.5 -127.5s-111 -46 -179 -46s-127.5 15.333 -178.5 46zM496.5 194c28.333 39.333 42.5 91.333 42.5 156c0 65.333 -14.167 117.333 -42.5 156s-69.166 58 -122.499 58s-94.166 -19.333 -122.499 -58s-42.5 -90.667 -42.5 -156
c0 -64.667 14.167 -116.667 42.5 -156s69.166 -59 122.499 -59s94.166 19.667 122.499 59zM183.5 775.5c-17.667 17 -26.5 37.167 -26.5 60.5c0 24 8.83301 44.5 26.5 61.5s38.167 25.5 61.5 25.5c24 0 44.833 -8.5 62.5 -25.5s26.5 -37.5 26.5 -61.5
s-8.83301 -44.333 -26.5 -61s-38.5 -25 -62.5 -25c-23.333 0 -43.833 8.5 -61.5 25.5zM436.5 775c-17.667 16.667 -26.5 37 -26.5 61s8.83301 44.5 26.5 61.5s38.5 25.5 62.5 25.5c23.333 0 43.833 -8.5 61.5 -25.5s26.5 -37.5 26.5 -61.5
c0 -23.333 -8.83301 -43.5 -26.5 -60.5s-38.167 -25.5 -61.5 -25.5c-24 0 -44.833 8.33301 -62.5 25z" />
    <glyph glyph-name="multiply" unicode="&#xd7;" horiz-adv-x="571" 
d="M50 116l136 135l-136 134l100 98l135 -134l135 134l101 -98l-135 -134l135 -135l-101 -99l-135 134l-135 -134z" />
    <glyph glyph-name="Oslash" unicode="&#xd8;" horiz-adv-x="748" 
d="M682.5 511.5c20.333 -48.333 30.501 -102.165 30.501 -161.498c0 -70 -13.833 -132.167 -41.5 -186.5s-67.167 -96.833 -118.5 -127.5s-111 -46 -179 -46c-40.667 0 -79 5.66699 -115 17l-31 -57h-136l62 115c-38 32 -67.167 72.667 -87.5 122
s-30.5 103.666 -30.5 162.999c0 70 13.833 132.167 41.5 186.5s67 96.666 118 126.999s110.5 45.5 178.5 45.5c42 0 81 -6 117 -18l29 54h136l-60 -112c37.333 -32.667 66.166 -73.167 86.499 -121.5zM236.001 218.001l182.999 340c-13.333 4 -28.333 6 -45 6
c-53.333 0 -94.166 -19.333 -122.499 -58s-42.5 -90.667 -42.5 -156c0 -52 9 -96 27 -132zM496.5 194.001c28.333 39.333 42.501 91.333 42.501 156c0 50 -8.66699 93 -26 129l-183 -339c15.333 -3.33301 30 -5 44 -5c53.333 0 94.166 19.667 122.499 59z" />
    <glyph glyph-name="Ugrave" unicode="&#xd9;" horiz-adv-x="688" 
d="M130 59.5c-52.667 46.333 -78.998 115.166 -78.998 206.499v434h169v-421c0 -46.667 11 -82.167 33 -106.5s52.667 -36.5 92 -36.5s69.666 12.167 90.999 36.5s32 59.833 32 106.5v421h170v-434c0 -91.333 -26.5 -160.166 -79.5 -206.499s-124.167 -69.5 -213.5 -69.5
c-90.667 0 -162.334 23.167 -215.001 69.5zM260.002 760l-103 141h144l103 -141h-144z" />
    <glyph glyph-name="Uacute" unicode="&#xda;" horiz-adv-x="688" 
d="M130 59.5c-52.667 46.333 -78.998 115.166 -78.998 206.499v434h169v-421c0 -46.667 11 -82.167 33 -106.5s52.667 -36.5 92 -36.5s69.666 12.167 90.999 36.5s32 59.833 32 106.5v421h170v-434c0 -91.333 -26.5 -160.166 -79.5 -206.499s-124.167 -69.5 -213.5 -69.5
c-90.667 0 -162.334 23.167 -215.001 69.5zM357.002 901h144l-104 -141h-144z" />
    <glyph glyph-name="Ucircumflex" unicode="&#xdb;" horiz-adv-x="688" 
d="M130 59.5c-52.667 46.333 -78.998 115.166 -78.998 206.499v434h169v-421c0 -46.667 11 -82.167 33 -106.5s52.667 -36.5 92 -36.5s69.666 12.167 90.999 36.5s32 59.833 32 106.5v421h170v-434c0 -91.333 -26.5 -160.166 -79.5 -206.499s-124.167 -69.5 -213.5 -69.5
c-90.667 0 -162.334 23.167 -215.001 69.5zM213.002 901h232l93 -144h-149l-60 95l-60 -95h-149z" />
    <glyph glyph-name="Udieresis" unicode="&#xdc;" horiz-adv-x="688" 
d="M130 59.5c-52.667 46.333 -78.998 115.166 -78.998 206.499v434h169v-421c0 -46.667 11 -82.167 33 -106.5s52.667 -36.5 92 -36.5s69.666 12.167 90.999 36.5s32 59.833 32 106.5v421h170v-434c0 -91.333 -26.5 -160.166 -79.5 -206.499s-124.167 -69.5 -213.5 -69.5
c-90.667 0 -162.334 23.167 -215.001 69.5zM140.502 775.5c-17.667 17 -26.5 37.167 -26.5 60.5c0 24 8.83301 44.5 26.5 61.5s38.167 25.5 61.5 25.5c24 0 44.833 -8.5 62.5 -25.5s26.5 -37.5 26.5 -61.5s-8.83301 -44.333 -26.5 -61s-38.5 -25 -62.5 -25
c-23.333 0 -43.833 8.5 -61.5 25.5zM393.502 775c-17.667 16.667 -26.5 37 -26.5 61s8.83301 44.5 26.5 61.5s38.5 25.5 62.5 25.5c23.333 0 43.833 -8.5 61.5 -25.5s26.5 -37.5 26.5 -61.5c0 -23.333 -8.83301 -43.5 -26.5 -60.5s-38.167 -25.5 -61.5 -25.5
c-24 0 -44.833 8.33301 -62.5 25z" />
    <glyph glyph-name="Yacute" unicode="&#xdd;" horiz-adv-x="719" 
d="M273 253l-252 447h191l148 -284l148 284h191l-253 -447v-253h-173v253zM386 901h144l-104 -141h-144z" />
    <glyph glyph-name="Thorn" unicode="&#xde;" horiz-adv-x="640" 
d="M546.5 524.5c45 -43 67.5 -100.833 67.5 -173.5s-22.5 -130.5 -67.5 -173.5s-113.5 -64.5 -205.5 -64.5h-123v-113h-167v700h167v-111h123c92 0 160.5 -21.5 205.5 -64.5zM415 283c17.333 16.667 26 39.332 26 67.999s-8.66699 51.334 -26 68.001s-44 25 -80 25h-117
v-186h117c36 0 62.667 8.33301 80 25z" />
    <glyph glyph-name="germandbls" unicode="&#xdf;" horiz-adv-x="631" 
d="M529 368c22 -13.333 40.3311 -33.3369 54.998 -60.0039s22 -59 22 -97c0 -65.333 -22.833 -116.833 -68.5 -154.5s-115.5 -56.5 -209.5 -56.5h-30v140h31c31.333 0 58 6.66699 80 20s33 36.333 33 69c0 58 -44.333 87 -133 87h-11v123h11c58.667 0 88 22 88 66
c0 24.667 -8.5 41.5 -25.5 50.5s-37.167 13.5 -60.5 13.5c-33.333 0 -57.666 -8.66699 -72.999 -26s-23 -44.333 -23 -81v-462h-164v462c0 89.333 22.833 152.833 68.5 190.5s108.5 56.5 188.5 56.5c76 0 137.167 -14.667 183.5 -44s69.5 -74.666 69.5 -135.999
c0 -29.333 -5.5 -54.666 -16.5 -75.999s-24.167 -37.166 -39.5 -47.499s-29.666 -15.166 -42.999 -14.499c22.667 -2 45 -9.66699 67 -23z" />
    <glyph glyph-name="agrave" unicode="&#xe0;" horiz-adv-x="563" 
d="M459.5 488c35 -28 52.4971 -70.667 52.4971 -128v-360h-156v89h-6c-1.33301 -10.667 -7.66602 -23.834 -18.999 -39.501s-28.666 -29.5 -51.999 -41.5s-52 -18 -86 -18c-46 0 -85.333 11.833 -118 35.5s-49 60.5 -49 110.5c0 52 16.833 88.167 50.5 108.5
s76.834 33.5 129.501 39.5l97 13c14 1.33301 24.167 3.83301 30.5 7.5s10.333 8.66699 12 15s2.5 16.5 2.5 30.5c0 24 -5.83301 40 -17.5 48s-27.5 12 -47.5 12c-21.333 0 -38.833 -4 -52.5 -12s-20.5 -23.333 -20.5 -46v-4l-154 -2v22c0 52.667 18.5 92.834 55.5 120.501
s95.833 41.5 176.5 41.5c79.333 0 136.5 -14 171.5 -42zM347.997 226c-4 -3.33301 -9.16797 -5.83203 -15.501 -7.49902s-15.833 -3.5 -28.5 -5.5l-57 -8c-18.667 -4 -33.167 -9.33301 -43.5 -16s-15.5 -17.334 -15.5 -32.001c0 -12.667 4.83301 -24 14.5 -34
s27.834 -15 54.501 -15c29.333 0 51.833 7.5 67.5 22.5s23.5 32.167 23.5 51.5v44zM212.996 580.001l-103 141h144l103 -141h-144z" />
    <glyph glyph-name="aacute" unicode="&#xe1;" horiz-adv-x="563" 
d="M459.5 488c35 -28 52.4971 -70.667 52.4971 -128v-360h-156v89h-6c-1.33301 -10.667 -7.66602 -23.834 -18.999 -39.501s-28.666 -29.5 -51.999 -41.5s-52 -18 -86 -18c-46 0 -85.333 11.833 -118 35.5s-49 60.5 -49 110.5c0 52 16.833 88.167 50.5 108.5
s76.834 33.5 129.501 39.5l97 13c14 1.33301 24.167 3.83301 30.5 7.5s10.333 8.66699 12 15s2.5 16.5 2.5 30.5c0 24 -5.83301 40 -17.5 48s-27.5 12 -47.5 12c-21.333 0 -38.833 -4 -52.5 -12s-20.5 -23.333 -20.5 -46v-4l-154 -2v22c0 52.667 18.5 92.834 55.5 120.501
s95.833 41.5 176.5 41.5c79.333 0 136.5 -14 171.5 -42zM347.997 226c-4 -3.33301 -9.16797 -5.83203 -15.501 -7.49902s-15.833 -3.5 -28.5 -5.5l-57 -8c-18.667 -4 -33.167 -9.33301 -43.5 -16s-15.5 -17.334 -15.5 -32.001c0 -12.667 4.83301 -24 14.5 -34
s27.834 -15 54.501 -15c29.333 0 51.833 7.5 67.5 22.5s23.5 32.167 23.5 51.5v44zM309.996 721.001h144l-104 -141h-144z" />
    <glyph glyph-name="acircumflex" unicode="&#xe2;" horiz-adv-x="563" 
d="M459.5 488c35 -28 52.4971 -70.667 52.4971 -128v-360h-156v89h-6c-1.33301 -10.667 -7.66602 -23.834 -18.999 -39.501s-28.666 -29.5 -51.999 -41.5s-52 -18 -86 -18c-46 0 -85.333 11.833 -118 35.5s-49 60.5 -49 110.5c0 52 16.833 88.167 50.5 108.5
s76.834 33.5 129.501 39.5l97 13c14 1.33301 24.167 3.83301 30.5 7.5s10.333 8.66699 12 15s2.5 16.5 2.5 30.5c0 24 -5.83301 40 -17.5 48s-27.5 12 -47.5 12c-21.333 0 -38.833 -4 -52.5 -12s-20.5 -23.333 -20.5 -46v-4l-154 -2v22c0 52.667 18.5 92.834 55.5 120.501
s95.833 41.5 176.5 41.5c79.333 0 136.5 -14 171.5 -42zM347.997 226c-4 -3.33301 -9.16797 -5.83203 -15.501 -7.49902s-15.833 -3.5 -28.5 -5.5l-57 -8c-18.667 -4 -33.167 -9.33301 -43.5 -16s-15.5 -17.334 -15.5 -32.001c0 -12.667 4.83301 -24 14.5 -34
s27.834 -15 54.501 -15c29.333 0 51.833 7.5 67.5 22.5s23.5 32.167 23.5 51.5v44zM166.996 721.001h232l93 -144h-149l-60 95l-60 -95h-149z" />
    <glyph glyph-name="atilde" unicode="&#xe3;" horiz-adv-x="563" 
d="M459.5 488c35 -28 52.4971 -70.667 52.4971 -128v-360h-156v89h-6c-1.33301 -10.667 -7.66602 -23.834 -18.999 -39.501s-28.666 -29.5 -51.999 -41.5s-52 -18 -86 -18c-46 0 -85.333 11.833 -118 35.5s-49 60.5 -49 110.5c0 52 16.833 88.167 50.5 108.5
s76.834 33.5 129.501 39.5l97 13c14 1.33301 24.167 3.83301 30.5 7.5s10.333 8.66699 12 15s2.5 16.5 2.5 30.5c0 24 -5.83301 40 -17.5 48s-27.5 12 -47.5 12c-21.333 0 -38.833 -4 -52.5 -12s-20.5 -23.333 -20.5 -46v-4l-154 -2v22c0 52.667 18.5 92.834 55.5 120.501
s95.833 41.5 176.5 41.5c79.333 0 136.5 -14 171.5 -42zM347.997 226c-4 -3.33301 -9.16797 -5.83203 -15.501 -7.49902s-15.833 -3.5 -28.5 -5.5l-57 -8c-18.667 -4 -33.167 -9.33301 -43.5 -16s-15.5 -17.334 -15.5 -32.001c0 -12.667 4.83301 -24 14.5 -34
s27.834 -15 54.501 -15c29.333 0 51.833 7.5 67.5 22.5s23.5 32.167 23.5 51.5v44zM326.496 595.001c-13.667 6 -28.499 14.667 -44.499 26c-12.667 8.66699 -23.167 15 -31.5 19s-17.833 6 -28.5 6c-11.333 0 -19.833 -2.33301 -25.5 -7s-8.83398 -12.334 -9.50098 -23.001
h-83c0 36 9 64.167 27 84.5s43 30.5 75 30.5c19.333 0 35.666 -2.83301 48.999 -8.5s28.333 -14.167 45 -25.5c12.667 -8.66699 23.167 -15 31.5 -19s17.5 -6 27.5 -6c11.333 0 19.833 2.33301 25.5 7s8.83398 12.334 9.50098 23.001h83c0 -36 -8.83301 -64.333 -26.5 -85
s-42.5 -31 -74.5 -31c-19.333 0 -35.833 3 -49.5 9z" />
    <glyph glyph-name="adieresis" unicode="&#xe4;" horiz-adv-x="563" 
d="M459.5 488c35 -28 52.4971 -70.667 52.4971 -128v-360h-156v89h-6c-1.33301 -10.667 -7.66602 -23.834 -18.999 -39.501s-28.666 -29.5 -51.999 -41.5s-52 -18 -86 -18c-46 0 -85.333 11.833 -118 35.5s-49 60.5 -49 110.5c0 52 16.833 88.167 50.5 108.5
s76.834 33.5 129.501 39.5l97 13c14 1.33301 24.167 3.83301 30.5 7.5s10.333 8.66699 12 15s2.5 16.5 2.5 30.5c0 24 -5.83301 40 -17.5 48s-27.5 12 -47.5 12c-21.333 0 -38.833 -4 -52.5 -12s-20.5 -23.333 -20.5 -46v-4l-154 -2v22c0 52.667 18.5 92.834 55.5 120.501
s95.833 41.5 176.5 41.5c79.333 0 136.5 -14 171.5 -42zM347.997 226c-4 -3.33301 -9.16797 -5.83203 -15.501 -7.49902s-15.833 -3.5 -28.5 -5.5l-57 -8c-18.667 -4 -33.167 -9.33301 -43.5 -16s-15.5 -17.334 -15.5 -32.001c0 -12.667 4.83301 -24 14.5 -34
s27.834 -15 54.501 -15c29.333 0 51.833 7.5 67.5 22.5s23.5 32.167 23.5 51.5v44zM93.4961 595.501c-17.667 17 -26.5 37.167 -26.5 60.5c0 24 8.83301 44.5 26.5 61.5s38.167 25.5 61.5 25.5c24 0 44.833 -8.5 62.5 -25.5s26.5 -37.5 26.5 -61.5
s-8.83301 -44.333 -26.5 -61s-38.5 -25 -62.5 -25c-23.333 0 -43.833 8.5 -61.5 25.5zM346.496 595.001c-17.667 16.667 -26.5 37 -26.5 61s8.83301 44.5 26.5 61.5s38.5 25.5 62.5 25.5c23.333 0 43.833 -8.5 61.5 -25.5s26.5 -37.5 26.5 -61.5
c0 -23.333 -8.83301 -43.5 -26.5 -60.5s-38.167 -25.5 -61.5 -25.5c-24 0 -44.833 8.33301 -62.5 25z" />
    <glyph glyph-name="aring" unicode="&#xe5;" horiz-adv-x="563" 
d="M459.5 488c35 -28 52.4971 -70.667 52.4971 -128v-360h-156v89h-6c-1.33301 -10.667 -7.66602 -23.834 -18.999 -39.501s-28.666 -29.5 -51.999 -41.5s-52 -18 -86 -18c-46 0 -85.333 11.833 -118 35.5s-49 60.5 -49 110.5c0 52 16.833 88.167 50.5 108.5
s76.834 33.5 129.501 39.5l97 13c14 1.33301 24.167 3.83301 30.5 7.5s10.333 8.66699 12 15s2.5 16.5 2.5 30.5c0 24 -5.83301 40 -17.5 48s-27.5 12 -47.5 12c-21.333 0 -38.833 -4 -52.5 -12s-20.5 -23.333 -20.5 -46v-4l-154 -2v22c0 52.667 18.5 92.834 55.5 120.501
s95.833 41.5 176.5 41.5c79.333 0 136.5 -14 171.5 -42zM347.997 226c-4 -3.33301 -9.16797 -5.83203 -15.501 -7.49902s-15.833 -3.5 -28.5 -5.5l-57 -8c-18.667 -4 -33.167 -9.33301 -43.5 -16s-15.5 -17.334 -15.5 -32.001c0 -12.667 4.83301 -24 14.5 -34
s27.834 -15 54.501 -15c29.333 0 51.833 7.5 67.5 22.5s23.5 32.167 23.5 51.5v44zM205.996 580.001c-20.667 20 -31 44.667 -31 74s10.333 54 31 74s46.334 30 77.001 30s56.167 -10 76.5 -30s30.5 -44.667 30.5 -74s-10.167 -54 -30.5 -74s-45.833 -30 -76.5 -30
s-56.334 10 -77.001 30zM306.496 630.001c6.33301 6 9.49902 14 9.49902 24s-3.16699 18 -9.5 24s-14.166 9 -23.499 9s-17.166 -3 -23.499 -9s-9.5 -14 -9.5 -24s3 -18 9 -24s14 -9 24 -9c9.33301 0 17.166 3 23.499 9z" />
    <glyph glyph-name="ae" unicode="&#xe6;" horiz-adv-x="894" 
d="M865 218l-357.999 -0.00292969c4.66699 -39.333 17 -67.5 37 -84.5s47.667 -25.5 83 -25.5c28.667 0 49.167 5.33301 61.5 16s21.833 26.667 28.5 48h144c-11.333 -59.333 -38.5 -105.166 -81.5 -137.499s-97.167 -48.5 -162.5 -48.5c-42.667 0 -82.667 7.5 -120 22.5
s-68.333 38.5 -93 70.5c-10.667 -21.333 -32.167 -41.5 -64.5 -60.5s-74.5 -28.5 -126.5 -28.5c-54 0 -98.667 12 -134 36s-53 62.333 -53 115c0 37.333 9 66.333 27 87s39.667 34.834 65 42.501s54.666 13.167 87.999 16.5l99 10c14 1.33301 24.167 3.33301 30.5 6
s10.333 6.83398 12 12.501s2.5 14.5 2.5 26.5v18c0 31.333 -23.333 47 -70 47c-20.667 0 -38.167 -4 -52.5 -12s-21.5 -24.333 -21.5 -49v-3l-148 -2v22c0 53.333 19.167 94.5 57.5 123.5s94.5 43.5 168.5 43.5c74.667 0 128 -17.333 160 -52c46 34.667 103.667 52 173 52
c74.667 0 135.167 -22.167 181.5 -66.5s69.5 -114.833 69.5 -211.5c0 -10.667 -1 -22 -3 -34zM714.001 304.997c-2 29.333 -10.834 53.5 -26.501 72.5s-40.5 28.5 -74.5 28.5c-63.333 0 -98.666 -33.667 -105.999 -101h207zM350 228.997
c-2 -4.66699 -6.5 -8.16699 -13.5 -10.5s-17.167 -4.5 -30.5 -6.5l-61 -6c-36.667 -3.33301 -55 -19.666 -55 -48.999c0 -32.667 22 -49 66 -49c30 0 53.167 7.66699 69.5 23s24.5 32.666 24.5 51.999v46z" />
    <glyph glyph-name="ccedilla" unicode="&#xe7;" horiz-adv-x="563" 
d="M388 209l144.999 0.00585938c-5.33301 -68.667 -26.166 -119.667 -62.499 -153s-79.833 -54 -130.5 -62l-50 -48h7c26 0 47.333 -9.33301 64 -28s25 -41.334 25 -68.001c0 -40 -16.833 -68.333 -50.5 -85s-75.167 -25 -124.5 -25v77c18.667 -1.33301 34.334 1 47.001 7
s19 15 19 27c0 9.33301 -3.33301 16.666 -10 21.999s-15 8 -25 8c-11.333 0 -21.333 -3.33301 -30 -10l-42 53l66 70c-60.667 10.667 -110.834 37.667 -150.501 81s-59.5 104.666 -59.5 183.999c0 63.333 12.667 115.166 38 155.499s57.833 69.666 97.5 87.999
s82.5 27.5 128.5 27.5c59.333 0 112.5 -15.833 159.5 -47.5s74.833 -88.5 83.5 -170.5h-145c-10.667 54.667 -43.667 82 -99 82c-37.333 0 -65 -12.333 -83 -37s-27 -57.334 -27 -98.001c0 -39.333 9 -71.333 27 -96s45.667 -37 83 -37c54.667 0 87.667 27.667 99 83z" />
    <glyph glyph-name="egrave" unicode="&#xe8;" horiz-adv-x="568" 
d="M540 218l-359.003 -0.000976562c4.66699 -39.333 17 -67.5 37 -84.5s47.667 -25.5 83 -25.5c28.667 0 49.334 5.33301 62.001 16s22.334 26.667 29.001 48h144c-12 -59.333 -39.5 -105.166 -82.5 -137.499s-97.167 -48.5 -162.5 -48.5c-46.667 0 -90 9 -130 27
s-72.5 47.333 -97.5 88s-37.5 93 -37.5 157c0 92.667 25 161.167 75 205.5s113.333 66.5 190 66.5c74.667 0 135.334 -22.167 182.001 -66.5s70 -114.833 70 -211.5c0 -10.667 -1 -22 -3 -34zM387.997 304.999c-2 30 -10.667 54.333 -26 73s-40.333 28 -75 28
c-31.333 0 -56 -8.66699 -74 -26s-28.667 -42.333 -32 -75h207zM211.997 579.999l-103 141h144l103 -141h-144z" />
    <glyph glyph-name="eacute" unicode="&#xe9;" horiz-adv-x="568" 
d="M540 218l-359.003 -0.000976562c4.66699 -39.333 17 -67.5 37 -84.5s47.667 -25.5 83 -25.5c28.667 0 49.334 5.33301 62.001 16s22.334 26.667 29.001 48h144c-12 -59.333 -39.5 -105.166 -82.5 -137.499s-97.167 -48.5 -162.5 -48.5c-46.667 0 -90 9 -130 27
s-72.5 47.333 -97.5 88s-37.5 93 -37.5 157c0 92.667 25 161.167 75 205.5s113.333 66.5 190 66.5c74.667 0 135.334 -22.167 182.001 -66.5s70 -114.833 70 -211.5c0 -10.667 -1 -22 -3 -34zM387.997 304.999c-2 30 -10.667 54.333 -26 73s-40.333 28 -75 28
c-31.333 0 -56 -8.66699 -74 -26s-28.667 -42.333 -32 -75h207zM309.997 720.999h144l-104 -141h-144z" />
    <glyph glyph-name="ecircumflex" unicode="&#xea;" horiz-adv-x="568" 
d="M540 218l-359.003 -0.000976562c4.66699 -39.333 17 -67.5 37 -84.5s47.667 -25.5 83 -25.5c28.667 0 49.334 5.33301 62.001 16s22.334 26.667 29.001 48h144c-12 -59.333 -39.5 -105.166 -82.5 -137.499s-97.167 -48.5 -162.5 -48.5c-46.667 0 -90 9 -130 27
s-72.5 47.333 -97.5 88s-37.5 93 -37.5 157c0 92.667 25 161.167 75 205.5s113.333 66.5 190 66.5c74.667 0 135.334 -22.167 182.001 -66.5s70 -114.833 70 -211.5c0 -10.667 -1 -22 -3 -34zM387.997 304.999c-2 30 -10.667 54.333 -26 73s-40.333 28 -75 28
c-31.333 0 -56 -8.66699 -74 -26s-28.667 -42.333 -32 -75h207zM165.997 720.999h232l93 -144h-149l-60 95l-60 -95h-149z" />
    <glyph glyph-name="edieresis" unicode="&#xeb;" horiz-adv-x="568" 
d="M540 218l-359.003 -0.000976562c4.66699 -39.333 17 -67.5 37 -84.5s47.667 -25.5 83 -25.5c28.667 0 49.334 5.33301 62.001 16s22.334 26.667 29.001 48h144c-12 -59.333 -39.5 -105.166 -82.5 -137.499s-97.167 -48.5 -162.5 -48.5c-46.667 0 -90 9 -130 27
s-72.5 47.333 -97.5 88s-37.5 93 -37.5 157c0 92.667 25 161.167 75 205.5s113.333 66.5 190 66.5c74.667 0 135.334 -22.167 182.001 -66.5s70 -114.833 70 -211.5c0 -10.667 -1 -22 -3 -34zM387.997 304.999c-2 30 -10.667 54.333 -26 73s-40.333 28 -75 28
c-31.333 0 -56 -8.66699 -74 -26s-28.667 -42.333 -32 -75h207zM92.4971 595.499c-17.667 17 -26.5 37.167 -26.5 60.5c0 24 8.83301 44.5 26.5 61.5s38.167 25.5 61.5 25.5c24 0 44.833 -8.5 62.5 -25.5s26.5 -37.5 26.5 -61.5s-8.83301 -44.333 -26.5 -61
s-38.5 -25 -62.5 -25c-23.333 0 -43.833 8.5 -61.5 25.5zM345.497 594.999c-17.667 16.667 -26.5 37 -26.5 61s8.83301 44.5 26.5 61.5s38.5 25.5 62.5 25.5c23.333 0 43.833 -8.5 61.5 -25.5s26.5 -37.5 26.5 -61.5c0 -23.333 -8.83301 -43.5 -26.5 -60.5
s-38.167 -25.5 -61.5 -25.5c-24 0 -44.833 8.33301 -62.5 25z" />
    <glyph glyph-name="igrave" unicode="&#xec;" horiz-adv-x="252" 
d="M44 520h164v-520h-164v520zM55 580l-103 141h144l103 -141h-144z" />
    <glyph glyph-name="iacute" unicode="&#xed;" horiz-adv-x="252" 
d="M44 520h164v-520h-164v520zM153 721h144l-104 -141h-144z" />
    <glyph glyph-name="icircumflex" unicode="&#xee;" horiz-adv-x="252" 
d="M44 520h164v-520h-164v520zM9 721h232l93 -144h-149l-60 95l-60 -95h-149z" />
    <glyph glyph-name="idieresis" unicode="&#xef;" horiz-adv-x="252" 
d="M44 520h164v-520h-164v520zM-64.5 595.5c-17.667 17 -26.5 37.167 -26.5 60.5c0 24 8.83301 44.5 26.5 61.5s38.167 25.5 61.5 25.5c24 0 44.833 -8.5 62.5 -25.5s26.5 -37.5 26.5 -61.5s-8.83301 -44.333 -26.5 -61s-38.5 -25 -62.5 -25
c-23.333 0 -43.833 8.5 -61.5 25.5zM188.5 595c-17.667 16.667 -26.5 37 -26.5 61s8.83301 44.5 26.5 61.5s38.5 25.5 62.5 25.5c23.333 0 43.833 -8.5 61.5 -25.5s26.5 -37.5 26.5 -61.5c0 -23.333 -8.83301 -43.5 -26.5 -60.5s-38.167 -25.5 -61.5 -25.5
c-24 0 -44.833 8.33301 -62.5 25z" />
    <glyph glyph-name="eth" unicode="&#xf0;" horiz-adv-x="598" 
d="M528.5 436.5c13 -43 19.501 -96.5 19.501 -160.5c0 -64.667 -12.167 -118.5 -36.5 -161.5s-56.333 -74.5 -96 -94.5s-82.834 -30 -129.501 -30c-46 0 -88.667 9.83301 -128 29.5s-71.166 49.667 -95.499 90s-36.5 90.5 -36.5 150.5c0 55.333 10.667 102.5 32 141.5
s49.833 68.5 85.5 88.5s74.167 30 115.5 30c35.333 0 65.666 -7.66699 90.999 -23c-16 34 -31 62 -45 84h-134v71h79c-16.667 18 -33 34 -49 48h163l38 -48h141v-71h-89c36.667 -53.333 61.5 -101.5 74.5 -144.5zM357.501 161.5c19 21 28.5 53.833 28.5 98.5
c0 42 -9.66699 72.5 -29 91.5s-42.666 28.5 -69.999 28.5c-26.667 0 -49.834 -9.5 -69.501 -28.5s-29.5 -49.5 -29.5 -91.5c0 -44.667 9.5 -77.5 28.5 -98.5s42.5 -31.5 70.5 -31.5s51.5 10.5 70.5 31.5z" />
    <glyph glyph-name="ntilde" unicode="&#xf1;" horiz-adv-x="612" 
d="M511.5 478.5c33 -34.333 49.5 -83.166 49.5 -146.499v-332h-164v292c0 68.667 -28.667 103 -86 103c-28 0 -51 -8.5 -69 -25.5s-27 -42.833 -27 -77.5v-292h-164v520h164v-110h6c4 18.667 12.5 37.167 25.5 55.5s31 33.666 54 45.999s50.5 18.5 82.5 18.5
c52.667 0 95.5 -17.167 128.5 -51.5zM348.5 595c-13.667 6 -28.499 14.667 -44.499 26c-12.667 8.66699 -23.167 15 -31.5 19s-17.833 6 -28.5 6c-11.333 0 -19.833 -2.33301 -25.5 -7s-8.83398 -12.334 -9.50098 -23.001h-83c0 36 9 64.167 27 84.5s43 30.5 75 30.5
c19.333 0 35.666 -2.83301 48.999 -8.5s28.333 -14.167 45 -25.5c12.667 -8.66699 23.167 -15 31.5 -19s17.5 -6 27.5 -6c11.333 0 19.833 2.33301 25.5 7s8.83398 12.334 9.50098 23.001h83c0 -36 -8.83301 -64.333 -26.5 -85s-42.5 -31 -74.5 -31
c-19.333 0 -35.833 3 -49.5 9z" />
    <glyph glyph-name="ograve" unicode="&#xf2;" horiz-adv-x="579" 
d="M160 19c-40 19.333 -72.333 49.166 -97 89.499s-37 90.833 -37 151.5s12.333 111.167 37 151.5s57 70.166 97 89.499s83.333 29 130 29c46 0 89 -9.66699 129 -29s72.5 -49.166 97.5 -89.499s37.5 -90.833 37.5 -151.5s-12.5 -111.167 -37.5 -151.5
s-57.5 -70.166 -97.5 -89.499s-83 -29 -129 -29c-46.667 0 -90 9.66699 -130 29zM370 160c20 22.667 30 56 30 100s-10 77.333 -30 100s-46.667 34 -80 34s-60.166 -11.333 -80.499 -34s-30.5 -56 -30.5 -100s10.167 -77.333 30.5 -100s47.166 -34 80.499 -34
s60 11.333 80 34zM219 580l-103 141h144l103 -141h-144z" />
    <glyph glyph-name="oacute" unicode="&#xf3;" horiz-adv-x="579" 
d="M160 19c-40 19.333 -72.333 49.166 -97 89.499s-37 90.833 -37 151.5s12.333 111.167 37 151.5s57 70.166 97 89.499s83.333 29 130 29c46 0 89 -9.66699 129 -29s72.5 -49.166 97.5 -89.499s37.5 -90.833 37.5 -151.5s-12.5 -111.167 -37.5 -151.5
s-57.5 -70.166 -97.5 -89.499s-83 -29 -129 -29c-46.667 0 -90 9.66699 -130 29zM370 160c20 22.667 30 56 30 100s-10 77.333 -30 100s-46.667 34 -80 34s-60.166 -11.333 -80.499 -34s-30.5 -56 -30.5 -100s10.167 -77.333 30.5 -100s47.166 -34 80.499 -34
s60 11.333 80 34zM316 721h144l-104 -141h-144z" />
    <glyph glyph-name="ocircumflex" unicode="&#xf4;" horiz-adv-x="579" 
d="M160 19c-40 19.333 -72.333 49.166 -97 89.499s-37 90.833 -37 151.5s12.333 111.167 37 151.5s57 70.166 97 89.499s83.333 29 130 29c46 0 89 -9.66699 129 -29s72.5 -49.166 97.5 -89.499s37.5 -90.833 37.5 -151.5s-12.5 -111.167 -37.5 -151.5
s-57.5 -70.166 -97.5 -89.499s-83 -29 -129 -29c-46.667 0 -90 9.66699 -130 29zM370 160c20 22.667 30 56 30 100s-10 77.333 -30 100s-46.667 34 -80 34s-60.166 -11.333 -80.499 -34s-30.5 -56 -30.5 -100s10.167 -77.333 30.5 -100s47.166 -34 80.499 -34
s60 11.333 80 34zM172 721h232l93 -144h-149l-60 95l-60 -95h-149z" />
    <glyph glyph-name="otilde" unicode="&#xf5;" horiz-adv-x="579" 
d="M160 19c-40 19.333 -72.333 49.166 -97 89.499s-37 90.833 -37 151.5s12.333 111.167 37 151.5s57 70.166 97 89.499s83.333 29 130 29c46 0 89 -9.66699 129 -29s72.5 -49.166 97.5 -89.499s37.5 -90.833 37.5 -151.5s-12.5 -111.167 -37.5 -151.5
s-57.5 -70.166 -97.5 -89.499s-83 -29 -129 -29c-46.667 0 -90 9.66699 -130 29zM370 160c20 22.667 30 56 30 100s-10 77.333 -30 100s-46.667 34 -80 34s-60.166 -11.333 -80.499 -34s-30.5 -56 -30.5 -100s10.167 -77.333 30.5 -100s47.166 -34 80.499 -34
s60 11.333 80 34zM331.5 595c-13.667 6 -28.499 14.667 -44.499 26c-12.667 8.66699 -23.167 15 -31.5 19s-17.833 6 -28.5 6c-11.333 0 -19.833 -2.33301 -25.5 -7s-8.83398 -12.334 -9.50098 -23.001h-83c0 36 9 64.167 27 84.5s43 30.5 75 30.5
c19.333 0 35.666 -2.83301 48.999 -8.5s28.333 -14.167 45 -25.5c12.667 -8.66699 23.167 -15 31.5 -19s17.5 -6 27.5 -6c11.333 0 19.833 2.33301 25.5 7s8.83398 12.334 9.50098 23.001h83c0 -36 -8.83301 -64.333 -26.5 -85s-42.5 -31 -74.5 -31
c-19.333 0 -35.833 3 -49.5 9z" />
    <glyph glyph-name="odieresis" unicode="&#xf6;" horiz-adv-x="579" 
d="M160 19c-40 19.333 -72.333 49.166 -97 89.499s-37 90.833 -37 151.5s12.333 111.167 37 151.5s57 70.166 97 89.499s83.333 29 130 29c46 0 89 -9.66699 129 -29s72.5 -49.166 97.5 -89.499s37.5 -90.833 37.5 -151.5s-12.5 -111.167 -37.5 -151.5
s-57.5 -70.166 -97.5 -89.499s-83 -29 -129 -29c-46.667 0 -90 9.66699 -130 29zM370 160c20 22.667 30 56 30 100s-10 77.333 -30 100s-46.667 34 -80 34s-60.166 -11.333 -80.499 -34s-30.5 -56 -30.5 -100s10.167 -77.333 30.5 -100s47.166 -34 80.499 -34
s60 11.333 80 34zM99.5 595.5c-17.667 17 -26.5 37.167 -26.5 60.5c0 24 8.83301 44.5 26.5 61.5s38.167 25.5 61.5 25.5c24 0 44.833 -8.5 62.5 -25.5s26.5 -37.5 26.5 -61.5s-8.83301 -44.333 -26.5 -61s-38.5 -25 -62.5 -25c-23.333 0 -43.833 8.5 -61.5 25.5zM352.5 595
c-17.667 16.667 -26.5 37 -26.5 61s8.83301 44.5 26.5 61.5s38.5 25.5 62.5 25.5c23.333 0 43.833 -8.5 61.5 -25.5s26.5 -37.5 26.5 -61.5c0 -23.333 -8.83301 -43.5 -26.5 -60.5s-38.167 -25.5 -61.5 -25.5c-24 0 -44.833 8.33301 -62.5 25z" />
    <glyph glyph-name="divide" unicode="&#xf7;" horiz-adv-x="444" 
d="M174 400c-13.333 13.333 -20 30 -20 50c0 19.333 6.66699 35.5 20 48.5s30 19.5 50 19.5c19.333 0 35.5 -6.5 48.5 -19.5s19.5 -29.167 19.5 -48.5c0 -20 -6.5 -36.667 -19.5 -50s-29.167 -20 -48.5 -20c-20 0 -36.667 6.66699 -50 20zM394 336v-122h-343v122h343z
M174 53c-13.333 13.333 -20 29.666 -20 48.999s6.66699 35.5 20 48.5s30 19.5 50 19.5c19.333 0 35.5 -6.5 48.5 -19.5s19.5 -29.167 19.5 -48.5s-6.5 -35.666 -19.5 -48.999s-29.167 -20 -48.5 -20c-20 0 -36.667 6.66699 -50 20z" />
    <glyph glyph-name="oslash" unicode="&#xf8;" horiz-adv-x="579" 
d="M527.5 391c17.667 -36.667 26.498 -80.332 26.498 -130.999c0 -60.667 -12.5 -111.167 -37.5 -151.5s-57.5 -70.166 -97.5 -89.499s-83 -29 -129 -29c-23.333 0 -47.666 2.66699 -72.999 8l-24 -48h-117l46 93c-30 22 -53.5 51.167 -70.5 87.5s-25.5 79.5 -25.5 129.5
c0 60.667 12.333 111.167 37 151.5s57 70.166 97 89.499s83.333 29 130 29c22.667 0 45.667 -2.66699 69 -8l28 56h116l-48 -98c30.667 -22.667 54.834 -52.334 72.501 -89.001zM192.998 186.002l102.999 208.001h-6c-33.333 0 -60.166 -11.333 -80.499 -34
s-30.5 -56 -30.5 -100c0 -28.667 4.66699 -53.334 14 -74.001zM369.997 160.003c20 22.667 30 56 30 100c0 30.667 -5.33301 56.667 -16 78l-104 -212h10c33.333 0 60 11.333 80 34z" />
    <glyph glyph-name="ugrave" unicode="&#xf9;" horiz-adv-x="612" 
d="M562 520v-520h-164v110h-7c-4 -18.667 -12.5 -37.167 -25.5 -55.5s-31 -33.666 -54 -45.999s-50.5 -18.5 -82.5 -18.5c-52.667 0 -95.5 17.167 -128.5 51.5s-49.5 83.166 -49.5 146.499v332h164v-292c0 -68.667 28.667 -103 86 -103c28 0 51.167 8.5 69.5 25.5
s27.5 42.833 27.5 77.5v292h164zM233 580l-103 141h144l103 -141h-144z" />
    <glyph glyph-name="uacute" unicode="&#xfa;" horiz-adv-x="612" 
d="M562 520v-520h-164v110h-7c-4 -18.667 -12.5 -37.167 -25.5 -55.5s-31 -33.666 -54 -45.999s-50.5 -18.5 -82.5 -18.5c-52.667 0 -95.5 17.167 -128.5 51.5s-49.5 83.166 -49.5 146.499v332h164v-292c0 -68.667 28.667 -103 86 -103c28 0 51.167 8.5 69.5 25.5
s27.5 42.833 27.5 77.5v292h164zM331 721h144l-104 -141h-144z" />
    <glyph glyph-name="ucircumflex" unicode="&#xfb;" horiz-adv-x="612" 
d="M562 520v-520h-164v110h-7c-4 -18.667 -12.5 -37.167 -25.5 -55.5s-31 -33.666 -54 -45.999s-50.5 -18.5 -82.5 -18.5c-52.667 0 -95.5 17.167 -128.5 51.5s-49.5 83.166 -49.5 146.499v332h164v-292c0 -68.667 28.667 -103 86 -103c28 0 51.167 8.5 69.5 25.5
s27.5 42.833 27.5 77.5v292h164zM187 721h232l93 -144h-149l-60 95l-60 -95h-149z" />
    <glyph glyph-name="udieresis" unicode="&#xfc;" horiz-adv-x="612" 
d="M562 520v-520h-164v110h-7c-4 -18.667 -12.5 -37.167 -25.5 -55.5s-31 -33.666 -54 -45.999s-50.5 -18.5 -82.5 -18.5c-52.667 0 -95.5 17.167 -128.5 51.5s-49.5 83.166 -49.5 146.499v332h164v-292c0 -68.667 28.667 -103 86 -103c28 0 51.167 8.5 69.5 25.5
s27.5 42.833 27.5 77.5v292h164zM113.5 595.5c-17.667 17 -26.5 37.167 -26.5 60.5c0 24 8.83301 44.5 26.5 61.5s38.167 25.5 61.5 25.5c24 0 44.833 -8.5 62.5 -25.5s26.5 -37.5 26.5 -61.5s-8.83301 -44.333 -26.5 -61s-38.5 -25 -62.5 -25
c-23.333 0 -43.833 8.5 -61.5 25.5zM366.5 595c-17.667 16.667 -26.5 37 -26.5 61s8.83301 44.5 26.5 61.5s38.5 25.5 62.5 25.5c23.333 0 43.833 -8.5 61.5 -25.5s26.5 -37.5 26.5 -61.5c0 -23.333 -8.83301 -43.5 -26.5 -60.5s-38.167 -25.5 -61.5 -25.5
c-24 0 -44.833 8.33301 -62.5 25z" />
    <glyph glyph-name="yacute" unicode="&#xfd;" horiz-adv-x="591" 
d="M110 -67c31.333 0 53.999 4.66797 67.999 14.001s24 20.666 30 33.999c5.33301 12 8 22.333 8 31c0 9.33301 -3.66699 23 -11 41l-189 467h167l111 -311l114 311h168l-210 -514c-21.333 -52 -42.833 -93.167 -64.5 -123.5s-47 -52.5 -76 -66.5s-64.167 -21 -105.5 -21
c-15.333 0 -32.666 1 -51.999 3v138c16 -2 30 -3 42 -3zM320.999 721.001h144l-104 -141h-144z" />
    <glyph glyph-name="thorn" unicode="&#xfe;" 
d="M215 700v-248c8.66699 22 26 40.5 52 55.5s56.667 22.5 92 22.5c38 0 74.167 -9.66699 108.5 -29s62.5 -49.166 84.5 -89.499s33 -90.833 33 -151.5s-11 -111.334 -33 -152.001s-50.167 -70.5 -84.5 -89.5s-70.5 -28.5 -108.5 -28.5c-35.333 0 -66 7.5 -92 22.5
s-43.333 33.5 -52 55.5v-258h-164v890h164zM398 160.5c22 23 33 56.167 33 99.5s-11 76.5 -33 99.5s-48.667 34.5 -80 34.5c-30.667 0 -56.667 -11.5 -78 -34.5s-32 -56.167 -32 -99.5s10.667 -76.5 32 -99.5s47.333 -34.5 78 -34.5c31.333 0 58 11.5 80 34.5z" />
    <glyph glyph-name="ydieresis" unicode="&#xff;" horiz-adv-x="591" 
d="M110 -67c31.333 0 53.999 4.66797 67.999 14.001s24 20.666 30 33.999c5.33301 12 8 22.333 8 31c0 9.33301 -3.66699 23 -11 41l-189 467h167l111 -311l114 311h168l-210 -514c-21.333 -52 -42.833 -93.167 -64.5 -123.5s-47 -52.5 -76 -66.5s-64.167 -21 -105.5 -21
c-15.333 0 -32.666 1 -51.999 3v138c16 -2 30 -3 42 -3zM103.499 595.501c-17.667 17 -26.5 37.167 -26.5 60.5c0 24 8.83301 44.5 26.5 61.5s38.167 25.5 61.5 25.5c24 0 44.833 -8.5 62.5 -25.5s26.5 -37.5 26.5 -61.5s-8.83301 -44.333 -26.5 -61s-38.5 -25 -62.5 -25
c-23.333 0 -43.833 8.5 -61.5 25.5zM356.499 595.001c-17.667 16.667 -26.5 37 -26.5 61s8.83301 44.5 26.5 61.5s38.5 25.5 62.5 25.5c23.333 0 43.833 -8.5 61.5 -25.5s26.5 -37.5 26.5 -61.5c0 -23.333 -8.83301 -43.5 -26.5 -60.5s-38.167 -25.5 -61.5 -25.5
c-24 0 -44.833 8.33301 -62.5 25z" />
    <glyph glyph-name="Amacron" unicode="&#x100;" horiz-adv-x="747" 
d="M555 0l-40 119h-283l-40 -119h-176l249 700h217l250 -700h-177zM273 243h201l-95 287h-10zM206 901h337v-93h-337v93z" />
    <glyph glyph-name="amacron" unicode="&#x101;" horiz-adv-x="563" 
d="M459.5 488c35 -28 52.4971 -70.667 52.4971 -128v-360h-156v89h-6c-1.33301 -10.667 -7.66602 -23.834 -18.999 -39.501s-28.666 -29.5 -51.999 -41.5s-52 -18 -86 -18c-46 0 -85.333 11.833 -118 35.5s-49 60.5 -49 110.5c0 52 16.833 88.167 50.5 108.5
s76.834 33.5 129.501 39.5l97 13c14 1.33301 24.167 3.83301 30.5 7.5s10.333 8.66699 12 15s2.5 16.5 2.5 30.5c0 24 -5.83301 40 -17.5 48s-27.5 12 -47.5 12c-21.333 0 -38.833 -4 -52.5 -12s-20.5 -23.333 -20.5 -46v-4l-154 -2v22c0 52.667 18.5 92.834 55.5 120.501
s95.833 41.5 176.5 41.5c79.333 0 136.5 -14 171.5 -42zM347.997 226c-4 -3.33301 -9.16797 -5.83203 -15.501 -7.49902s-15.833 -3.5 -28.5 -5.5l-57 -8c-18.667 -4 -33.167 -9.33301 -43.5 -16s-15.5 -17.334 -15.5 -32.001c0 -12.667 4.83301 -24 14.5 -34
s27.834 -15 54.501 -15c29.333 0 51.833 7.5 67.5 22.5s23.5 32.167 23.5 51.5v44zM114.996 721.001h337v-93h-337v93z" />
    <glyph glyph-name="Abreve" unicode="&#x102;" horiz-adv-x="747" 
d="M555 0l-40 119h-283l-40 -119h-176l249 700h217l250 -700h-177zM273 243h201l-95 287h-10zM243 783c-30.667 28 -46 67.333 -46 118h109c2 -20.667 8.66699 -35.667 20 -45s27.666 -14 48.999 -14c20.667 0 36.667 4.66699 48 14s18 24.333 20 45h109
c0 -50.667 -15.167 -90 -45.5 -118s-74.166 -42 -131.499 -42s-101.333 14 -132 42z" />
    <glyph glyph-name="abreve" unicode="&#x103;" horiz-adv-x="563" 
d="M459.5 488c35 -28 52.4971 -70.667 52.4971 -128v-360h-156v89h-6c-1.33301 -10.667 -7.66602 -23.834 -18.999 -39.501s-28.666 -29.5 -51.999 -41.5s-52 -18 -86 -18c-46 0 -85.333 11.833 -118 35.5s-49 60.5 -49 110.5c0 52 16.833 88.167 50.5 108.5
s76.834 33.5 129.501 39.5l97 13c14 1.33301 24.167 3.83301 30.5 7.5s10.333 8.66699 12 15s2.5 16.5 2.5 30.5c0 24 -5.83301 40 -17.5 48s-27.5 12 -47.5 12c-21.333 0 -38.833 -4 -52.5 -12s-20.5 -23.333 -20.5 -46v-4l-154 -2v22c0 52.667 18.5 92.834 55.5 120.501
s95.833 41.5 176.5 41.5c79.333 0 136.5 -14 171.5 -42zM347.997 226c-4 -3.33301 -9.16797 -5.83203 -15.501 -7.49902s-15.833 -3.5 -28.5 -5.5l-57 -8c-18.667 -4 -33.167 -9.33301 -43.5 -16s-15.5 -17.334 -15.5 -32.001c0 -12.667 4.83301 -24 14.5 -34
s27.834 -15 54.501 -15c29.333 0 51.833 7.5 67.5 22.5s23.5 32.167 23.5 51.5v44zM151.996 603.001c-30.667 28 -46 67.333 -46 118h109c2 -20.667 8.66699 -35.667 20 -45s27.666 -14 48.999 -14c20.667 0 36.667 4.66699 48 14s18 24.333 20 45h109
c0 -50.667 -15.167 -90 -45.5 -118s-74.166 -42 -131.499 -42s-101.333 14 -132 42z" />
    <glyph glyph-name="Aogonek" unicode="&#x104;" horiz-adv-x="747" 
d="M614 -99.5c7.33301 -6.33301 16.665 -9.50098 27.998 -9.50098c8.66699 0 18 2 28 6v-90c-13.333 -7.33301 -30.666 -11 -51.999 -11c-34.667 0 -66 9.16699 -94 27.5s-42 46.5 -42 84.5c0 24.667 6.16699 46.167 18.5 64.5s28.833 32.833 49.5 43.5l-35 103h-283
l-40 -119h-176l249 700h217l250 -700c-41.333 0 -73.166 -7.33301 -95.499 -22s-33.5 -31.667 -33.5 -51c0 -11.333 3.66699 -20.166 11 -26.499zM272.999 242.999h201l-95 287h-10z" />
    <glyph glyph-name="aogonek" unicode="&#x105;" horiz-adv-x="563" 
d="M416.5 -22c-22.333 -14.667 -33.5039 -31.667 -33.5039 -51c0 -11.333 3.66699 -20.166 11 -26.499s16.666 -9.5 27.999 -9.5c8.66699 0 18 2 28 6v-90c-13.333 -7.33301 -30.666 -11 -51.999 -11c-34.667 0 -66 9.16699 -94 27.5s-42 46.5 -42 84.5
c0 30 8.83301 55.167 26.5 75.5s40.167 35.166 67.5 44.499v61h-6c-1.33301 -10.667 -7.66602 -23.834 -18.999 -39.501s-28.666 -29.5 -51.999 -41.5s-52 -18 -86 -18c-46 0 -85.333 11.833 -118 35.5s-49 60.5 -49 110.5c0 52 16.833 88.167 50.5 108.5
s76.834 33.5 129.501 39.5l97 13c14 1.33301 24.167 3.83301 30.5 7.5s10.333 8.66699 12 15s2.5 16.5 2.5 30.5c0 24 -5.83301 40 -17.5 48s-27.5 12 -47.5 12c-21.333 0 -38.833 -4 -52.5 -12s-20.5 -23.333 -20.5 -46v-4l-154 -2v22c0 52.667 18.5 92.834 55.5 120.501
s95.833 41.5 176.5 41.5c79.333 0 136.5 -14 171.5 -42s52.5 -70.667 52.5 -128v-360c-41.333 0 -73.166 -7.33301 -95.499 -22zM347.996 226c-4 -3.33301 -9.16797 -5.83203 -15.501 -7.49902s-15.833 -3.5 -28.5 -5.5l-57 -8c-18.667 -4 -33.167 -9.33301 -43.5 -16
s-15.5 -17.334 -15.5 -32.001c0 -12.667 4.83301 -24 14.5 -34s27.834 -15 54.501 -15c29.333 0 51.833 7.5 67.5 22.5s23.5 32.167 23.5 51.5v44z" />
    <glyph glyph-name="Cacute" unicode="&#x106;" horiz-adv-x="696" 
d="M190.5 33.5c-49.667 29 -87.832 70.5 -114.499 124.5s-40 118 -40 192c0 73.333 13.333 137 40 191s64.834 95.5 114.501 124.5s107.834 43.5 174.501 43.5c85.333 0 155.333 -21.833 210 -65.5s85 -109.167 91 -196.5h-164c-19.333 78 -65 117 -137 117
c-54.667 0 -94.334 -19.667 -119.001 -59s-37 -91 -37 -155c0 -64.667 12.167 -116.667 36.5 -156s64.166 -59 119.499 -59c72 0 117.667 39.333 137 118h164c-6 -88 -36.333 -153.833 -91 -197.5s-124.667 -65.5 -210 -65.5c-66.667 0 -124.834 14.5 -174.501 43.5z
M403.002 901h144l-104 -141h-144z" />
    <glyph glyph-name="cacute" unicode="&#x107;" horiz-adv-x="563" 
d="M162 17.5c-40 18.333 -72.666 47.502 -97.999 87.502s-38 91.333 -38 154c0 63.333 12.667 115.166 38 155.499s57.833 69.666 97.5 87.999s82.5 27.5 128.5 27.5c59.333 0 112.5 -15.833 159.5 -47.5s74.833 -88.5 83.5 -170.5h-145c-10.667 54.667 -43.667 82 -99 82
c-37.333 0 -65 -12.333 -83 -37s-27 -57.334 -27 -98.001c0 -39.333 9 -71.333 27 -96s45.667 -37 83 -37c54.667 0 87.667 27.667 99 83h145c-6.66699 -81.333 -33.834 -138.166 -81.501 -170.499s-101.5 -48.5 -161.5 -48.5c-45.333 0 -88 9.16699 -128 27.5z
M308.001 721.002h144l-104 -141h-144z" />
    <glyph glyph-name="Cdotaccent" unicode="&#x10a;" horiz-adv-x="696" 
d="M190.5 33.5c-49.667 29 -87.832 70.5 -114.499 124.5s-40 118 -40 192c0 73.333 13.333 137 40 191s64.834 95.5 114.501 124.5s107.834 43.5 174.501 43.5c85.333 0 155.333 -21.833 210 -65.5s85 -109.167 91 -196.5h-164c-19.333 78 -65 117 -137 117
c-54.667 0 -94.334 -19.667 -119.001 -59s-37 -91 -37 -155c0 -64.667 12.167 -116.667 36.5 -156s64.166 -59 119.499 -59c72 0 117.667 39.333 137 118h164c-6 -88 -36.333 -153.833 -91 -197.5s-124.667 -65.5 -210 -65.5c-66.667 0 -124.834 14.5 -174.501 43.5z
M315.502 775.5c-17.667 17 -26.5 37.167 -26.5 60.5c0 24 8.83301 44.5 26.5 61.5s38.167 25.5 61.5 25.5c24 0 44.833 -8.5 62.5 -25.5s26.5 -37.5 26.5 -61.5s-8.83301 -44.333 -26.5 -61s-38.5 -25 -62.5 -25c-23.333 0 -43.833 8.5 -61.5 25.5z" />
    <glyph glyph-name="cdotaccent" unicode="&#x10b;" horiz-adv-x="563" 
d="M162 17.5c-40 18.333 -72.666 47.502 -97.999 87.502s-38 91.333 -38 154c0 63.333 12.667 115.166 38 155.499s57.833 69.666 97.5 87.999s82.5 27.5 128.5 27.5c59.333 0 112.5 -15.833 159.5 -47.5s74.833 -88.5 83.5 -170.5h-145c-10.667 54.667 -43.667 82 -99 82
c-37.333 0 -65 -12.333 -83 -37s-27 -57.334 -27 -98.001c0 -39.333 9 -71.333 27 -96s45.667 -37 83 -37c54.667 0 87.667 27.667 99 83h145c-6.66699 -81.333 -33.834 -138.166 -81.501 -170.499s-101.5 -48.5 -161.5 -48.5c-45.333 0 -88 9.16699 -128 27.5z
M220.501 595.502c-17.667 17 -26.5 37.167 -26.5 60.5c0 24 8.83301 44.5 26.5 61.5s38.167 25.5 61.5 25.5c24 0 44.833 -8.5 62.5 -25.5s26.5 -37.5 26.5 -61.5s-8.83301 -44.333 -26.5 -61s-38.5 -25 -62.5 -25c-23.333 0 -43.833 8.5 -61.5 25.5z" />
    <glyph glyph-name="Ccaron" unicode="&#x10c;" horiz-adv-x="696" 
d="M190.5 33.5c-49.667 29 -87.832 70.5 -114.499 124.5s-40 118 -40 192c0 73.333 13.333 137 40 191s64.834 95.5 114.501 124.5s107.834 43.5 174.501 43.5c85.333 0 155.333 -21.833 210 -65.5s85 -109.167 91 -196.5h-164c-19.333 78 -65 117 -137 117
c-54.667 0 -94.334 -19.667 -119.001 -59s-37 -91 -37 -155c0 -64.667 12.167 -116.667 36.5 -156s64.166 -59 119.499 -59c72 0 117.667 39.333 137 118h164c-6 -88 -36.333 -153.833 -91 -197.5s-124.667 -65.5 -210 -65.5c-66.667 0 -124.834 14.5 -174.501 43.5z
M159.002 901h149l60 -94l60 94h149l-93 -144h-232z" />
    <glyph glyph-name="ccaron" unicode="&#x10d;" horiz-adv-x="563" 
d="M162 17.5c-40 18.333 -72.666 47.502 -97.999 87.502s-38 91.333 -38 154c0 63.333 12.667 115.166 38 155.499s57.833 69.666 97.5 87.999s82.5 27.5 128.5 27.5c59.333 0 112.5 -15.833 159.5 -47.5s74.833 -88.5 83.5 -170.5h-145c-10.667 54.667 -43.667 82 -99 82
c-37.333 0 -65 -12.333 -83 -37s-27 -57.334 -27 -98.001c0 -39.333 9 -71.333 27 -96s45.667 -37 83 -37c54.667 0 87.667 27.667 99 83h145c-6.66699 -81.333 -33.834 -138.166 -81.501 -170.499s-101.5 -48.5 -161.5 -48.5c-45.333 0 -88 9.16699 -128 27.5z
M64.001 721.002h149l60 -94l60 94h149l-93 -144h-232z" />
    <glyph glyph-name="Dcaron" unicode="&#x10e;" horiz-adv-x="693" 
d="M326 700c108 0 190.167 -30 246.5 -90s84.5 -146.667 84.5 -260s-28.167 -200 -84.5 -260s-138.5 -90 -246.5 -90h-275v700h275zM414 166.5c25.333 13.667 43.5 35.167 54.5 64.5s16.5 69 16.5 119s-5.5 89.667 -16.5 119s-29.167 50.833 -54.5 64.5
s-60.333 20.5 -105 20.5h-91v-408h91c44.667 0 79.667 6.83301 105 20.5zM118 901h149l60 -94l60 94h149l-93 -144h-232z" />
    <glyph glyph-name="dcaron" unicode="&#x10f;" horiz-adv-x="822" 
d="M143 18.5c-34 19 -62 48.833 -84 89.5s-33 91.334 -33 152.001s11 111.167 33 151.5s50 70.166 84 89.499s70 29 108 29c36 0 67.167 -8 93.5 -24s43.166 -34.667 50.499 -56h1v250h164v-700h-164v70h-1c-7.33301 -21.333 -24.166 -40 -50.499 -56s-57.5 -24 -93.5 -24
c-38 0 -74 9.5 -108 28.5zM370.5 160.5c21.667 23 32.5 56.167 32.5 99.5s-10.833 76.5 -32.5 99.5s-47.834 34.5 -78.501 34.5c-31.333 0 -57.833 -11.5 -79.5 -34.5s-32.5 -56.167 -32.5 -99.5s10.833 -76.5 32.5 -99.5s48.167 -34.5 79.5 -34.5
c30.667 0 56.834 11.5 78.501 34.5zM703 700h144l-104 -141h-144z" />
    <glyph glyph-name="Dcroat" unicode="&#x110;" horiz-adv-x="730" 
d="M609.5 610c56.333 -60 84.5 -146.667 84.5 -260s-28.167 -200 -84.5 -260s-138.5 -90 -246.5 -90h-275v282h-68v122h68v296h275c108 0 190.167 -30 246.5 -90zM451 166.5c25.333 13.667 43.5 35.167 54.5 64.5s16.5 69 16.5 119s-5.5 89.667 -16.5 119
s-29.167 50.833 -54.5 64.5s-60.333 20.5 -105 20.5h-91v-150h82v-122h-82v-136h91c44.667 0 79.667 6.83301 105 20.5z" />
    <glyph glyph-name="dcroat" unicode="&#x111;" horiz-adv-x="637" 
d="M621 581h-61v-581h-164v70h-1c-7.33301 -21.333 -24.166 -40 -50.499 -56s-57.5 -24 -93.5 -24c-38 0 -74 9.5 -108 28.5s-62 48.833 -84 89.5s-33 91.334 -33 152.001s11 111.167 33 151.5s50 70.166 84 89.499s70 29 108 29c36 0 67.167 -8 93.5 -24
s43.166 -34.667 50.499 -56h1v131h-146v71h146v48h164v-48h61v-71zM370.5 160.5c21.667 23 32.5 56.167 32.5 99.5s-10.833 76.5 -32.5 99.5s-47.834 34.5 -78.501 34.5c-31.333 0 -57.833 -11.5 -79.5 -34.5s-32.5 -56.167 -32.5 -99.5s10.833 -76.5 32.5 -99.5
s48.167 -34.5 79.5 -34.5c30.667 0 56.834 11.5 78.501 34.5z" />
    <glyph glyph-name="Emacron" unicode="&#x112;" horiz-adv-x="573" 
d="M51 700h487v-146h-320v-136h290v-130h-290v-142h330v-146h-497v700zM141 901h337v-93h-337v93z" />
    <glyph glyph-name="emacron" unicode="&#x113;" horiz-adv-x="568" 
d="M540 218l-359.003 -0.000976562c4.66699 -39.333 17 -67.5 37 -84.5s47.667 -25.5 83 -25.5c28.667 0 49.334 5.33301 62.001 16s22.334 26.667 29.001 48h144c-12 -59.333 -39.5 -105.166 -82.5 -137.499s-97.167 -48.5 -162.5 -48.5c-46.667 0 -90 9 -130 27
s-72.5 47.333 -97.5 88s-37.5 93 -37.5 157c0 92.667 25 161.167 75 205.5s113.333 66.5 190 66.5c74.667 0 135.334 -22.167 182.001 -66.5s70 -114.833 70 -211.5c0 -10.667 -1 -22 -3 -34zM387.997 304.999c-2 30 -10.667 54.333 -26 73s-40.333 28 -75 28
c-31.333 0 -56 -8.66699 -74 -26s-28.667 -42.333 -32 -75h207zM114.997 720.999h337v-93h-337v93z" />
    <glyph glyph-name="Edotaccent" unicode="&#x116;" horiz-adv-x="573" 
d="M51 700h487v-146h-320v-136h290v-130h-290v-142h330v-146h-497v700zM249.5 775.5c-17.667 17 -26.5 37.167 -26.5 60.5c0 24 8.83301 44.5 26.5 61.5s38.167 25.5 61.5 25.5c24 0 44.833 -8.5 62.5 -25.5s26.5 -37.5 26.5 -61.5s-8.83301 -44.333 -26.5 -61
s-38.5 -25 -62.5 -25c-23.333 0 -43.833 8.5 -61.5 25.5z" />
    <glyph glyph-name="edotaccent" unicode="&#x117;" horiz-adv-x="568" 
d="M540 218l-359.003 -0.000976562c4.66699 -39.333 17 -67.5 37 -84.5s47.667 -25.5 83 -25.5c28.667 0 49.334 5.33301 62.001 16s22.334 26.667 29.001 48h144c-12 -59.333 -39.5 -105.166 -82.5 -137.499s-97.167 -48.5 -162.5 -48.5c-46.667 0 -90 9 -130 27
s-72.5 47.333 -97.5 88s-37.5 93 -37.5 157c0 92.667 25 161.167 75 205.5s113.333 66.5 190 66.5c74.667 0 135.334 -22.167 182.001 -66.5s70 -114.833 70 -211.5c0 -10.667 -1 -22 -3 -34zM387.997 304.999c-2 30 -10.667 54.333 -26 73s-40.333 28 -75 28
c-31.333 0 -56 -8.66699 -74 -26s-28.667 -42.333 -32 -75h207zM223.497 595.499c-17.667 17 -26.5 37.167 -26.5 60.5c0 24 8.83301 44.5 26.5 61.5s38.167 25.5 61.5 25.5c24 0 44.833 -8.5 62.5 -25.5s26.5 -37.5 26.5 -61.5s-8.83301 -44.333 -26.5 -61
s-38.5 -25 -62.5 -25c-23.333 0 -43.833 8.5 -61.5 25.5z" />
    <glyph glyph-name="Eogonek" unicode="&#x118;" horiz-adv-x="573" 
d="M452.5 -22c-22.333 -14.667 -33.501 -31.668 -33.501 -51.001c0 -11.333 3.66699 -20.166 11 -26.499s16.666 -9.5 27.999 -9.5c8.66699 0 18 2 28 6v-90c-13.333 -7.33301 -30.666 -11 -51.999 -11c-34.667 0 -66 9.16699 -94 27.5s-42 46.5 -42 84.5
c0 37.333 14.333 68 43 92h-290v700h487v-146h-320v-136h290v-130h-290v-142h330v-146c-41.333 0 -73.166 -7.33301 -95.499 -22z" />
    <glyph glyph-name="eogonek" unicode="&#x119;" horiz-adv-x="568" 
d="M540 218l-358.999 -0.000976562c4.66699 -39.333 17 -67.5 37 -84.5s47.667 -25.5 83 -25.5c28.667 0 49.334 5.33301 62.001 16s22.334 26.667 29.001 48h144c-10 -49.333 -30.833 -89.333 -62.5 -120s-71.834 -50.667 -120.501 -60c-20.667 -6 -36.334 -15 -47.001 -27
s-16 -24.667 -16 -38c0 -11.333 3.66699 -20.166 11 -26.499s16.666 -9.5 27.999 -9.5c8.66699 0 18 2 28 6v-90c-13.333 -7.33301 -31 -11 -53 -11c-34.667 0 -65.834 9.16699 -93.501 27.5s-41.5 46.5 -41.5 84.5c0 34.667 13 64 39 88c-54 14 -97.833 42.5 -131.5 85.5
s-50.5 101.833 -50.5 176.5c0 92.667 25 161.167 75 205.5s113.333 66.5 190 66.5c74.667 0 135.334 -22.167 182.001 -66.5s70 -114.833 70 -211.5c0 -10.667 -1 -22 -3 -34zM388.001 304.999c-2 30 -10.667 54.333 -26 73s-40.333 28 -75 28
c-31.333 0 -56 -8.66699 -74 -26s-28.667 -42.333 -32 -75h207z" />
    <glyph glyph-name="Ecaron" unicode="&#x11a;" horiz-adv-x="573" 
d="M51 700h487v-146h-320v-136h290v-130h-290v-142h330v-146h-497v700zM92 901h149l60 -94l60 94h149l-93 -144h-232z" />
    <glyph glyph-name="ecaron" unicode="&#x11b;" horiz-adv-x="568" 
d="M540 218l-359.003 -0.000976562c4.66699 -39.333 17 -67.5 37 -84.5s47.667 -25.5 83 -25.5c28.667 0 49.334 5.33301 62.001 16s22.334 26.667 29.001 48h144c-12 -59.333 -39.5 -105.166 -82.5 -137.499s-97.167 -48.5 -162.5 -48.5c-46.667 0 -90 9 -130 27
s-72.5 47.333 -97.5 88s-37.5 93 -37.5 157c0 92.667 25 161.167 75 205.5s113.333 66.5 190 66.5c74.667 0 135.334 -22.167 182.001 -66.5s70 -114.833 70 -211.5c0 -10.667 -1 -22 -3 -34zM387.997 304.999c-2 30 -10.667 54.333 -26 73s-40.333 28 -75 28
c-31.333 0 -56 -8.66699 -74 -26s-28.667 -42.333 -32 -75h207zM65.9971 720.999h149l60 -94l60 94h149l-93 -144h-232z" />
    <glyph glyph-name="Gbreve" unicode="&#x11e;" horiz-adv-x="717" 
d="M123.5 85c-58.333 63.333 -87.502 151 -87.502 263c0 74 13.833 138.167 41.5 192.5s66.5 96 116.5 125s108.333 43.5 175 43.5c78.667 0 145.167 -20 199.5 -60s86.833 -100.667 97.5 -182h-167c-10 36.667 -27.333 62 -52 76s-51 21 -79 21
c-54 0 -94 -19.833 -120 -59.5s-39 -90.5 -39 -152.5c0 -62.667 13 -114.5 39 -155.5s66 -61.5 120 -61.5c37.333 0 69.833 9.5 97.5 28.5s41.834 50.167 42.501 93.5h-123v136h291v-62c0 -227.333 -101.333 -341 -304 -341c-107.333 0 -190.166 31.667 -248.499 95z
M228.998 783c-30.667 28 -46 67.333 -46 118h109c2 -20.667 8.66699 -35.667 20 -45s27.666 -14 48.999 -14c20.667 0 36.667 4.66699 48 14s18 24.333 20 45h109c0 -50.667 -15.167 -90 -45.5 -118s-74.166 -42 -131.499 -42s-101.333 14 -132 42z" />
    <glyph glyph-name="gbreve" unicode="&#x11f;" horiz-adv-x="603" 
d="M552 520l0.00195312 -497.999c0 -87.333 -27.667 -147.666 -83 -180.999s-118.333 -50 -189 -50c-62.667 0 -119 12.667 -169 38s-75.333 73.666 -76 144.999h145c1.33301 -20.667 11.666 -35.334 30.999 -44.001s40.666 -13 63.999 -13c33.333 0 60.5 8.66699 81.5 26
s31.5 43.666 31.5 78.999v57c-14 -18.667 -33.333 -34.167 -58 -46.5s-53.667 -18.5 -87 -18.5c-36.667 0 -71.5 8.66699 -104.5 26s-60 45.333 -81 84s-31.5 88 -31.5 148c0 59.333 10.667 108.333 32 147s48.5 66.834 81.5 84.501s67.5 26.5 103.5 26.5
c33.333 0 62.333 -6.16699 87 -18.5s44 -27.833 58 -46.5v55h164zM365.002 181.501c20 21 30 51.167 30 90.5s-10 69.5 -30 90.5s-45.333 31.5 -76 31.5c-31.333 0 -57.333 -10.5 -78 -31.5s-31 -51.167 -31 -90.5s10.333 -69.5 31 -90.5s46.667 -31.5 78 -31.5
c30.667 0 56 10.5 76 31.5zM157.002 603.001c-30.667 28 -46 67.333 -46 118h109c2 -20.667 8.66699 -35.667 20 -45s27.666 -14 48.999 -14c20.667 0 36.667 4.66699 48 14s18 24.333 20 45h109c0 -50.667 -15.167 -90 -45.5 -118s-74.166 -42 -131.499 -42
s-101.333 14 -132 42z" />
    <glyph glyph-name="Gdotaccent" unicode="&#x120;" horiz-adv-x="717" 
d="M123.5 85c-58.333 63.333 -87.502 151 -87.502 263c0 74 13.833 138.167 41.5 192.5s66.5 96 116.5 125s108.333 43.5 175 43.5c78.667 0 145.167 -20 199.5 -60s86.833 -100.667 97.5 -182h-167c-10 36.667 -27.333 62 -52 76s-51 21 -79 21
c-54 0 -94 -19.833 -120 -59.5s-39 -90.5 -39 -152.5c0 -62.667 13 -114.5 39 -155.5s66 -61.5 120 -61.5c37.333 0 69.833 9.5 97.5 28.5s41.834 50.167 42.501 93.5h-123v136h291v-62c0 -227.333 -101.333 -341 -304 -341c-107.333 0 -190.166 31.667 -248.499 95z
M300.498 775.5c-17.667 17 -26.5 37.167 -26.5 60.5c0 24 8.83301 44.5 26.5 61.5s38.167 25.5 61.5 25.5c24 0 44.833 -8.5 62.5 -25.5s26.5 -37.5 26.5 -61.5s-8.83301 -44.333 -26.5 -61s-38.5 -25 -62.5 -25c-23.333 0 -43.833 8.5 -61.5 25.5z" />
    <glyph glyph-name="gdotaccent" unicode="&#x121;" horiz-adv-x="603" 
d="M552 520l0.00195312 -497.999c0 -87.333 -27.667 -147.666 -83 -180.999s-118.333 -50 -189 -50c-62.667 0 -119 12.667 -169 38s-75.333 73.666 -76 144.999h145c1.33301 -20.667 11.666 -35.334 30.999 -44.001s40.666 -13 63.999 -13c33.333 0 60.5 8.66699 81.5 26
s31.5 43.666 31.5 78.999v57c-14 -18.667 -33.333 -34.167 -58 -46.5s-53.667 -18.5 -87 -18.5c-36.667 0 -71.5 8.66699 -104.5 26s-60 45.333 -81 84s-31.5 88 -31.5 148c0 59.333 10.667 108.333 32 147s48.5 66.834 81.5 84.501s67.5 26.5 103.5 26.5
c33.333 0 62.333 -6.16699 87 -18.5s44 -27.833 58 -46.5v55h164zM365.002 181.501c20 21 30 51.167 30 90.5s-10 69.5 -30 90.5s-45.333 31.5 -76 31.5c-31.333 0 -57.333 -10.5 -78 -31.5s-31 -51.167 -31 -90.5s10.333 -69.5 31 -90.5s46.667 -31.5 78 -31.5
c30.667 0 56 10.5 76 31.5zM228.502 595.501c-17.667 17 -26.5 37.167 -26.5 60.5c0 24 8.83301 44.5 26.5 61.5s38.167 25.5 61.5 25.5c24 0 44.833 -8.5 62.5 -25.5s26.5 -37.5 26.5 -61.5s-8.83301 -44.333 -26.5 -61s-38.5 -25 -62.5 -25
c-23.333 0 -43.833 8.5 -61.5 25.5z" />
    <glyph glyph-name="uni0122" unicode="&#x122;" horiz-adv-x="717" 
d="M123.5 85c-58.333 63.333 -87.502 151 -87.502 263c0 74 13.833 138.167 41.5 192.5s66.5 96 116.5 125s108.333 43.5 175 43.5c78.667 0 145.167 -20 199.5 -60s86.833 -100.667 97.5 -182h-167c-10 36.667 -27.333 62 -52 76s-51 21 -79 21
c-54 0 -94 -19.833 -120 -59.5s-39 -90.5 -39 -152.5c0 -62.667 13 -114.5 39 -155.5s66 -61.5 120 -61.5c37.333 0 69.833 9.5 97.5 28.5s41.834 50.167 42.501 93.5h-123v136h291v-62c0 -227.333 -101.333 -341 -304 -341c-107.333 0 -190.166 31.667 -248.499 95z
M277.998 -294c30.667 0 53.1641 2.00098 67.4971 6.00098s23.833 10.667 28.5 20s7.33398 24.333 8.00098 45c-34 0.666992 -61 10.5 -81 29.5s-30 41.5 -30 67.5c0 25.333 8.83301 46.5 26.5 63.5s39.834 25.5 66.501 25.5c32.667 0 59.334 -11.833 80.001 -35.5
s31 -60.834 31 -111.501c0 -61.333 -15.333 -107.333 -46 -138s-73 -46 -127 -46h-31v74h7z" />
    <glyph glyph-name="uni0123" unicode="&#x123;" horiz-adv-x="603" 
d="M198 604c-20.667 24 -30.998 61.333 -30.998 112c0 60.667 15.333 106.5 46 137.5s73 46.5 127 46.5h31v-74h-7c-30.667 0 -53.167 -2 -67.5 -6s-24 -10.833 -29 -20.5s-7.83301 -24.5 -8.5 -44.5c34.667 -0.666992 62 -10.5 82 -29.5s30 -41.5 30 -67.5
s-8.83301 -47.5 -26.5 -64.5s-39.834 -25.5 -66.501 -25.5c-32.667 0 -59.334 12 -80.001 36zM552.002 520l0.00195312 -497.999c0 -87.333 -27.667 -147.666 -83 -180.999s-118.333 -50 -189 -50c-62.667 0 -119 12.667 -169 38s-75.333 73.666 -76 144.999h145
c1.33301 -20.667 11.666 -35.334 30.999 -44.001s40.666 -13 63.999 -13c33.333 0 60.5 8.66699 81.5 26s31.5 43.666 31.5 78.999v57c-14 -18.667 -33.333 -34.167 -58 -46.5s-53.667 -18.5 -87 -18.5c-36.667 0 -71.5 8.66699 -104.5 26s-60 45.333 -81 84
s-31.5 88 -31.5 148c0 59.333 10.667 108.333 32 147s48.5 66.834 81.5 84.501s67.5 26.5 103.5 26.5c33.333 0 62.333 -6.16699 87 -18.5s44 -27.833 58 -46.5v55h164zM365.004 181.501c20 21 30 51.167 30 90.5s-10 69.5 -30 90.5s-45.333 31.5 -76 31.5
c-31.333 0 -57.333 -10.5 -78 -31.5s-31 -51.167 -31 -90.5s10.333 -69.5 31 -90.5s46.667 -31.5 78 -31.5c30.667 0 56 10.5 76 31.5z" />
    <glyph glyph-name="Hbar" unicode="&#x126;" horiz-adv-x="685" 
d="M467 700h168v-700h-168v282h-249v-282h-167v700h167v-94h249v94zM218 421h249v46h-249v-46z" />
    <glyph glyph-name="hbar" unicode="&#x127;" horiz-adv-x="611" 
d="M511 478.5c32.667 -34.333 48.999 -83.166 48.999 -146.499v-332h-164v292c0 68.667 -28.333 103 -85 103c-28.667 0 -52 -8.5 -70 -25.5s-27 -42.833 -27 -77.5v-292h-164v581h-65v71h65v48h164v-48h143v-71h-143v-171h6c4 18.667 12.5 37.167 25.5 55.5
s31.167 33.666 54.5 45.999s51 18.5 83 18.5c52.667 0 95.334 -17.167 128.001 -51.5z" />
    <glyph glyph-name="Imacron" unicode="&#x12a;" horiz-adv-x="269" 
d="M51 700h167v-700h-167v700zM-35 901h337v-93h-337v93z" />
    <glyph glyph-name="imacron" unicode="&#x12b;" horiz-adv-x="252" 
d="M44 520h164v-520h-164v520zM-42 721h337v-93h-337v93z" />
    <glyph glyph-name="Iogonek" unicode="&#x12e;" horiz-adv-x="269" 
d="M122.5 -22c-22.333 -14.667 -33.501 -31.668 -33.501 -51.001c0 -11.333 3.66699 -20.166 11 -26.499s16.666 -9.5 27.999 -9.5c8.66699 0 18 2 28 6v-90c-13.333 -7.33301 -30.666 -11 -51.999 -11c-34.667 0 -66 9.16699 -94 27.5s-42 46.5 -42 84.5
c0 28 7.66699 51.667 23 71s35.333 34 60 44v677h167v-700c-41.333 0 -73.166 -7.33301 -95.499 -22z" />
    <glyph glyph-name="iogonek" unicode="&#x12f;" horiz-adv-x="252" 
d="M66.5 595.5c-17.667 17 -26.5 37.167 -26.5 60.5c0 24 8.83301 44.5 26.5 61.5s38.167 25.5 61.5 25.5c24 0 44.833 -8.5 62.5 -25.5s26.5 -37.5 26.5 -61.5s-8.83301 -44.333 -26.5 -61s-38.5 -25 -62.5 -25c-23.333 0 -43.833 8.5 -61.5 25.5zM44 520
l163.999 -0.000976562v-520c-41.333 0 -73.166 -7.33301 -95.499 -22s-33.5 -31.667 -33.5 -51c0 -11.333 3.66699 -20.166 11 -26.499s16.666 -9.5 27.999 -9.5c8.66699 0 18 2 28 6v-90c-13.333 -7.33301 -30.666 -11 -51.999 -11c-34.667 0 -66 9.16699 -94 27.5
s-42 46.5 -42 84.5c0 28 8 52 24 72s36.667 35 62 45v495z" />
    <glyph glyph-name="Idotaccent" unicode="&#x130;" horiz-adv-x="269" 
d="M51 700h167v-700h-167v700zM73.5 775.5c-17.667 17 -26.5 37.167 -26.5 60.5c0 24 8.83301 44.5 26.5 61.5s38.167 25.5 61.5 25.5c24 0 44.833 -8.5 62.5 -25.5s26.5 -37.5 26.5 -61.5s-8.83301 -44.333 -26.5 -61s-38.5 -25 -62.5 -25
c-23.333 0 -43.833 8.5 -61.5 25.5z" />
    <glyph glyph-name="dotlessi" unicode="&#x131;" horiz-adv-x="252" 
d="M44 520h164v-520h-164v520z" />
    <glyph glyph-name="IJ" unicode="&#x132;" horiz-adv-x="957" 
d="M51 700h167v-700h-167v700zM399 59.5c-52.667 46.333 -78.999 115.166 -78.999 206.499h169c0 -42 10.833 -74.167 32.5 -96.5s52.5 -33.5 92.5 -33.5s70.833 12 92.5 36s32.5 59.667 32.5 107v421h168v-434c0 -91.333 -26.5 -160.166 -79.5 -206.499
s-124.167 -69.5 -213.5 -69.5c-90.667 0 -162.334 23.167 -215.001 69.5z" />
    <glyph glyph-name="ij" unicode="&#x133;" horiz-adv-x="531" 
d="M70.5 595c-17.667 16.667 -26.5 37 -26.5 61s8.83301 44.5 26.5 61.5s38.5 25.5 62.5 25.5c23.333 0 43.833 -8.5 61.5 -25.5s26.5 -37.5 26.5 -61.5c0 -23.333 -8.83301 -43.5 -26.5 -60.5s-38.167 -25.5 -61.5 -25.5c-24 0 -44.833 8.33301 -62.5 25zM51 520h164v-520
h-164v520zM336 595c-17.333 16.667 -26 37 -26 61s8.66699 44.5 26 61.5s38 25.5 62 25.5s44.667 -8.5 62 -25.5s26 -37.5 26 -61.5s-8.66699 -44.333 -26 -61s-38 -25 -62 -25s-44.667 8.33301 -62 25zM268 -196c-27.333 0 -48 1.00098 -62 3.00098v127h55
c36.667 0 55 21.667 55 65v521h164v-545c0 -58.667 -15.833 -101.834 -47.5 -129.501s-76.167 -41.5 -133.5 -41.5h-31z" />
    <glyph glyph-name="uni0136" unicode="&#x136;" horiz-adv-x="719" 
d="M511 0l-200 269l-93 -110v-159h-167v700h167v-315l261 315h197l-262 -310l290 -390h-193zM263 -294c30.667 0 53.1641 2.00098 67.4971 6.00098s23.833 10.667 28.5 20s7.33398 24.333 8.00098 45c-34 0.666992 -61 10.5 -81 29.5s-30 41.5 -30 67.5
c0 25.333 8.83301 46.5 26.5 63.5s39.834 25.5 66.501 25.5c32.667 0 59.334 -11.833 80.001 -35.5s31 -60.834 31 -111.501c0 -61.333 -15.333 -107.333 -46 -138s-73 -46 -127 -46h-31v74h7z" />
    <glyph glyph-name="uni0137" unicode="&#x137;" horiz-adv-x="596" 
d="M411 0l-155 194l-41 -44v-150h-164v700h164v-374l170 194h179l-208 -220l235 -300h-180zM220 -294c30.667 0 53.1641 2.00098 67.4971 6.00098s23.833 10.667 28.5 20s7.33398 24.333 8.00098 45c-34 0.666992 -61 10.5 -81 29.5s-30 41.5 -30 67.5
c0 25.333 8.83301 46.5 26.5 63.5s39.834 25.5 66.501 25.5c32.667 0 59.334 -11.833 80.001 -35.5s31 -60.834 31 -111.501c0 -61.333 -15.333 -107.333 -46 -138s-73 -46 -127 -46h-31v74h7z" />
    <glyph glyph-name="Lacute" unicode="&#x139;" horiz-adv-x="556" 
d="M51 700h167v-554h313v-146h-480v700zM166 899h144l-104 -141h-144z" />
    <glyph glyph-name="lacute" unicode="&#x13a;" horiz-adv-x="265" 
d="M51 700h164v-700h-164v700zM159 901h144l-104 -141h-144z" />
    <glyph glyph-name="uni013B" unicode="&#x13b;" horiz-adv-x="556" 
d="M51 700h167v-554h313v-146h-480v700zM185 -299c30.667 0 53.1641 2.00098 67.4971 6.00098s23.833 10.667 28.5 20s7.33398 24.333 8.00098 45c-34 0.666992 -61 10.5 -81 29.5s-30 41.5 -30 67.5c0 25.333 8.83301 46.5 26.5 63.5s39.834 25.5 66.501 25.5
c32.667 0 59.334 -11.833 80.001 -35.5s31 -60.834 31 -111.501c0 -61.333 -15.333 -107.333 -46 -138s-73 -46 -127 -46h-31v74h7z" />
    <glyph glyph-name="uni013C" unicode="&#x13c;" horiz-adv-x="265" 
d="M51 700h164v-700h-164v700zM39 -294c30.667 0 53.1641 2.00098 67.4971 6.00098s23.833 10.667 28.5 20s7.33398 24.333 8.00098 45c-34 0.666992 -61 10.5 -81 29.5s-30 41.5 -30 67.5c0 25.333 8.83301 46.5 26.5 63.5s39.834 25.5 66.501 25.5
c32.667 0 59.334 -11.833 80.001 -35.5s31 -60.834 31 -111.501c0 -61.333 -15.333 -107.333 -46 -138s-73 -46 -127 -46h-31v74h7z" />
    <glyph glyph-name="Lcaron" unicode="&#x13d;" horiz-adv-x="556" 
d="M51 700h167v-554h313v-146h-480v700zM311 450c30.667 0 53.1641 2.00098 67.4971 6.00098s23.833 10.667 28.5 20s7.33398 24.333 8.00098 45c-34 0.666992 -61 10.5 -81 29.5s-30 41.5 -30 67.5c0 25.333 8.83301 46.5 26.5 63.5s39.834 25.5 66.501 25.5
c32.667 0 59.334 -11.833 80.001 -35.5s31 -60.834 31 -111.501c0 -61.333 -15.333 -107.333 -46 -138s-73 -46 -127 -46h-31v74h7z" />
    <glyph glyph-name="lcaron" unicode="&#x13e;" horiz-adv-x="478" 
d="M51 700h164v-700h-164v700zM266 452c30.667 0 53.1641 2.00098 67.4971 6.00098s23.833 10.667 28.5 20s7.33398 24.333 8.00098 45c-34 0.666992 -61 10.5 -81 29.5s-30 41.5 -30 67.5c0 25.333 8.83301 46.5 26.5 63.5s39.834 25.5 66.501 25.5
c32.667 0 59.334 -11.833 80.001 -35.5s31 -60.834 31 -111.501c0 -61.333 -15.333 -107.333 -46 -138s-73 -46 -127 -46h-31v74h7z" />
    <glyph glyph-name="Lslash" unicode="&#x141;" horiz-adv-x="573" 
d="M235 146h313v-146h-480v181l-57 -61v162l57 61v357h167v-178l67 72h2v-161l-69 -74v-213z" />
    <glyph glyph-name="lslash" unicode="&#x142;" horiz-adv-x="277" 
d="M272 577v-145l-51 -55v-377h-164v198l-52 -56v146l52 56v356h164v-177l50 54h1z" />
    <glyph glyph-name="Nacute" unicode="&#x143;" horiz-adv-x="704" 
d="M51 700h173l258 -429h4v429h168v-700h-180l-252 418h-4v-418h-167v700zM379 901h144l-104 -141h-144z" />
    <glyph glyph-name="nacute" unicode="&#x144;" horiz-adv-x="612" 
d="M511.5 478.5c33 -34.333 49.5 -83.166 49.5 -146.499v-332h-164v292c0 68.667 -28.667 103 -86 103c-28 0 -51 -8.5 -69 -25.5s-27 -42.833 -27 -77.5v-292h-164v520h164v-110h6c4 18.667 12.5 37.167 25.5 55.5s31 33.666 54 45.999s50.5 18.5 82.5 18.5
c52.667 0 95.5 -17.167 128.5 -51.5zM333 721h144l-104 -141h-144z" />
    <glyph glyph-name="uni0145" unicode="&#x145;" horiz-adv-x="704" 
d="M51 700h173l258 -429h4v429h168v-700h-180l-252 418h-4v-418h-167v700zM259 -294c30.667 0 53.1641 2.00098 67.4971 6.00098s23.833 10.667 28.5 20s7.33398 24.333 8.00098 45c-34 0.666992 -61 10.5 -81 29.5s-30 41.5 -30 67.5c0 25.333 8.83301 46.5 26.5 63.5
s39.834 25.5 66.501 25.5c32.667 0 59.334 -11.833 80.001 -35.5s31 -60.834 31 -111.501c0 -61.333 -15.333 -107.333 -46 -138s-73 -46 -127 -46h-31v74h7z" />
    <glyph glyph-name="uni0146" unicode="&#x146;" horiz-adv-x="612" 
d="M511.5 478.5c33 -34.333 49.5 -83.166 49.5 -146.499v-332h-164v292c0 68.667 -28.667 103 -86 103c-28 0 -51 -8.5 -69 -25.5s-27 -42.833 -27 -77.5v-292h-164v520h164v-110h6c4 18.667 12.5 37.167 25.5 55.5s31 33.666 54 45.999s50.5 18.5 82.5 18.5
c52.667 0 95.5 -17.167 128.5 -51.5zM213 -294c30.667 0 53.1641 2.00098 67.4971 6.00098s23.833 10.667 28.5 20s7.33398 24.333 8.00098 45c-34 0.666992 -61 10.5 -81 29.5s-30 41.5 -30 67.5c0 25.333 8.83301 46.5 26.5 63.5s39.834 25.5 66.501 25.5
c32.667 0 59.334 -11.833 80.001 -35.5s31 -60.834 31 -111.501c0 -61.333 -15.333 -107.333 -46 -138s-73 -46 -127 -46h-31v74h7z" />
    <glyph glyph-name="Ncaron" unicode="&#x147;" horiz-adv-x="704" 
d="M51 700h173l258 -429h4v429h168v-700h-180l-252 418h-4v-418h-167v700zM136 901h149l60 -94l60 94h149l-93 -144h-232z" />
    <glyph glyph-name="ncaron" unicode="&#x148;" horiz-adv-x="612" 
d="M511.5 478.5c33 -34.333 49.5 -83.166 49.5 -146.499v-332h-164v292c0 68.667 -28.667 103 -86 103c-28 0 -51 -8.5 -69 -25.5s-27 -42.833 -27 -77.5v-292h-164v520h164v-110h6c4 18.667 12.5 37.167 25.5 55.5s31 33.666 54 45.999s50.5 18.5 82.5 18.5
c52.667 0 95.5 -17.167 128.5 -51.5zM89 721h149l60 -94l60 94h149l-93 -144h-232z" />
    <glyph glyph-name="Eng" unicode="&#x14a;" horiz-adv-x="704" 
d="M654 700l-0.00390625 -644c0 -90.667 -26.333 -159.334 -79 -206.001s-121.667 -70 -207 -70c-55.333 0 -99.666 9.33301 -132.999 28v151c20 -9.33301 39.833 -17.166 59.5 -23.499s41.834 -9.5 66.501 -9.5c28.667 0 52.834 6.5 72.501 19.5s33.834 32.167 42.501 57.5
l-254 409h-4v-412h-167v700h168l263 -425h4v425h168z" />
    <glyph glyph-name="eng" unicode="&#x14b;" horiz-adv-x="613" 
d="M562 0l0.00195312 -51c0 -56 -15.167 -98.167 -45.5 -126.5s-72.5 -42.5 -126.5 -42.5c-45.333 0 -82 5.66699 -110 17v132c25.333 -6.66699 46.666 -10 63.999 -10c21.333 0 35.666 6 42.999 18s11 25.667 11 41v22h-1v292c0 68.667 -28.667 103 -86 103
c-28 0 -51 -8.5 -69 -25.5s-27 -42.833 -27 -77.5v-292h-164v520h164v-110h6c4 18.667 12.5 37.167 25.5 55.5s31 33.666 54 45.999s50.5 18.5 82.5 18.5c52.667 0 95.5 -17.167 128.5 -51.5s49.5 -83.166 49.5 -146.499v-332h1z" />
    <glyph glyph-name="Omacron" unicode="&#x14c;" horiz-adv-x="748" 
d="M195.5 36c-51 30.667 -90.333 73.167 -118 127.5s-41.5 116.5 -41.5 186.5s13.833 132.167 41.5 186.5s67 96.666 118 126.999s110.5 45.5 178.5 45.5s127.667 -15.167 179 -45.5s90.833 -72.666 118.5 -126.999s41.5 -116.5 41.5 -186.5s-13.833 -132.167 -41.5 -186.5
s-67.167 -96.833 -118.5 -127.5s-111 -46 -179 -46s-127.5 15.333 -178.5 46zM496.5 194c28.333 39.333 42.5 91.333 42.5 156c0 65.333 -14.167 117.333 -42.5 156s-69.166 58 -122.499 58s-94.166 -19.333 -122.499 -58s-42.5 -90.667 -42.5 -156
c0 -64.667 14.167 -116.667 42.5 -156s69.166 -59 122.499 -59s94.166 19.667 122.499 59zM206 901h337v-93h-337v93z" />
    <glyph glyph-name="omacron" unicode="&#x14d;" horiz-adv-x="579" 
d="M160 19c-40 19.333 -72.333 49.166 -97 89.499s-37 90.833 -37 151.5s12.333 111.167 37 151.5s57 70.166 97 89.499s83.333 29 130 29c46 0 89 -9.66699 129 -29s72.5 -49.166 97.5 -89.499s37.5 -90.833 37.5 -151.5s-12.5 -111.167 -37.5 -151.5
s-57.5 -70.166 -97.5 -89.499s-83 -29 -129 -29c-46.667 0 -90 9.66699 -130 29zM370 160c20 22.667 30 56 30 100s-10 77.333 -30 100s-46.667 34 -80 34s-60.166 -11.333 -80.499 -34s-30.5 -56 -30.5 -100s10.167 -77.333 30.5 -100s47.166 -34 80.499 -34
s60 11.333 80 34zM121 721h337v-93h-337v93z" />
    <glyph glyph-name="Ohungarumlaut" unicode="&#x150;" horiz-adv-x="748" 
d="M195.5 36c-51 30.667 -90.333 73.167 -118 127.5s-41.5 116.5 -41.5 186.5s13.833 132.167 41.5 186.5s67 96.666 118 126.999s110.5 45.5 178.5 45.5s127.667 -15.167 179 -45.5s90.833 -72.666 118.5 -126.999s41.5 -116.5 41.5 -186.5s-13.833 -132.167 -41.5 -186.5
s-67.167 -96.833 -118.5 -127.5s-111 -46 -179 -46s-127.5 15.333 -178.5 46zM496.5 194c28.333 39.333 42.5 91.333 42.5 156c0 65.333 -14.167 117.333 -42.5 156s-69.166 58 -122.499 58s-94.166 -19.333 -122.499 -58s-42.5 -90.667 -42.5 -156
c0 -64.667 14.167 -116.667 42.5 -156s69.166 -59 122.499 -59s94.166 19.667 122.499 59zM486 901h144l-104 -141h-144zM293 901h144l-104 -141h-144z" />
    <glyph glyph-name="ohungarumlaut" unicode="&#x151;" horiz-adv-x="579" 
d="M160 19c-40 19.333 -72.333 49.166 -97 89.499s-37 90.833 -37 151.5s12.333 111.167 37 151.5s57 70.166 97 89.499s83.333 29 130 29c46 0 89 -9.66699 129 -29s72.5 -49.166 97.5 -89.499s37.5 -90.833 37.5 -151.5s-12.5 -111.167 -37.5 -151.5
s-57.5 -70.166 -97.5 -89.499s-83 -29 -129 -29c-46.667 0 -90 9.66699 -130 29zM370 160c20 22.667 30 56 30 100s-10 77.333 -30 100s-46.667 34 -80 34s-60.166 -11.333 -80.499 -34s-30.5 -56 -30.5 -100s10.167 -77.333 30.5 -100s47.166 -34 80.499 -34
s60 11.333 80 34zM402 721h144l-104 -141h-144zM209 721h144l-104 -141h-144z" />
    <glyph glyph-name="OE" unicode="&#x152;" horiz-adv-x="1062" 
d="M1037 146l0.000976562 -145.999h-497v29c-48.667 -26 -104 -39 -166 -39c-68 0 -127.5 15.333 -178.5 46s-90.333 73.167 -118 127.5s-41.5 116.5 -41.5 186.5s13.833 132.167 41.5 186.5s67 96.666 118 126.999s110.5 45.5 178.5 45.5
c61.333 0 116.666 -12.667 165.999 -38v29h487v-146h-319v-135v-1h289v-130h-288l-1 -7v-135h329zM496.501 194.001c28.333 39.333 42.5 91.333 42.5 156c0 65.333 -14.167 117.333 -42.5 156s-69.166 58 -122.499 58s-94.166 -19.333 -122.499 -58
s-42.5 -90.667 -42.5 -156c0 -64.667 14.167 -116.667 42.5 -156s69.166 -59 122.499 -59s94.166 19.667 122.499 59z" />
    <glyph glyph-name="oe" unicode="&#x153;" horiz-adv-x="944" 
d="M916 218l-358.003 0.000976562c4.66699 -39.333 16.834 -67.5 36.501 -84.5s47.167 -25.5 82.5 -25.5c28.667 0 49.334 5.33301 62.001 16s22.334 26.667 29.001 48h144c-12 -59.333 -39.333 -105.166 -82 -137.499s-96.667 -48.5 -162 -48.5
c-37.333 0 -72.833 5.83301 -106.5 17.5s-62.5 29.5 -86.5 53.5c-24 -22 -52.167 -38.667 -84.5 -50s-65.833 -17 -100.5 -17c-46.667 0 -90 9.66699 -130 29s-72.333 49.166 -97 89.499s-37 90.833 -37 151.5s12.333 111.167 37 151.5s57 70.166 97 89.499
s83.333 29 130 29c35.333 0 69.166 -5.66699 101.499 -17s60.5 -28.333 84.5 -51c47.333 45.333 111 68 191 68c74.667 0 135.334 -22.167 182.001 -66.5s70 -114.833 70 -211.5c0 -10.667 -1 -22 -3 -34zM764.997 305.001c-2 29.333 -10.834 53.5 -26.501 72.5
s-40.5 28.5 -74.5 28.5c-63.333 0 -98.666 -33.667 -105.999 -101h207zM369.996 160.001c20 22.667 30 56 30 100s-10 77.333 -30 100s-46.667 34 -80 34s-60.166 -11.333 -80.499 -34s-30.5 -56 -30.5 -100s10.167 -77.333 30.5 -100s47.166 -34 80.499 -34
s60 11.333 80 34z" />
    <glyph glyph-name="Racute" unicode="&#x154;" horiz-adv-x="672" 
d="M618 28c1.33301 -10.667 4 -20 8 -28h-167c-4 8 -6.66699 17.333 -8 28s-2 29.667 -2 57v59c0 32 -8 56.667 -24 74s-42.333 26 -79 26h-128v-244h-167v700h299c88 0 153.833 -19.5 197.5 -58.5s65.5 -88.833 65.5 -149.5c0 -42.667 -9.83301 -77.667 -29.5 -105
s-46.5 -49.666 -80.5 -66.999c46 -15.333 76.333 -37.333 91 -66s22 -65.334 22 -110.001v-59c0 -27.333 0.666992 -46.333 2 -57zM415 402.5c17.333 15.667 26 37.5 26 65.5c0 56.667 -32.333 85 -97 85h-126v-174h126c30 0 53.667 7.83301 71 23.5zM302 901h144l-104 -141
h-144z" />
    <glyph glyph-name="racute" unicode="&#x155;" horiz-adv-x="421" 
d="M406 519v-138c-17.333 2 -31.333 3 -42 3c-42 0 -77.333 -12.667 -106 -38s-43 -68 -43 -128v-218h-164v520h164v-129h4c10 42 27.333 74.667 52 98s56.334 35 95.001 35c13.333 0 26.666 -1.66699 39.999 -5zM258 721h144l-104 -141h-144z" />
    <glyph glyph-name="uni0156" unicode="&#x156;" horiz-adv-x="672" 
d="M618 28c1.33301 -10.667 4 -20 8 -28h-167c-4 8 -6.66699 17.333 -8 28s-2 29.667 -2 57v59c0 32 -8 56.667 -24 74s-42.333 26 -79 26h-128v-244h-167v700h299c88 0 153.833 -19.5 197.5 -58.5s65.5 -88.833 65.5 -149.5c0 -42.667 -9.83301 -77.667 -29.5 -105
s-46.5 -49.666 -80.5 -66.999c46 -15.333 76.333 -37.333 91 -66s22 -65.334 22 -110.001v-59c0 -27.333 0.666992 -46.333 2 -57zM415 402.5c17.333 15.667 26 37.5 26 65.5c0 56.667 -32.333 85 -97 85h-126v-174h126c30 0 53.667 7.83301 71 23.5zM182 -294
c30.667 0 53.1641 2.00098 67.4971 6.00098s23.833 10.667 28.5 20s7.33398 24.333 8.00098 45c-34 0.666992 -61 10.5 -81 29.5s-30 41.5 -30 67.5c0 25.333 8.83301 46.5 26.5 63.5s39.834 25.5 66.501 25.5c32.667 0 59.334 -11.833 80.001 -35.5s31 -60.834 31 -111.501
c0 -61.333 -15.333 -107.333 -46 -138s-73 -46 -127 -46h-31v74h7z" />
    <glyph glyph-name="uni0157" unicode="&#x157;" horiz-adv-x="421" 
d="M406 519v-138c-17.333 2 -31.333 3 -42 3c-42 0 -77.333 -12.667 -106 -38s-43 -68 -43 -128v-218h-164v520h164v-129h4c10 42 27.333 74.667 52 98s56.334 35 95.001 35c13.333 0 26.666 -1.66699 39.999 -5zM41 -294c30.667 0 53.1641 2.00098 67.4971 6.00098
s23.833 10.667 28.5 20s7.33398 24.333 8.00098 45c-34 0.666992 -61 10.5 -81 29.5s-30 41.5 -30 67.5c0 25.333 8.83301 46.5 26.5 63.5s39.834 25.5 66.501 25.5c32.667 0 59.334 -11.833 80.001 -35.5s31 -60.834 31 -111.501c0 -61.333 -15.333 -107.333 -46 -138
s-73 -46 -127 -46h-31v74h7z" />
    <glyph glyph-name="Rcaron" unicode="&#x158;" horiz-adv-x="672" 
d="M618 28c1.33301 -10.667 4 -20 8 -28h-167c-4 8 -6.66699 17.333 -8 28s-2 29.667 -2 57v59c0 32 -8 56.667 -24 74s-42.333 26 -79 26h-128v-244h-167v700h299c88 0 153.833 -19.5 197.5 -58.5s65.5 -88.833 65.5 -149.5c0 -42.667 -9.83301 -77.667 -29.5 -105
s-46.5 -49.666 -80.5 -66.999c46 -15.333 76.333 -37.333 91 -66s22 -65.334 22 -110.001v-59c0 -27.333 0.666992 -46.333 2 -57zM415 402.5c17.333 15.667 26 37.5 26 65.5c0 56.667 -32.333 85 -97 85h-126v-174h126c30 0 53.667 7.83301 71 23.5zM59 901h149l60 -94
l60 94h149l-93 -144h-232z" />
    <glyph glyph-name="rcaron" unicode="&#x159;" horiz-adv-x="421" 
d="M406 519v-138c-17.333 2 -31.333 3 -42 3c-42 0 -77.333 -12.667 -106 -38s-43 -68 -43 -128v-218h-164v520h164v-129h4c10 42 27.333 74.667 52 98s56.334 35 95.001 35c13.333 0 26.666 -1.66699 39.999 -5zM14 721h149l60 -94l60 94h149l-93 -144h-232z" />
    <glyph glyph-name="Sacute" unicode="&#x15a;" horiz-adv-x="662" 
d="M116.5 53.5c-53.667 42.333 -80.5029 103.171 -80.5029 182.504h174c1.33301 -32 12.333 -57.833 33 -77.5s51.667 -29.5 93 -29.5c36 0 63.667 6.83301 83 20.5s29 33.5 29 59.5c0 20 -6.66699 35.667 -20 47s-34.666 19.666 -63.999 24.999l-103 20
c-62.667 11.333 -112.667 32.333 -150 63s-56 76.667 -56 138c0 67.333 24.667 118.666 74 153.999s115 53 197 53c84.667 0 152.834 -18.833 204.501 -56.5s77.5 -92.834 77.5 -165.501h-174c1.33301 28.667 -7.83398 49.667 -27.501 63s-45.5 20 -77.5 20
c-34 0 -58.833 -7 -74.5 -21s-23.5 -31.667 -23.5 -53c0 -15.333 4.83301 -29 14.5 -41s26.834 -20.333 51.501 -25l96 -18c84.667 -15.333 144.667 -39.333 180 -72s53 -76.334 53 -131.001c0 -74 -27.167 -129 -81.5 -165s-124.166 -54 -209.499 -54
c-92 0 -164.833 21.167 -218.5 63.5zM349.997 901.005h144l-104 -141h-144z" />
    <glyph glyph-name="sacute" unicode="&#x15b;" horiz-adv-x="508" 
d="M79 37.5c-39.333 31.667 -58.667 78.168 -58 139.501h146c2.66699 -22.667 10.5 -39.334 23.5 -50.001s32.833 -16 59.5 -16c22 0 38.833 3.83301 50.5 11.5s17.5 18.5 17.5 32.5c0 9.33301 -3 17 -9 23s-15.667 10.333 -29 13l-95 21c-100 21.333 -150 73.333 -150 156
c0 51.333 19.5 91.166 58.5 119.499s91.833 42.5 158.5 42.5c70.667 0 124 -16.5 160 -49.5s54 -78.833 54 -137.5h-136c-2.66699 44 -27 66 -73 66c-20.667 0 -37 -3.5 -49 -10.5s-18 -16.5 -18 -28.5c0 -10.667 4.33301 -19.5 13 -26.5s20 -11.5 34 -13.5l100 -22
c100.667 -21.333 151 -71.333 151 -150c0 -55.333 -22.5 -97.166 -67.5 -125.499s-102.167 -42.5 -171.5 -42.5c-74 0 -130.667 15.833 -170 47.5zM277.999 721.001h144l-104 -141h-144z" />
    <glyph glyph-name="Scedilla" unicode="&#x15e;" horiz-adv-x="662" 
d="M554.5 51.5c-47.667 -36.333 -110.17 -56.4941 -187.503 -60.4941l-47 -45h7c26 0 47.333 -9.33301 64 -28s25 -41.334 25 -68.001c0 -40 -16.833 -68.333 -50.5 -85s-75.167 -25 -124.5 -25v77c18.667 -1.33301 34.334 1 47.001 7s19 15 19 27
c0 9.33301 -3.33301 16.666 -10 21.999s-15 8 -25 8c-11.333 0 -21.333 -3.33301 -30 -10l-42 53l66 71c-72 10 -128.333 35.5 -169 76.5s-61 95.833 -61 164.5h174c1.33301 -32 12.333 -57.833 33 -77.5s51.667 -29.5 93 -29.5c36 0 63.667 6.83301 83 20.5
s29 33.5 29 59.5c0 20 -6.66699 35.667 -20 47s-34.666 19.666 -63.999 24.999l-103 20c-62.667 11.333 -112.667 32.333 -150 63s-56 76.667 -56 138c0 67.333 24.667 118.666 74 153.999s115 53 197 53c84.667 0 152.834 -18.833 204.501 -56.5
s77.5 -92.834 77.5 -165.501h-174c1.33301 28.667 -7.83398 49.667 -27.501 63s-45.5 20 -77.5 20c-34 0 -58.833 -7 -74.5 -21s-23.5 -31.667 -23.5 -53c0 -15.333 4.83301 -29 14.5 -41s26.834 -20.333 51.501 -25l96 -18c84.667 -15.333 144.667 -39.333 180 -72
s53 -76.334 53 -131.001c0 -68.667 -23.833 -121.167 -71.5 -157.5z" />
    <glyph glyph-name="scedilla" unicode="&#x15f;" horiz-adv-x="508" 
d="M436.5 44.5c-34.333 -27.667 -79.501 -44.8291 -135.501 -51.4961l-50 -47h7c26 0 47.333 -9.33301 64 -28s25 -41.334 25 -68.001c0 -40 -16.833 -68.333 -50.5 -85s-75.167 -25 -124.5 -25v77c18.667 -1.33301 34.334 1 47.001 7s19 15 19 27
c0 9.33301 -3.33301 16.666 -10 21.999s-15 8 -25 8c-11.333 0 -21.333 -3.33301 -30 -10l-42 53l65 69c-57.333 7.33301 -101 26.5 -131 57.5s-44.667 73.167 -44 126.5h146c2.66699 -22.667 10.5 -39.334 23.5 -50.001s32.833 -16 59.5 -16c22 0 38.833 3.83301 50.5 11.5
s17.5 18.5 17.5 32.5c0 9.33301 -3 17 -9 23s-15.667 10.333 -29 13l-95 21c-100 21.333 -150 73.333 -150 156c0 51.333 19.5 91.166 58.5 119.499s91.833 42.5 158.5 42.5c70.667 0 124 -16.5 160 -49.5s54 -78.833 54 -137.5h-136c-2.66699 44 -27 66 -73 66
c-20.667 0 -37 -3.5 -49 -10.5s-18 -16.5 -18 -28.5c0 -10.667 4.33301 -19.5 13 -26.5s20 -11.5 34 -13.5l100 -22c100.667 -21.333 151 -71.333 151 -150c0 -48 -17.167 -85.833 -51.5 -113.5z" />
    <glyph glyph-name="Scaron" unicode="&#x160;" horiz-adv-x="662" 
d="M116.5 53.5c-53.667 42.333 -80.5029 103.171 -80.5029 182.504h174c1.33301 -32 12.333 -57.833 33 -77.5s51.667 -29.5 93 -29.5c36 0 63.667 6.83301 83 20.5s29 33.5 29 59.5c0 20 -6.66699 35.667 -20 47s-34.666 19.666 -63.999 24.999l-103 20
c-62.667 11.333 -112.667 32.333 -150 63s-56 76.667 -56 138c0 67.333 24.667 118.666 74 153.999s115 53 197 53c84.667 0 152.834 -18.833 204.501 -56.5s77.5 -92.834 77.5 -165.501h-174c1.33301 28.667 -7.83398 49.667 -27.501 63s-45.5 20 -77.5 20
c-34 0 -58.833 -7 -74.5 -21s-23.5 -31.667 -23.5 -53c0 -15.333 4.83301 -29 14.5 -41s26.834 -20.333 51.501 -25l96 -18c84.667 -15.333 144.667 -39.333 180 -72s53 -76.334 53 -131.001c0 -74 -27.167 -129 -81.5 -165s-124.166 -54 -209.499 -54
c-92 0 -164.833 21.167 -218.5 63.5zM105.997 901.005h149l60 -94l60 94h149l-93 -144h-232z" />
    <glyph glyph-name="scaron" unicode="&#x161;" horiz-adv-x="508" 
d="M79 37.5c-39.333 31.667 -58.667 78.168 -58 139.501h146c2.66699 -22.667 10.5 -39.334 23.5 -50.001s32.833 -16 59.5 -16c22 0 38.833 3.83301 50.5 11.5s17.5 18.5 17.5 32.5c0 9.33301 -3 17 -9 23s-15.667 10.333 -29 13l-95 21c-100 21.333 -150 73.333 -150 156
c0 51.333 19.5 91.166 58.5 119.499s91.833 42.5 158.5 42.5c70.667 0 124 -16.5 160 -49.5s54 -78.833 54 -137.5h-136c-2.66699 44 -27 66 -73 66c-20.667 0 -37 -3.5 -49 -10.5s-18 -16.5 -18 -28.5c0 -10.667 4.33301 -19.5 13 -26.5s20 -11.5 34 -13.5l100 -22
c100.667 -21.333 151 -71.333 151 -150c0 -55.333 -22.5 -97.166 -67.5 -125.499s-102.167 -42.5 -171.5 -42.5c-74 0 -130.667 15.833 -170 47.5zM33.999 721.001h149l60 -94l60 94h149l-93 -144h-232z" />
    <glyph glyph-name="uni0162" unicode="&#x162;" horiz-adv-x="606" 
d="M219 554h-198v146h565v-146h-199v-554h-168v554zM339 -82c16.667 -18.667 25 -41.332 25 -67.999c0 -40 -16.833 -68.333 -50.5 -85s-75.167 -25 -124.5 -25v77c18.667 -1.33301 34.167 1 46.5 7s18.5 15 18.5 27c0 9.33301 -3.33301 16.666 -10 21.999s-14.667 8 -24 8
c-11.333 0 -21.333 -3.33301 -30 -10l-42 53l71 76h106l-57 -54h7c26 0 47.333 -9.33301 64 -28z" />
    <glyph glyph-name="uni0163" unicode="&#x163;" horiz-adv-x="395" 
d="M319 -7l-50 -46.998h7c26 0 47.333 -9.33301 64 -28s25 -41.334 25 -68.001c0 -40 -16.833 -68.333 -50.5 -85s-75.167 -25 -124.5 -25v77c18.667 -1.33301 34.334 1 47.001 7s19 15 19 27c0 9.33301 -3.33301 16.666 -10 21.999s-15 8 -25 8
c-11.333 0 -21.333 -3.33301 -30 -10l-42 53l71 76h2c-78 19.333 -117 74.333 -117 165v229h-89v126h89v136h164v-136h102v-126h-102v-206c0 -43.333 19 -65 57 -65h49v-127c-18.667 -2 -37.334 -3 -56.001 -3z" />
    <glyph glyph-name="Tcaron" unicode="&#x164;" horiz-adv-x="606" 
d="M219 554h-198v146h565v-146h-199v-554h-168v554zM86 901h149l60 -94l60 94h149l-93 -144h-232z" />
    <glyph glyph-name="tcaron" unicode="&#x165;" horiz-adv-x="395" 
d="M375 123l0.000976562 -127c-20.667 -2 -50.334 -3 -89.001 -3c-57.333 0 -101.833 14 -133.5 42s-47.5 71.333 -47.5 130v229h-89v126h89v136h164v-136h102v-126h-102v-206c0 -43.333 19 -65 57 -65h49zM395.001 718h144l-104 -141h-144z" />
    <glyph glyph-name="Tbar" unicode="&#x166;" horiz-adv-x="606" 
d="M586 554h-199v-60h66v-93h-66v-401h-168v401h-103v93h103v60h-198v146h565v-146z" />
    <glyph glyph-name="tbar" unicode="&#x167;" horiz-adv-x="395" 
d="M375 123l0.000976562 -127c-20.667 -2 -50.334 -3 -89.001 -3c-57.333 0 -101.833 14 -133.5 42s-47.5 71.333 -47.5 130v63h-89v126h89v40h-89v126h89v136h164v-136h102v-126h-102v-40h102v-126h-102v-40c0 -43.333 19 -65 57 -65h49z" />
    <glyph glyph-name="Utilde" unicode="&#x168;" horiz-adv-x="688" 
d="M130 59.5c-52.667 46.333 -78.998 115.166 -78.998 206.499v434h169v-421c0 -46.667 11 -82.167 33 -106.5s52.667 -36.5 92 -36.5s69.666 12.167 90.999 36.5s32 59.833 32 106.5v421h170v-434c0 -91.333 -26.5 -160.166 -79.5 -206.499s-124.167 -69.5 -213.5 -69.5
c-90.667 0 -162.334 23.167 -215.001 69.5zM372.502 775c-13.667 6 -28.499 14.667 -44.499 26c-12.667 8.66699 -23.167 15 -31.5 19s-17.833 6 -28.5 6c-11.333 0 -19.833 -2.33301 -25.5 -7s-8.83398 -12.334 -9.50098 -23.001h-83c0 36 9 64.167 27 84.5
s43 30.5 75 30.5c19.333 0 35.666 -2.83301 48.999 -8.5s28.333 -14.167 45 -25.5c12.667 -8.66699 23.167 -15 31.5 -19s17.5 -6 27.5 -6c11.333 0 19.833 2.33301 25.5 7s8.83398 12.334 9.50098 23.001h83c0 -36 -8.83301 -64.333 -26.5 -85s-42.5 -31 -74.5 -31
c-19.333 0 -35.833 3 -49.5 9z" />
    <glyph glyph-name="utilde" unicode="&#x169;" horiz-adv-x="612" 
d="M562 520v-520h-164v110h-7c-4 -18.667 -12.5 -37.167 -25.5 -55.5s-31 -33.666 -54 -45.999s-50.5 -18.5 -82.5 -18.5c-52.667 0 -95.5 17.167 -128.5 51.5s-49.5 83.166 -49.5 146.499v332h164v-292c0 -68.667 28.667 -103 86 -103c28 0 51.167 8.5 69.5 25.5
s27.5 42.833 27.5 77.5v292h164zM346.5 595c-13.667 6 -28.499 14.667 -44.499 26c-12.667 8.66699 -23.167 15 -31.5 19s-17.833 6 -28.5 6c-11.333 0 -19.833 -2.33301 -25.5 -7s-8.83398 -12.334 -9.50098 -23.001h-83c0 36 9 64.167 27 84.5s43 30.5 75 30.5
c19.333 0 35.666 -2.83301 48.999 -8.5s28.333 -14.167 45 -25.5c12.667 -8.66699 23.167 -15 31.5 -19s17.5 -6 27.5 -6c11.333 0 19.833 2.33301 25.5 7s8.83398 12.334 9.50098 23.001h83c0 -36 -8.83301 -64.333 -26.5 -85s-42.5 -31 -74.5 -31
c-19.333 0 -35.833 3 -49.5 9z" />
    <glyph glyph-name="Umacron" unicode="&#x16a;" horiz-adv-x="688" 
d="M130 59.5c-52.667 46.333 -78.998 115.166 -78.998 206.499v434h169v-421c0 -46.667 11 -82.167 33 -106.5s52.667 -36.5 92 -36.5s69.666 12.167 90.999 36.5s32 59.833 32 106.5v421h170v-434c0 -91.333 -26.5 -160.166 -79.5 -206.499s-124.167 -69.5 -213.5 -69.5
c-90.667 0 -162.334 23.167 -215.001 69.5zM162.002 901h337v-93h-337v93z" />
    <glyph glyph-name="umacron" unicode="&#x16b;" horiz-adv-x="612" 
d="M562 520v-520h-164v110h-7c-4 -18.667 -12.5 -37.167 -25.5 -55.5s-31 -33.666 -54 -45.999s-50.5 -18.5 -82.5 -18.5c-52.667 0 -95.5 17.167 -128.5 51.5s-49.5 83.166 -49.5 146.499v332h164v-292c0 -68.667 28.667 -103 86 -103c28 0 51.167 8.5 69.5 25.5
s27.5 42.833 27.5 77.5v292h164zM136 721h337v-93h-337v93z" />
    <glyph glyph-name="Ubreve" unicode="&#x16c;" horiz-adv-x="688" 
d="M130 59.5c-52.667 46.333 -78.998 115.166 -78.998 206.499v434h169v-421c0 -46.667 11 -82.167 33 -106.5s52.667 -36.5 92 -36.5s69.666 12.167 90.999 36.5s32 59.833 32 106.5v421h170v-434c0 -91.333 -26.5 -160.166 -79.5 -206.499s-124.167 -69.5 -213.5 -69.5
c-90.667 0 -162.334 23.167 -215.001 69.5zM199.002 783c-30.667 28 -46 67.333 -46 118h109c2 -20.667 8.66699 -35.667 20 -45s27.666 -14 48.999 -14c20.667 0 36.667 4.66699 48 14s18 24.333 20 45h109c0 -50.667 -15.167 -90 -45.5 -118s-74.166 -42 -131.499 -42
s-101.333 14 -132 42z" />
    <glyph glyph-name="ubreve" unicode="&#x16d;" horiz-adv-x="612" 
d="M562 520v-520h-164v110h-7c-4 -18.667 -12.5 -37.167 -25.5 -55.5s-31 -33.666 -54 -45.999s-50.5 -18.5 -82.5 -18.5c-52.667 0 -95.5 17.167 -128.5 51.5s-49.5 83.166 -49.5 146.499v332h164v-292c0 -68.667 28.667 -103 86 -103c28 0 51.167 8.5 69.5 25.5
s27.5 42.833 27.5 77.5v292h164zM173 603c-30.667 28 -46 67.333 -46 118h109c2 -20.667 8.66699 -35.667 20 -45s27.666 -14 48.999 -14c20.667 0 36.667 4.66699 48 14s18 24.333 20 45h109c0 -50.667 -15.167 -90 -45.5 -118s-74.166 -42 -131.499 -42
s-101.333 14 -132 42z" />
    <glyph glyph-name="Uring" unicode="&#x16e;" horiz-adv-x="688" 
d="M130 59.5c-52.667 46.333 -78.998 115.166 -78.998 206.499v434h169v-421c0 -46.667 11 -82.167 33 -106.5s52.667 -36.5 92 -36.5s69.666 12.167 90.999 36.5s32 59.833 32 106.5v421h170v-434c0 -91.333 -26.5 -160.166 -79.5 -206.499s-124.167 -69.5 -213.5 -69.5
c-90.667 0 -162.334 23.167 -215.001 69.5zM253.002 760c-20.667 20 -31 44.667 -31 74s10.333 54 31 74s46.334 30 77.001 30s56.167 -10 76.5 -30s30.5 -44.667 30.5 -74s-10.167 -54 -30.5 -74s-45.833 -30 -76.5 -30s-56.334 10 -77.001 30zM353.502 810
c6.33301 6 9.49902 14 9.49902 24s-3.16699 18 -9.5 24s-14.166 9 -23.499 9s-17.166 -3 -23.499 -9s-9.5 -14 -9.5 -24s3 -18 9 -24s14 -9 24 -9c9.33301 0 17.166 3 23.499 9z" />
    <glyph glyph-name="uring" unicode="&#x16f;" horiz-adv-x="612" 
d="M562 520v-520h-164v110h-7c-4 -18.667 -12.5 -37.167 -25.5 -55.5s-31 -33.666 -54 -45.999s-50.5 -18.5 -82.5 -18.5c-52.667 0 -95.5 17.167 -128.5 51.5s-49.5 83.166 -49.5 146.499v332h164v-292c0 -68.667 28.667 -103 86 -103c28 0 51.167 8.5 69.5 25.5
s27.5 42.833 27.5 77.5v292h164zM227 580c-20.667 20 -31 44.667 -31 74s10.333 54 31 74s46.334 30 77.001 30s56.167 -10 76.5 -30s30.5 -44.667 30.5 -74s-10.167 -54 -30.5 -74s-45.833 -30 -76.5 -30s-56.334 10 -77.001 30zM327.5 630
c6.33301 6 9.49902 14 9.49902 24s-3.16699 18 -9.5 24s-14.166 9 -23.499 9s-17.166 -3 -23.499 -9s-9.5 -14 -9.5 -24s3 -18 9 -24s14 -9 24 -9c9.33301 0 17.166 3 23.499 9z" />
    <glyph glyph-name="Uhungarumlaut" unicode="&#x170;" horiz-adv-x="688" 
d="M130 59.5c-52.667 46.333 -78.998 115.166 -78.998 206.499v434h169v-421c0 -46.667 11 -82.167 33 -106.5s52.667 -36.5 92 -36.5s69.666 12.167 90.999 36.5s32 59.833 32 106.5v421h170v-434c0 -91.333 -26.5 -160.166 -79.5 -206.499s-124.167 -69.5 -213.5 -69.5
c-90.667 0 -162.334 23.167 -215.001 69.5zM443.002 901h144l-104 -141h-144zM250.002 901h144l-104 -141h-144z" />
    <glyph glyph-name="uhungarumlaut" unicode="&#x171;" horiz-adv-x="612" 
d="M562 520v-520h-164v110h-7c-4 -18.667 -12.5 -37.167 -25.5 -55.5s-31 -33.666 -54 -45.999s-50.5 -18.5 -82.5 -18.5c-52.667 0 -95.5 17.167 -128.5 51.5s-49.5 83.166 -49.5 146.499v332h164v-292c0 -68.667 28.667 -103 86 -103c28 0 51.167 8.5 69.5 25.5
s27.5 42.833 27.5 77.5v292h164zM416 721h144l-104 -141h-144zM223 721h144l-104 -141h-144z" />
    <glyph glyph-name="Uogonek" unicode="&#x172;" horiz-adv-x="688" 
d="M638 700l0.00195312 -433.998c0 -78.667 -20 -140.834 -60 -186.501s-94.667 -73.834 -164 -84.501c-25.333 -5.33301 -44.5 -14.333 -57.5 -27s-19.5 -26.334 -19.5 -41.001c0 -11.333 3.66699 -20.166 11 -26.499s16.666 -9.5 27.999 -9.5c8.66699 0 18 2 28 6v-90
c-13.333 -7.33301 -31 -11 -53 -11c-34.667 0 -65.834 9.16699 -93.501 27.5s-41.5 46.5 -41.5 84.5c0 36.667 14 66.667 42 90c-65.333 13.333 -116.166 42.5 -152.499 87.5s-54.5 105.167 -54.5 180.5v434h169v-421c0 -46.667 11 -82.167 33 -106.5s52.667 -36.5 92 -36.5
s69.666 12.167 90.999 36.5s32 59.833 32 106.5v421h170z" />
    <glyph glyph-name="uogonek" unicode="&#x173;" horiz-adv-x="612" 
d="M562 520v-520.002h-1c-41.333 0 -73.166 -7.33301 -95.499 -22s-33.5 -31.667 -33.5 -51c0 -11.333 3.66699 -20.166 11 -26.499s16.666 -9.5 27.999 -9.5c8.66699 0 18 2 28 6v-90c-13.333 -7.33301 -30.666 -11 -51.999 -11c-34.667 0 -66 9.16699 -94 27.5
s-42 46.5 -42 84.5c0 28.667 8.16699 52.834 24.5 72.501s37.166 34.5 62.499 44.5v85h-7c-4 -18.667 -12.5 -37.167 -25.5 -55.5s-31 -33.666 -54 -45.999s-50.5 -18.5 -82.5 -18.5c-52.667 0 -95.5 17.167 -128.5 51.5s-49.5 83.166 -49.5 146.499v332h164v-292
c0 -68.667 28.667 -103 86 -103c28 0 51.167 8.5 69.5 25.5s27.5 42.833 27.5 77.5v292h164z" />
    <glyph glyph-name="Wcircumflex" unicode="&#x174;" horiz-adv-x="1026" 
d="M21 700h172l103 -463h6l125 463h172l125 -463h6l103 463h173l-181 -700h-174l-138 489l-138 -489h-174zM396 901h232l93 -144h-149l-60 95l-60 -95h-149z" />
    <glyph glyph-name="wcircumflex" unicode="&#x175;" horiz-adv-x="837" 
d="M16 520h154l81 -362h4l93 362h141l93 -362h4l81 362h155l-136 -520h-184l-83 302l-83 -302h-185zM300 721h232l93 -144h-149l-60 95l-60 -95h-149z" />
    <glyph glyph-name="Ycircumflex" unicode="&#x176;" horiz-adv-x="719" 
d="M273 253l-252 447h191l148 -284l148 284h191l-253 -447v-253h-173v253zM242 901h232l93 -144h-149l-60 95l-60 -95h-149z" />
    <glyph glyph-name="ycircumflex" unicode="&#x177;" horiz-adv-x="591" 
d="M110 -67c31.333 0 53.999 4.66797 67.999 14.001s24 20.666 30 33.999c5.33301 12 8 22.333 8 31c0 9.33301 -3.66699 23 -11 41l-189 467h167l111 -311l114 311h168l-210 -514c-21.333 -52 -42.833 -93.167 -64.5 -123.5s-47 -52.5 -76 -66.5s-64.167 -21 -105.5 -21
c-15.333 0 -32.666 1 -51.999 3v138c16 -2 30 -3 42 -3zM176.999 721.001h232l93 -144h-149l-60 95l-60 -95h-149z" />
    <glyph glyph-name="Ydieresis" unicode="&#x178;" horiz-adv-x="719" 
d="M273 253l-252 447h191l148 -284l148 284h191l-253 -447v-253h-173v253zM169.5 775.5c-17.667 17 -26.5 37.167 -26.5 60.5c0 24 8.83301 44.5 26.5 61.5s38.167 25.5 61.5 25.5c24 0 44.833 -8.5 62.5 -25.5s26.5 -37.5 26.5 -61.5s-8.83301 -44.333 -26.5 -61
s-38.5 -25 -62.5 -25c-23.333 0 -43.833 8.5 -61.5 25.5zM422.5 775c-17.667 16.667 -26.5 37 -26.5 61s8.83301 44.5 26.5 61.5s38.5 25.5 62.5 25.5c23.333 0 43.833 -8.5 61.5 -25.5s26.5 -37.5 26.5 -61.5c0 -23.333 -8.83301 -43.5 -26.5 -60.5
s-38.167 -25.5 -61.5 -25.5c-24 0 -44.833 8.33301 -62.5 25z" />
    <glyph glyph-name="Zacute" unicode="&#x179;" horiz-adv-x="624" 
d="M40 146l354 408h-348v146h534l1 -146l-357 -408h360v-146h-544v146zM350 901h144l-104 -141h-144z" />
    <glyph glyph-name="zacute" unicode="&#x17a;" horiz-adv-x="513" 
d="M40 137l237 246h-227v137h423v-137l-237 -246h237v-137h-433v137zM275 721h144l-104 -141h-144z" />
    <glyph glyph-name="Zdotaccent" unicode="&#x17b;" horiz-adv-x="624" 
d="M40 146l354 408h-348v146h534l1 -146l-357 -408h360v-146h-544v146zM263.5 775.5c-17.667 17 -26.5 37.167 -26.5 60.5c0 24 8.83301 44.5 26.5 61.5s38.167 25.5 61.5 25.5c24 0 44.833 -8.5 62.5 -25.5s26.5 -37.5 26.5 -61.5s-8.83301 -44.333 -26.5 -61
s-38.5 -25 -62.5 -25c-23.333 0 -43.833 8.5 -61.5 25.5z" />
    <glyph glyph-name="zdotaccent" unicode="&#x17c;" horiz-adv-x="513" 
d="M40 137l237 246h-227v137h423v-137l-237 -246h237v-137h-433v137zM188.5 595.5c-17.667 17 -26.5 37.167 -26.5 60.5c0 24 8.83301 44.5 26.5 61.5s38.167 25.5 61.5 25.5c24 0 44.833 -8.5 62.5 -25.5s26.5 -37.5 26.5 -61.5s-8.83301 -44.333 -26.5 -61
s-38.5 -25 -62.5 -25c-23.333 0 -43.833 8.5 -61.5 25.5z" />
    <glyph glyph-name="Zcaron" unicode="&#x17d;" horiz-adv-x="624" 
d="M40 146l354 408h-348v146h534l1 -146l-357 -408h360v-146h-544v146zM106 901h149l60 -94l60 94h149l-93 -144h-232z" />
    <glyph glyph-name="zcaron" unicode="&#x17e;" horiz-adv-x="513" 
d="M40 137l237 246h-227v137h423v-137l-237 -246h237v-137h-433v137zM32 721h149l60 -94l60 94h149l-93 -144h-232z" />
    <glyph glyph-name="florin" unicode="&#x192;" horiz-adv-x="319" 
d="M248.5 530.5c-7.66699 -15.667 -11.501 -38.166 -11.501 -67.499v-42h57v-140h-57v-281c0 -44 -6.66699 -79.833 -20 -107.5s-36.166 -48.334 -68.499 -62.001s-76.5 -20.5 -132.5 -20.5v140c24.667 0 40.334 7.66699 47.001 23s10 38 10 68v240h-65v140h65v83
c0 60.667 15.667 107.5 47 140.5s89.333 49.5 174 49.5v-140c-22.667 0 -37.834 -7.83301 -45.501 -23.5z" />
    <glyph glyph-name="uni01CD" unicode="&#x1cd;" horiz-adv-x="747" 
d="M555 0l-40 119h-283l-40 -119h-176l249 700h217l250 -700h-177zM273 243h201l-95 287h-10zM158 901h149l60 -94l60 94h149l-93 -144h-232z" />
    <glyph glyph-name="uni01CE" unicode="&#x1ce;" horiz-adv-x="563" 
d="M459.5 488c35 -28 52.4971 -70.667 52.4971 -128v-360h-156v89h-6c-1.33301 -10.667 -7.66602 -23.834 -18.999 -39.501s-28.666 -29.5 -51.999 -41.5s-52 -18 -86 -18c-46 0 -85.333 11.833 -118 35.5s-49 60.5 -49 110.5c0 52 16.833 88.167 50.5 108.5
s76.834 33.5 129.501 39.5l97 13c14 1.33301 24.167 3.83301 30.5 7.5s10.333 8.66699 12 15s2.5 16.5 2.5 30.5c0 24 -5.83301 40 -17.5 48s-27.5 12 -47.5 12c-21.333 0 -38.833 -4 -52.5 -12s-20.5 -23.333 -20.5 -46v-4l-154 -2v22c0 52.667 18.5 92.834 55.5 120.501
s95.833 41.5 176.5 41.5c79.333 0 136.5 -14 171.5 -42zM347.997 226c-4 -3.33301 -9.16797 -5.83203 -15.501 -7.49902s-15.833 -3.5 -28.5 -5.5l-57 -8c-18.667 -4 -33.167 -9.33301 -43.5 -16s-15.5 -17.334 -15.5 -32.001c0 -12.667 4.83301 -24 14.5 -34
s27.834 -15 54.501 -15c29.333 0 51.833 7.5 67.5 22.5s23.5 32.167 23.5 51.5v44zM66.9961 721.001h149l60 -94l60 94h149l-93 -144h-232z" />
    <glyph glyph-name="uni01CF" unicode="&#x1cf;" horiz-adv-x="269" 
d="M51 700h167v-700h-167v700zM-84 901h149l60 -94l60 94h149l-93 -144h-232z" />
    <glyph glyph-name="uni01D0" unicode="&#x1d0;" horiz-adv-x="252" 
d="M44 520h164v-520h-164v520zM-91 721h149l60 -94l60 94h149l-93 -144h-232z" />
    <glyph glyph-name="uni01D1" unicode="&#x1d1;" horiz-adv-x="748" 
d="M195.5 36c-51 30.667 -90.333 73.167 -118 127.5s-41.5 116.5 -41.5 186.5s13.833 132.167 41.5 186.5s67 96.666 118 126.999s110.5 45.5 178.5 45.5s127.667 -15.167 179 -45.5s90.833 -72.666 118.5 -126.999s41.5 -116.5 41.5 -186.5s-13.833 -132.167 -41.5 -186.5
s-67.167 -96.833 -118.5 -127.5s-111 -46 -179 -46s-127.5 15.333 -178.5 46zM496.5 194c28.333 39.333 42.5 91.333 42.5 156c0 65.333 -14.167 117.333 -42.5 156s-69.166 58 -122.499 58s-94.166 -19.333 -122.499 -58s-42.5 -90.667 -42.5 -156
c0 -64.667 14.167 -116.667 42.5 -156s69.166 -59 122.499 -59s94.166 19.667 122.499 59zM157 901h149l60 -94l60 94h149l-93 -144h-232z" />
    <glyph glyph-name="uni01D2" unicode="&#x1d2;" horiz-adv-x="579" 
d="M160 19c-40 19.333 -72.333 49.166 -97 89.499s-37 90.833 -37 151.5s12.333 111.167 37 151.5s57 70.166 97 89.499s83.333 29 130 29c46 0 89 -9.66699 129 -29s72.5 -49.166 97.5 -89.499s37.5 -90.833 37.5 -151.5s-12.5 -111.167 -37.5 -151.5
s-57.5 -70.166 -97.5 -89.499s-83 -29 -129 -29c-46.667 0 -90 9.66699 -130 29zM370 160c20 22.667 30 56 30 100s-10 77.333 -30 100s-46.667 34 -80 34s-60.166 -11.333 -80.499 -34s-30.5 -56 -30.5 -100s10.167 -77.333 30.5 -100s47.166 -34 80.499 -34
s60 11.333 80 34zM73 721h149l60 -94l60 94h149l-93 -144h-232z" />
    <glyph glyph-name="uni01D3" unicode="&#x1d3;" horiz-adv-x="688" 
d="M130 59.5c-52.667 46.333 -78.998 115.166 -78.998 206.499v434h169v-421c0 -46.667 11 -82.167 33 -106.5s52.667 -36.5 92 -36.5s69.666 12.167 90.999 36.5s32 59.833 32 106.5v421h170v-434c0 -91.333 -26.5 -160.166 -79.5 -206.499s-124.167 -69.5 -213.5 -69.5
c-90.667 0 -162.334 23.167 -215.001 69.5zM114.002 901h149l60 -94l60 94h149l-93 -144h-232z" />
    <glyph glyph-name="uni01D4" unicode="&#x1d4;" horiz-adv-x="612" 
d="M562 520v-520h-164v110h-7c-4 -18.667 -12.5 -37.167 -25.5 -55.5s-31 -33.666 -54 -45.999s-50.5 -18.5 -82.5 -18.5c-52.667 0 -95.5 17.167 -128.5 51.5s-49.5 83.166 -49.5 146.499v332h164v-292c0 -68.667 28.667 -103 86 -103c28 0 51.167 8.5 69.5 25.5
s27.5 42.833 27.5 77.5v292h164zM87 721h149l60 -94l60 94h149l-93 -144h-232z" />
    <glyph glyph-name="uni01EA" unicode="&#x1ea;" horiz-adv-x="748" 
d="M379 -32.5c-12.667 -12.333 -18.998 -25.8359 -18.998 -40.5029c0 -11.333 3.66699 -20.166 11 -26.499s17 -9.5 29 -9.5c8.66699 0 18 2 28 6v-90c-13.333 -7.33301 -31 -11 -53 -11c-34.667 0 -65.834 9.16699 -93.501 27.5s-41.5 46.5 -41.5 84.5
c0 37.333 14.667 68 44 92c-76.667 18.667 -137.167 59.334 -181.5 122.001s-66.5 138.667 -66.5 228c0 70 13.833 132.167 41.5 186.5s67 96.666 118 126.999s110.5 45.5 178.5 45.5s127.667 -15.167 179 -45.5s90.833 -72.666 118.5 -126.999s41.5 -116.5 41.5 -186.5
c0 -62.667 -11.167 -119.167 -33.5 -169.5s-54.5 -91.666 -96.5 -123.999s-91.333 -52.833 -148 -61.5c-24.667 -6 -43.334 -15.167 -56.001 -27.5zM251.502 193.997c28.333 -39.333 69.166 -59 122.499 -59s94.166 19.667 122.499 59s42.5 91.333 42.5 156
c0 65.333 -14.167 117.333 -42.5 156s-69.166 58 -122.499 58s-94.166 -19.333 -122.499 -58s-42.5 -90.667 -42.5 -156c0 -64.667 14.167 -116.667 42.5 -156z" />
    <glyph glyph-name="uni01EB" unicode="&#x1eb;" horiz-adv-x="579" 
d="M495.5 78c-39 -44.667 -88.4971 -72.332 -148.497 -82.999c-25.333 -5.33301 -44.5 -14.333 -57.5 -27s-19.5 -26.334 -19.5 -41.001c0 -11.333 3.66699 -20.166 11 -26.499s16.666 -9.5 27.999 -9.5c8.66699 0 18 2 28 6v-90c-13.333 -7.33301 -31 -11 -53 -11
c-34.667 0 -65.834 9.16699 -93.501 27.5s-41.5 46.5 -41.5 84.5c0 40 16 72 48 96c-50.667 16 -91.834 45.5 -123.501 88.5s-47.5 98.833 -47.5 167.5c0 60.667 12.333 111.167 37 151.5s57 70.166 97 89.499s83.333 29 130 29c46 0 89 -9.66699 129 -29
s72.5 -49.166 97.5 -89.499s37.5 -90.833 37.5 -151.5c0 -76.667 -19.5 -137.334 -58.5 -182.001zM370.003 160.002c20 22.667 30 56 30 100s-10 77.333 -30 100s-46.667 34 -80 34s-60.166 -11.333 -80.499 -34s-30.5 -56 -30.5 -100s10.167 -77.333 30.5 -100
s47.166 -34 80.499 -34s60 11.333 80 34z" />
    <glyph glyph-name="uni0218" unicode="&#x218;" horiz-adv-x="662" 
d="M116.5 53.5c-53.667 42.333 -80.5029 103.171 -80.5029 182.504h174c1.33301 -32 12.333 -57.833 33 -77.5s51.667 -29.5 93 -29.5c36 0 63.667 6.83301 83 20.5s29 33.5 29 59.5c0 20 -6.66699 35.667 -20 47s-34.666 19.666 -63.999 24.999l-103 20
c-62.667 11.333 -112.667 32.333 -150 63s-56 76.667 -56 138c0 67.333 24.667 118.666 74 153.999s115 53 197 53c84.667 0 152.834 -18.833 204.501 -56.5s77.5 -92.834 77.5 -165.501h-174c1.33301 28.667 -7.83398 49.667 -27.501 63s-45.5 20 -77.5 20
c-34 0 -58.833 -7 -74.5 -21s-23.5 -31.667 -23.5 -53c0 -15.333 4.83301 -29 14.5 -41s26.834 -20.333 51.501 -25l96 -18c84.667 -15.333 144.667 -39.333 180 -72s53 -76.334 53 -131.001c0 -74 -27.167 -129 -81.5 -165s-124.166 -54 -209.499 -54
c-92 0 -164.833 21.167 -218.5 63.5zM225.997 -293.995c30.667 0 53.1641 2.00098 67.4971 6.00098s23.833 10.667 28.5 20s7.33398 24.333 8.00098 45c-34 0.666992 -61 10.5 -81 29.5s-30 41.5 -30 67.5c0 25.333 8.83301 46.5 26.5 63.5s39.834 25.5 66.501 25.5
c32.667 0 59.334 -11.833 80.001 -35.5s31 -60.834 31 -111.501c0 -61.333 -15.333 -107.333 -46 -138s-73 -46 -127 -46h-31v74h7z" />
    <glyph glyph-name="uni0219" unicode="&#x219;" horiz-adv-x="508" 
d="M79 37.5c-39.333 31.667 -58.667 78.168 -58 139.501h146c2.66699 -22.667 10.5 -39.334 23.5 -50.001s32.833 -16 59.5 -16c22 0 38.833 3.83301 50.5 11.5s17.5 18.5 17.5 32.5c0 9.33301 -3 17 -9 23s-15.667 10.333 -29 13l-95 21c-100 21.333 -150 73.333 -150 156
c0 51.333 19.5 91.166 58.5 119.499s91.833 42.5 158.5 42.5c70.667 0 124 -16.5 160 -49.5s54 -78.833 54 -137.5h-136c-2.66699 44 -27 66 -73 66c-20.667 0 -37 -3.5 -49 -10.5s-18 -16.5 -18 -28.5c0 -10.667 4.33301 -19.5 13 -26.5s20 -11.5 34 -13.5l100 -22
c100.667 -21.333 151 -71.333 151 -150c0 -55.333 -22.5 -97.166 -67.5 -125.499s-102.167 -42.5 -171.5 -42.5c-74 0 -130.667 15.833 -170 47.5zM160.999 -302.999c30.667 0 53.1641 2.00098 67.4971 6.00098s23.833 10.667 28.5 20s7.33398 24.333 8.00098 45
c-34 0.666992 -61 10.5 -81 29.5s-30 41.5 -30 67.5c0 25.333 8.83301 46.5 26.5 63.5s39.834 25.5 66.501 25.5c32.667 0 59.334 -11.833 80.001 -35.5s31 -60.834 31 -111.501c0 -61.333 -15.333 -107.333 -46 -138s-73 -46 -127 -46h-31v74h7z" />
    <glyph glyph-name="uni021A" unicode="&#x21a;" horiz-adv-x="606" 
d="M219 554h-198v146h565v-146h-199v-554h-168v554zM174 -294c30.667 0 53.1641 2.00098 67.4971 6.00098s23.833 10.667 28.5 20s7.33398 24.333 8.00098 45c-34 0.666992 -61 10.5 -81 29.5s-30 41.5 -30 67.5c0 25.333 8.83301 46.5 26.5 63.5s39.834 25.5 66.501 25.5
c32.667 0 59.334 -11.833 80.001 -35.5s31 -60.834 31 -111.501c0 -61.333 -15.333 -107.333 -46 -138s-73 -46 -127 -46h-31v74h7z" />
    <glyph glyph-name="uni021B" unicode="&#x21b;" horiz-adv-x="395" 
d="M375 123l0.000976562 -127c-20.667 -2 -50.334 -3 -89.001 -3c-57.333 0 -101.833 14 -133.5 42s-47.5 71.333 -47.5 130v229h-89v126h89v136h164v-136h102v-126h-102v-206c0 -43.333 19 -65 57 -65h49zM175.001 -294c30.667 0 53.1641 2.00098 67.4971 6.00098
s23.833 10.667 28.5 20s7.33398 24.333 8.00098 45c-34 0.666992 -61 10.5 -81 29.5s-30 41.5 -30 67.5c0 25.333 8.83301 46.5 26.5 63.5s39.834 25.5 66.501 25.5c32.667 0 59.334 -11.833 80.001 -35.5s31 -60.834 31 -111.501c0 -61.333 -15.333 -107.333 -46 -138
s-73 -46 -127 -46h-31v74h7z" />
    <glyph glyph-name="uni0237" unicode="&#x237;" horiz-adv-x="269" 
d="M13 -196c-27.333 0 -48 1.00098 -62 3.00098v127h55c36.667 0 55 21.667 55 65v521h164v-545c0 -58.667 -15.833 -101.834 -47.5 -129.501s-76.167 -41.5 -133.5 -41.5h-31z" />
    <glyph glyph-name="circumflex" unicode="&#x2c6;" horiz-adv-x="418" 
d="M93 721h232l93 -144h-149l-60 95l-60 -95h-149z" />
    <glyph glyph-name="caron" unicode="&#x2c7;" horiz-adv-x="431" 
d="M0 721h149l60 -94l60 94h149l-93 -144h-232z" />
    <glyph glyph-name="breve" unicode="&#x2d8;" horiz-adv-x="355" 
d="M46 603c-30.667 28 -46 67.333 -46 118h109c2 -20.667 8.66699 -35.667 20 -45s27.666 -14 48.999 -14c20.667 0 36.667 4.66699 48 14s18 24.333 20 45h109c0 -50.667 -15.167 -90 -45.5 -118s-74.166 -42 -131.499 -42s-101.333 14 -132 42z" />
    <glyph glyph-name="dotaccent" unicode="&#x2d9;" horiz-adv-x="177" 
d="M26.5 595.5c-17.667 17 -26.5 37.167 -26.5 60.5c-0 24 8.83301 44.5 26.5 61.5s38.167 25.5 61.5 25.5c24 0 44.833 -8.5 62.5 -25.5s26.5 -37.5 26.5 -61.5s-8.83301 -44.333 -26.5 -61s-38.5 -25 -62.5 -25c-23.333 0 -43.833 8.5 -61.5 25.5z" />
    <glyph glyph-name="ring" unicode="&#x2da;" horiz-adv-x="215" 
d="M31 580c-20.667 20 -31 44.667 -31 74s10.333 54 31 74s46.334 30 77.001 30s56.167 -10 76.5 -30s30.5 -44.667 30.5 -74s-10.167 -54 -30.5 -74s-45.833 -30 -76.5 -30s-56.334 10 -77.001 30zM131.5 630c6.33301 6 9.49902 14 9.49902 24s-3.16699 18 -9.5 24
s-14.166 9 -23.499 9s-17.166 -3 -23.499 -9s-9.5 -14 -9.5 -24s3 -18 9 -24s14 -9 24 -9c9.33301 0 17.166 3 23.499 9z" />
    <glyph glyph-name="ogonek" unicode="&#x2db;" horiz-adv-x="250" 
d="M136 -204c-34.667 0 -66.002 9.16699 -94.002 27.5s-42 46.5 -42 84.5c0 27.333 7.33301 50.666 22 69.999s33.334 33.833 56.001 43.5s45 14.5 67 14.5l105 -36c-41.333 0 -73.166 -7.33301 -95.499 -22s-33.5 -31.667 -33.5 -51c0 -11.333 3.66699 -20.166 11 -26.499
s16.666 -9.5 27.999 -9.5c8.66699 0 18 2 28 6v-90c-13.333 -7.33301 -30.666 -11 -51.999 -11z" />
    <glyph glyph-name="tilde" unicode="&#x2dc;" horiz-adv-x="373" 
d="M222.5 595c-13.667 6 -28.499 14.667 -44.499 26c-12.667 8.66699 -23.167 15 -31.5 19s-17.833 6 -28.5 6c-11.333 0 -19.833 -2.33301 -25.5 -7s-8.83398 -12.334 -9.50098 -23.001h-83c0 36 9 64.167 27 84.5s43 30.5 75 30.5c19.333 0 35.666 -2.83301 48.999 -8.5
s28.333 -14.167 45 -25.5c12.667 -8.66699 23.167 -15 31.5 -19s17.5 -6 27.5 -6c11.333 0 19.833 2.33301 25.5 7s8.83398 12.334 9.50098 23.001h83c0 -36 -8.83301 -64.333 -26.5 -85s-42.5 -31 -74.5 -31c-19.333 0 -35.833 3 -49.5 9z" />
    <glyph glyph-name="hungarumlaut" unicode="&#x2dd;" horiz-adv-x="441" 
d="M297 721h144l-104 -141h-144zM104 721h144l-104 -141h-144z" />
    <glyph glyph-name="uni0326" unicode="&#x326;" horiz-adv-x="0" 
d="M-182 -294c30.667 0 53.1641 2.00098 67.4971 6.00098s23.833 10.667 28.5 20s7.33398 24.333 8.00098 45c-34 0.666992 -61 10.5 -81 29.5s-30 41.5 -30 67.5c0 25.333 8.83301 46.5 26.5 63.5s39.834 25.5 66.501 25.5c32.667 0 59.334 -11.833 80.001 -35.5
s31 -60.834 31 -111.501c0 -61.333 -15.333 -107.333 -46 -138s-73 -46 -127 -46h-31v74h7z" />
    <glyph glyph-name="uni0394" unicode="&#x394;" horiz-adv-x="664" 
d="M332 713h1l316 -713h-633zM449 126l-116 295l-118 -295h234z" />
    <glyph glyph-name="uni03A9" unicode="&#x3a9;" horiz-adv-x="773" 
d="M634 132l84 0.00292969v-132h-278v171c41.333 16.667 72.833 42.334 94.5 77.001s32.5 72 32.5 112c0 35.333 -7.66699 67.166 -23 95.499s-36.833 50.833 -64.5 67.5s-58.834 25 -93.501 25s-65.667 -8.33301 -93 -25s-48.833 -39.334 -64.5 -68.001
s-23.5 -60.334 -23.5 -95.001c0 -40 11 -77.333 33 -112s53.667 -60.334 95 -77.001v-171h-278v132h84c-68.667 60 -103 136 -103 228c0 66.667 16.5 126.5 49.5 179.5s76.333 94.167 130 123.5s110.5 44 170.5 44c60.667 0 117.834 -14.667 171.501 -44
s97 -70.5 130 -123.5s49.5 -112.833 49.5 -179.5c0 -92 -34.333 -168 -103 -228z" />
    <glyph glyph-name="uni03BC" unicode="&#x3bc;" horiz-adv-x="612" 
d="M562 520v-520.001h-164v110h-7c-4 -18.667 -12.5 -37.167 -25.5 -55.5s-31 -33.666 -54 -45.999s-50.5 -18.5 -82.5 -18.5h-14v-180h-164v710h164v-292c0 -68.667 28.667 -103 86 -103c28 0 51.167 8.5 69.5 25.5s27.5 42.833 27.5 77.5v292h164z" />
    <glyph glyph-name="pi" unicode="&#x3c0;" horiz-adv-x="738" 
d="M703 145l0.000976562 -123c-8.66699 -9.33301 -23.167 -16.333 -43.5 -21s-41.5 -7 -63.5 -7c-44.667 0 -83.834 11.333 -117.501 34s-50.5 64 -50.5 124v228h-123v-380h-164v380h-100v140h651v-140h-99v-189c0 -22.667 4.5 -38.167 13.5 -46.5s22.5 -12.5 40.5 -12.5
c19.333 0 38 4.33301 56 13z" />
    <glyph glyph-name="uni0401" unicode="&#x401;" horiz-adv-x="573" 
d="M51 700h487v-146h-320v-136h290v-130h-290v-142h330v-146h-497v700zM118.5 775.5c-17.667 17 -26.5 37.167 -26.5 60.5c0 24 8.83301 44.5 26.5 61.5s38.167 25.5 61.5 25.5c24 0 44.833 -8.5 62.5 -25.5s26.5 -37.5 26.5 -61.5s-8.83301 -44.333 -26.5 -61
s-38.5 -25 -62.5 -25c-23.333 0 -43.833 8.5 -61.5 25.5zM371.5 775c-17.667 16.667 -26.5 37 -26.5 61s8.83301 44.5 26.5 61.5s38.5 25.5 62.5 25.5c23.333 0 43.833 -8.5 61.5 -25.5s26.5 -37.5 26.5 -61.5c0 -23.333 -8.83301 -43.5 -26.5 -60.5
s-38.167 -25.5 -61.5 -25.5c-24 0 -44.833 8.33301 -62.5 25z" />
    <glyph glyph-name="uni0403" unicode="&#x403;" horiz-adv-x="533" 
d="M51 700h461v-148h-290v-552h-171v700zM303 901h144l-104 -141h-144z" />
    <glyph glyph-name="uni0404" unicode="&#x404;" horiz-adv-x="696" 
d="M502 253h164.001c-6 -88 -36.333 -153.833 -91 -197.5s-124.667 -65.5 -210 -65.5c-66.667 0 -124.834 14.5 -174.501 43.5s-87.834 70.5 -114.501 124.5s-40 118 -40 192c0 73.333 13.333 137 40 191s64.834 95.5 114.501 124.5s107.834 43.5 174.501 43.5
c85.333 0 155.333 -21.833 210 -65.5s85 -109.167 91 -196.5h-164c-19.333 78 -65 117 -137 117c-82.667 0 -132.667 -47.333 -150 -142h180v-137h-181c6.66699 -46 22.167 -82.5 46.5 -109.5s59.166 -40.5 104.499 -40.5c72 0 117.667 39.333 137 118z" />
    <glyph glyph-name="uni0407" unicode="&#x407;" horiz-adv-x="269" 
d="M51 700h167v-700h-167v700zM-56.5 775.5c-17.667 17 -26.5 37.167 -26.5 60.5c0 24 8.83301 44.5 26.5 61.5s38.167 25.5 61.5 25.5c24 0 44.833 -8.5 62.5 -25.5s26.5 -37.5 26.5 -61.5s-8.83301 -44.333 -26.5 -61s-38.5 -25 -62.5 -25
c-23.333 0 -43.833 8.5 -61.5 25.5zM196.5 775c-17.667 16.667 -26.5 37 -26.5 61s8.83301 44.5 26.5 61.5s38.5 25.5 62.5 25.5c23.333 0 43.833 -8.5 61.5 -25.5s26.5 -37.5 26.5 -61.5c0 -23.333 -8.83301 -43.5 -26.5 -60.5s-38.167 -25.5 -61.5 -25.5
c-24 0 -44.833 8.33301 -62.5 25z" />
    <glyph glyph-name="uni040C" unicode="&#x40c;" horiz-adv-x="719" 
d="M511 0l-200 269l-93 -110v-159h-167v700h167v-315l261 315h197l-262 -310l290 -390h-193zM388 901h144l-104 -141h-144z" />
    <glyph glyph-name="uni040E" unicode="&#x40e;" horiz-adv-x="618" 
d="M124 131c20.667 0 36.999 2.5 48.999 7.5s20.333 10.5 25 16.5s9.33398 14 14.001 24c3.33301 8.66699 5 17.667 5 27c0 20 -7 47 -21 81l-175 413h189l97 -278l101 278h190l-220 -508c-23.333 -52.667 -45.833 -94.167 -67.5 -124.5s-46.5 -52.5 -74.5 -66.5
s-62 -21 -102 -21c-19.333 0 -34.333 0.666992 -45 2v151c17.333 -1.33301 29 -2 35 -2zM177.999 783c-30.667 28 -46 67.333 -46 118h109c2 -20.667 8.66699 -35.667 20 -45s27.666 -14 48.999 -14c20.667 0 36.667 4.66699 48 14s18 24.333 20 45h109
c0 -50.667 -15.167 -90 -45.5 -118s-74.166 -42 -131.499 -42s-101.333 14 -132 42z" />
    <glyph glyph-name="uni0410" unicode="&#x410;" horiz-adv-x="747" 
d="M555 0l-40 119h-283l-40 -119h-176l249 700h217l250 -700h-177zM273 243h201l-95 287h-10z" />
    <glyph glyph-name="uni0411" unicode="&#x411;" horiz-adv-x="640" 
d="M546.5 409c45 -42 67.5 -99.667 67.5 -173s-22.5 -131 -67.5 -173s-112.833 -63 -203.5 -63h-292v700h461v-148h-290v-80h121c90.667 0 158.5 -21 203.5 -63zM407.5 169c15.667 16 23.5 38.333 23.5 67c0 29.333 -7.83301 51.833 -23.5 67.5s-39.167 23.5 -70.5 23.5
h-115v-182h115c31.333 0 54.833 8 70.5 24z" />
    <glyph glyph-name="uni0412" unicode="&#x412;" horiz-adv-x="647" 
d="M341 700c77.333 0 135.332 -15.499 173.999 -46.499s58 -74.167 58 -129.5c0 -38 -8.33301 -68 -25 -90s-41.667 -38.333 -75 -49c99.333 -26.667 149 -86 149 -178c0 -60.667 -22.167 -110.334 -66.5 -149.001s-111.166 -58 -200.499 -58h-304v700h290zM383.999 436.501
c13.333 11.667 20 29.833 20 54.5c0 24 -6.66699 41.333 -20 52s-29.666 16 -48.999 16h-117v-140h117c19.333 0 35.666 5.83301 48.999 17.5zM424.999 165c15.333 16 23 36.333 23 61c0 26 -7.66699 47.167 -23 63.5s-40.666 24.5 -75.999 24.5h-131v-173h131
c35.333 0 60.666 8 75.999 24z" />
    <glyph glyph-name="uni0413" unicode="&#x413;" horiz-adv-x="533" 
d="M51 700h461v-148h-290v-552h-171v700z" />
    <glyph glyph-name="uni0414" unicode="&#x414;" horiz-adv-x="793" 
d="M767 140v-209h-164v69h-423v-69h-164v209h52c61.333 44 92 158.667 92 344v216h534v-560h73zM249 140l273 0.000976562v412h-191v-68c0 -182.667 -27.333 -297.334 -82 -344.001z" />
    <glyph glyph-name="uni0415" unicode="&#x415;" horiz-adv-x="573" 
d="M51 700h487v-146h-320v-136h290v-130h-290v-142h330v-146h-497v700z" />
    <glyph glyph-name="uni0416" unicode="&#x416;" horiz-adv-x="1052" 
d="M1036 0h-195l-229 275v-275h-172v275l-229 -275h-195l288 351l-287 349h195l228 -273v273h172v-273l228 273h195l-287 -349z" />
    <glyph glyph-name="uni0417" unicode="&#x417;" horiz-adv-x="603" 
d="M94.5 57c-43 44.667 -64.1689 106.333 -63.502 185h154c0.666992 -41.333 11.834 -70.666 33.501 -87.999s48.5 -26 80.5 -26c29.333 0 54.666 7 75.999 21s32 35.667 32 65c0 26 -9.33301 47 -28 63s-49 24 -91 24h-44v117h37c42.667 0 70.834 7.5 84.501 22.5
s20.5 32.833 20.5 53.5c0 25.333 -8.33301 44.166 -25 56.499s-36.667 18.5 -60 18.5c-26 0 -48.167 -7.66699 -66.5 -23s-27.833 -41.333 -28.5 -78h-153c0 75.333 21.333 134.333 64 177s105 64 187 64c48.667 0 91.167 -7.66699 127.5 -23s64.5 -37 84.5 -65
s30 -60.667 30 -98c0 -30.667 -6 -57 -18 -79s-26.667 -39 -44 -51s-34.666 -19.667 -51.999 -23c17.333 -1.33301 37 -7.66602 59 -18.999s41.167 -29.333 57.5 -54s24.5 -55.667 24.5 -93c0 -40.667 -11.333 -77.334 -34 -110.001s-55 -58.167 -97 -76.5
s-91.667 -27.5 -149 -27.5c-89.333 0 -155.5 22.333 -198.5 67z" />
    <glyph glyph-name="uni0418" unicode="&#x418;" horiz-adv-x="704" 
d="M654 0h-168v418h-4l-252 -418h-179v700h167v-429h4l258 429h174v-700z" />
    <glyph glyph-name="uni0419" unicode="&#x419;" horiz-adv-x="704" 
d="M220 783c-30.667 28 -46 67.333 -46 118h109c2 -20.667 8.66699 -35.667 20 -45s27.666 -14 48.999 -14c20.667 0 36.667 4.66699 48 14s18 24.333 20 45h109c0 -50.667 -15.167 -90 -45.5 -118s-74.166 -42 -131.499 -42s-101.333 14 -132 42zM654 0h-168v418h-4
l-252 -418h-179v700h167v-429h4l258 429h174v-700z" />
    <glyph glyph-name="uni041A" unicode="&#x41a;" horiz-adv-x="719" 
d="M511 0l-200 269l-93 -110v-159h-167v700h167v-315l261 315h197l-262 -310l290 -390h-193z" />
    <glyph glyph-name="uni041B" unicode="&#x41b;" horiz-adv-x="687" 
d="M86.5 156.5c16.333 11 24.502 35.167 24.502 72.5v471h526v-700h-172v552h-182v-332c0 -74.667 -20.333 -131.5 -61 -170.5s-96 -58.5 -166 -58.5c-8.66699 0 -22.334 0.666992 -41.001 2v148c31.333 -0.666992 55.166 4.5 71.499 15.5z" />
    <glyph glyph-name="uni041C" unicode="&#x41c;" horiz-adv-x="854" 
d="M51 700h212l164 -470l164 470h213v-700h-168v412h-6l-141 -412h-124l-141 412h-6v-412h-167v700z" />
    <glyph glyph-name="uni041D" unicode="&#x41d;" horiz-adv-x="685" 
d="M467 700h168v-700h-168v282h-249v-282h-167v700h167v-279h249v279z" />
    <glyph glyph-name="uni041E" unicode="&#x41e;" horiz-adv-x="748" 
d="M195.5 36c-51 30.667 -90.333 73.167 -118 127.5s-41.5 116.5 -41.5 186.5s13.833 132.167 41.5 186.5s67 96.666 118 126.999s110.5 45.5 178.5 45.5s127.667 -15.167 179 -45.5s90.833 -72.666 118.5 -126.999s41.5 -116.5 41.5 -186.5s-13.833 -132.167 -41.5 -186.5
s-67.167 -96.833 -118.5 -127.5s-111 -46 -179 -46s-127.5 15.333 -178.5 46zM496.5 194c28.333 39.333 42.5 91.333 42.5 156c0 65.333 -14.167 117.333 -42.5 156s-69.166 58 -122.499 58s-94.166 -19.333 -122.499 -58s-42.5 -90.667 -42.5 -156
c0 -64.667 14.167 -116.667 42.5 -156s69.166 -59 122.499 -59s94.166 19.667 122.499 59z" />
    <glyph glyph-name="uni041F" unicode="&#x41f;" horiz-adv-x="685" 
d="M51 700h584v-700h-172v552h-241v-552h-171v700z" />
    <glyph glyph-name="uni0420" unicode="&#x420;" horiz-adv-x="640" 
d="M341 700c92 0 160.5 -21.5 205.5 -64.5s67.5 -100.833 67.5 -173.5s-22.5 -130.667 -67.5 -174s-113.5 -65 -205.5 -65h-123v-223h-167v700h290zM415 394c17.333 16.667 26 39.333 26 68s-8.66699 51.167 -26 67.5s-44 24.5 -80 24.5h-117v-185h117
c36 0 62.667 8.33301 80 25z" />
    <glyph glyph-name="uni0421" unicode="&#x421;" horiz-adv-x="696" 
d="M190.5 33.5c-49.667 29 -87.832 70.5 -114.499 124.5s-40 118 -40 192c0 73.333 13.333 137 40 191s64.834 95.5 114.501 124.5s107.834 43.5 174.501 43.5c85.333 0 155.333 -21.833 210 -65.5s85 -109.167 91 -196.5h-164c-19.333 78 -65 117 -137 117
c-54.667 0 -94.334 -19.667 -119.001 -59s-37 -91 -37 -155c0 -64.667 12.167 -116.667 36.5 -156s64.166 -59 119.499 -59c72 0 117.667 39.333 137 118h164c-6 -88 -36.333 -153.833 -91 -197.5s-124.667 -65.5 -210 -65.5c-66.667 0 -124.834 14.5 -174.501 43.5z" />
    <glyph glyph-name="uni0422" unicode="&#x422;" horiz-adv-x="606" 
d="M219 554h-198v146h565v-146h-199v-554h-168v554z" />
    <glyph glyph-name="uni0423" unicode="&#x423;" horiz-adv-x="618" 
d="M124 131c20.667 0 36.999 2.5 48.999 7.5s20.333 10.5 25 16.5s9.33398 14 14.001 24c3.33301 8.66699 5 17.667 5 27c0 20 -7 47 -21 81l-175 413h189l97 -278l101 278h190l-220 -508c-23.333 -52.667 -45.833 -94.167 -67.5 -124.5s-46.5 -52.5 -74.5 -66.5
s-62 -21 -102 -21c-19.333 0 -34.333 0.666992 -45 2v151c17.333 -1.33301 29 -2 35 -2z" />
    <glyph glyph-name="uni0424" unicode="&#x424;" horiz-adv-x="744" 
d="M641.5 162c-44.333 -50 -105.5 -82 -183.5 -96v-81h-172v81c-78 14 -139.167 46 -183.5 96s-66.5 112.667 -66.5 188c0 76 22 139 66 189s105.333 81.667 184 95v81h172v-81c78.667 -14 140 -46 184 -96s66 -112.667 66 -188s-22.167 -138 -66.5 -188zM221 261
c14 -25.333 35.667 -44.333 65 -57v292c-29.333 -12 -51 -30.667 -65 -56s-21 -55.333 -21 -90c0 -34 7 -63.667 21 -89zM522.5 261c14.333 25.333 21.5 55 21.5 89c0 34.667 -7 64.5 -21 89.5s-35.667 43.833 -65 56.5v-291c28.667 12 50.167 30.667 64.5 56z" />
    <glyph glyph-name="uni0425" unicode="&#x425;" horiz-adv-x="687" 
d="M672 0h-189l-139 215l-140 -215h-188l234 360l-221 340h188l127 -195l126 195h188l-220 -340z" />
    <glyph glyph-name="uni0426" unicode="&#x426;" horiz-adv-x="726" 
d="M635 148h76v-289h-164v141h-496v700h171v-552h241v552h172v-552z" />
    <glyph glyph-name="uni0427" unicode="&#x427;" horiz-adv-x="667" 
d="M617 700l-0.000976562 -699.999h-172v266c-7.33301 -15.333 -19.666 -31.833 -36.999 -49.5s-40.333 -33.334 -69 -47.001s-61.667 -20.5 -99 -20.5c-136 0 -204 79.333 -204 238v313h171v-306c0 -30 8.5 -53 25.5 -69s42.167 -24 75.5 -24c26.667 0 50 5.5 70 16.5
s35.667 24 47 39s18 28.167 20 39.5v304h172z" />
    <glyph glyph-name="uni0428" unicode="&#x428;" horiz-adv-x="851" 
d="M51 700h171v-552h118v552h172v-552h117v552h172v-700h-750v700z" />
    <glyph glyph-name="uni0429" unicode="&#x429;" horiz-adv-x="889" 
d="M801 148h72v-289h-163v141h-659v700h171v-552h118v552h172v-552h117v552h172v-552z" />
    <glyph glyph-name="uni042A" unicode="&#x42a;" horiz-adv-x="694" 
d="M601 409c45.333 -42 68 -99.667 68 -173s-22.667 -131 -68 -173s-114.666 -63 -207.999 -63h-288v552h-89v148h261v-228h116c93.333 0 162.666 -21 207.999 -63zM461.5 168.5c15.667 15.667 23.5 38.167 23.5 67.5s-7.83301 51.833 -23.5 67.5s-38.834 23.5 -69.501 23.5
h-115v-182h115c30.667 0 53.834 7.83301 69.501 23.5z" />
    <glyph glyph-name="uni042B" unicode="&#x42b;" horiz-adv-x="904" 
d="M546 409c45.333 -42 68 -99.667 68 -173s-22.667 -131 -68 -173s-114.333 -63 -207 -63h-288v700h171v-228h117c92.667 0 161.667 -21 207 -63zM407.5 169c15.667 16 23.5 38.333 23.5 67c0 29.333 -7.83301 51.833 -23.5 67.5s-39.167 23.5 -70.5 23.5h-115v-182h115
c31.333 0 54.833 8 70.5 24zM686 700h167v-700h-167v700z" />
    <glyph glyph-name="uni042C" unicode="&#x42c;" horiz-adv-x="640" 
d="M546 409c45.333 -42 68 -99.667 68 -173s-22.667 -131 -68 -173s-114.333 -63 -207 -63h-288v700h171v-228h117c92.667 0 161.667 -21 207 -63zM407.5 169c15.667 16 23.5 38.333 23.5 67c0 29.333 -7.83301 51.833 -23.5 67.5s-39.167 23.5 -70.5 23.5h-115v-182h115
c31.333 0 54.833 8 70.5 24z" />
    <glyph glyph-name="uni042D" unicode="&#x42d;" horiz-adv-x="694" 
d="M503.5 665.5c49.667 -29 87.835 -70.5 114.502 -124.5s40 -117.667 40 -191c0 -74 -13.333 -138 -40 -192s-64.834 -95.5 -114.501 -124.5s-107.834 -43.5 -174.501 -43.5c-85.333 0 -155.333 21.833 -210 65.5s-85 109.5 -91 197.5h164c19.333 -78.667 65 -118 137 -118
c45.333 0 80.166 13.5 104.499 40.5s39.833 63.5 46.5 109.5h-181v137h180c-17.333 94.667 -67.333 142 -150 142c-72 0 -117.667 -39 -137 -117h-164c6 87.333 36.333 152.833 91 196.5s124.667 65.5 210 65.5c66.667 0 124.834 -14.5 174.501 -43.5z" />
    <glyph glyph-name="uni042E" unicode="&#x42e;" horiz-adv-x="1018" 
d="M822.5 663.5c51 -30.333 90.334 -72.666 118.001 -126.999s41.5 -116.5 41.5 -186.5s-13.833 -132.167 -41.5 -186.5s-67 -96.833 -118 -127.5s-110.5 -46 -178.5 -46c-60.667 0 -114.667 12.167 -162 36.5s-85.666 58.5 -114.999 102.5s-48.333 95 -57 153h-92v-282
h-167v700h167v-279h92c9.33301 57.333 28.666 107.666 57.999 150.999s67.666 77 114.999 101s101 36 161 36c68 0 127.5 -15.167 178.5 -45.5zM765.501 194c28.333 39.333 42.5 91.333 42.5 156c0 65.333 -14.167 117.333 -42.5 156s-68.833 58 -121.5 58
c-53.333 0 -94.166 -19.333 -122.499 -58s-42.5 -90.667 -42.5 -156c0 -64.667 14.167 -116.667 42.5 -156s69.166 -59 122.499 -59c52.667 0 93.167 19.667 121.5 59z" />
    <glyph glyph-name="uni042F" unicode="&#x42f;" horiz-adv-x="647" 
d="M597 700v-699.999h-168v223h-111l-126 -223h-166l143 246c-45.333 18 -79.333 45.667 -102 83s-34 81.666 -34 132.999c0 72.667 22.5 130.5 67.5 173.5s113.5 64.5 205.5 64.5h291zM429 554.001l-117 0.000976562c-36 0 -62.5 -8.16699 -79.5 -24.5
s-25.5 -38.833 -25.5 -67.5s8.5 -51.334 25.5 -68.001s43.5 -25 79.5 -25h117v185z" />
    <glyph glyph-name="uni0430" unicode="&#x430;" horiz-adv-x="563" 
d="M519.5 116c5 -4.66699 14.1641 -7.66699 27.4971 -9v-96c-12 -11.333 -34.333 -17 -67 -17c-35.333 0 -64.833 7.66699 -88.5 23s-35.5 40 -35.5 74v-2h-6c-1.33301 -10.667 -7.66602 -23.834 -18.999 -39.501s-28.666 -29.5 -51.999 -41.5s-52 -18 -86 -18
c-46 0 -85.333 11.833 -118 35.5s-49 60.5 -49 110.5c0 52 16.833 88.167 50.5 108.5s76.834 33.5 129.501 39.5l97 13c14 1.33301 24.167 3.83301 30.5 7.5s10.333 8.66699 12 15s2.5 16.5 2.5 30.5c0 24 -5.83301 40 -17.5 48s-27.5 12 -47.5 12
c-21.333 0 -38.833 -4 -52.5 -12s-20.5 -23.333 -20.5 -46v-4l-154 -2v22c0 52.667 18.5 92.834 55.5 120.501s95.833 41.5 176.5 41.5c79.333 0 136.5 -14 171.5 -42s52.5 -70.667 52.5 -128v-210c0 -18 2.5 -29.333 7.5 -34zM347.997 226
c-4 -3.33301 -9.16797 -5.83203 -15.501 -7.49902s-15.833 -3.5 -28.5 -5.5l-57 -8c-18.667 -4 -33.167 -9.33301 -43.5 -16s-15.5 -17.334 -15.5 -32.001c0 -12.667 4.83301 -24 14.5 -34s27.834 -15 54.501 -15c29.333 0 51.833 7.5 67.5 22.5s23.5 32.167 23.5 51.5v44z
" />
    <glyph glyph-name="uni0431" unicode="&#x431;" horiz-adv-x="587" 
d="M177.5 21.5c-39.667 20.333 -73.1621 54.666 -100.495 102.999s-41 112.5 -41 192.5v105c-0.666992 96 19.166 166.333 59.499 211s100.166 67 179.499 67h24c21.333 0 37.666 1.83301 48.999 5.5s20.666 9.16699 27.999 16.5h145
c-13.333 -54.667 -34.5 -93.167 -63.5 -115.5s-72.5 -33.5 -130.5 -33.5h-52c-26 0 -46.333 -9.16699 -61 -27.5s-22 -39.833 -22 -64.5v-19c1.33301 7.33301 8.16602 15.5 20.499 24.5s28.333 16.833 48 23.5s41.167 10 64.5 10c36 0 72 -8.83301 108 -26.5
s66.333 -46.167 91 -85.5s37 -89.666 37 -150.999c0 -64 -13.5 -115.833 -40.5 -155.5s-60.5 -68 -100.5 -85s-80.333 -25.5 -121 -25.5c-41.333 0 -81.833 10.167 -121.5 30.5zM377.005 155.5c20 22.333 30 56.166 30 101.499c0 46.667 -10.167 81.834 -30.5 105.501
s-45.5 35.5 -75.5 35.5c-30.667 0 -56.167 -11.833 -76.5 -35.5s-30.5 -59.167 -30.5 -106.5c0 -46 10 -79.833 30 -101.5s45.667 -32.5 77 -32.5c30.667 0 56 11.167 76 33.5z" />
    <glyph glyph-name="uni0432" unicode="&#x432;" horiz-adv-x="602" 
d="M331 520c60.667 0 109.667 -11 147 -33s56 -55.333 56 -100c0 -22 -5.66699 -41.667 -17 -59s-29.666 -30.333 -54.999 -39c35.333 -10 63.166 -26.833 83.499 -50.5s30.5 -52.5 30.5 -86.5c0 -35.333 -10.333 -64.333 -31 -87s-47 -39.167 -79 -49.5
s-65 -15.5 -99 -15.5h-316v520h280zM383 353c0 24.667 -17 37 -51 37h-117v-75h115c35.333 0 53 12.667 53 38zM396.5 145c11 9.33301 16.5 20.333 16.5 33s-5.5 23.5 -16.5 32.5s-31.167 13.5 -60.5 13.5h-121v-93h123c28 0 47.5 4.66699 58.5 14z" />
    <glyph glyph-name="uni0433" unicode="&#x433;" horiz-adv-x="448" 
d="M51 520h381v-127h-217v-393h-164v520z" />
    <glyph glyph-name="uni0434" unicode="&#x434;" horiz-adv-x="675" 
d="M659 127v-176.998h-148v50h-347v-50h-148v177h50c20.667 19.333 34 47.166 40 83.499s9 87.166 9 152.499v157h492v-393h52zM443 127.002v266h-164v-30c0 -61.333 -3.83301 -111 -11.5 -149s-22.5 -67 -44.5 -87h220z" />
    <glyph glyph-name="uni0435" unicode="&#x435;" horiz-adv-x="568" 
d="M540 218l-359.003 -0.000976562c4.66699 -39.333 17 -67.5 37 -84.5s47.667 -25.5 83 -25.5c28.667 0 49.334 5.33301 62.001 16s22.334 26.667 29.001 48h144c-12 -59.333 -39.5 -105.166 -82.5 -137.499s-97.167 -48.5 -162.5 -48.5c-46.667 0 -90 9 -130 27
s-72.5 47.333 -97.5 88s-37.5 93 -37.5 157c0 92.667 25 161.167 75 205.5s113.333 66.5 190 66.5c74.667 0 135.334 -22.167 182.001 -66.5s70 -114.833 70 -211.5c0 -10.667 -1 -22 -3 -34zM387.997 304.999c-2 30 -10.667 54.333 -26 73s-40.333 28 -75 28
c-31.333 0 -56 -8.66699 -74 -26s-28.667 -42.333 -32 -75h207z" />
    <glyph glyph-name="uni0436" unicode="&#x436;" horiz-adv-x="923" 
d="M918 0h-203l-171 183v-183h-164v184l-172 -184h-202l247 256l-243 264h202l168 -189v189h164v-188l167 188h203l-244 -264z" />
    <glyph glyph-name="uni0437" unicode="&#x437;" horiz-adv-x="547" 
d="M26 204l144.998 -0.000976562c0 -30 8 -53.5 24 -70.5s41.333 -25.5 76 -25.5c26 0 46.333 5 61 15s22 23.667 22 41c0 18 -8.16699 33.167 -24.5 45.5s-45.166 18.833 -86.499 19.5v81c38.667 0 64 5.16699 76 15.5s18 22.5 18 36.5c0 16.667 -6.66699 28.667 -20 36
s-29.666 11 -48.999 11c-24 0 -43.167 -6.16699 -57.5 -18.5s-21.5 -30.833 -21.5 -55.5h-147c0 63.333 19.5 111.166 58.5 143.499s94.833 48.5 167.5 48.5c64.667 0 117.834 -12.667 159.501 -38s62.5 -62 62.5 -110c0 -24.667 -5.33301 -44.5 -16 -59.5
s-20.834 -25 -30.501 -30s-22.167 -10.5 -37.5 -16.5c16 -4 31.167 -9.16699 45.5 -15.5s28.833 -18.166 43.5 -35.499s22 -40.333 22 -69c0 -51.333 -23.667 -91.166 -71 -119.499s-107.333 -42.5 -180 -42.5c-160 0 -240 71 -240 213z" />
    <glyph glyph-name="uni0438" unicode="&#x438;" horiz-adv-x="621" 
d="M51 520h164v-288h3l188 288h165v-520h-164v277h-4l-181 -277h-171v520z" />
    <glyph glyph-name="uni0439" unicode="&#x439;" horiz-adv-x="621" 
d="M51 520h164v-288h3l188 288h165v-520h-164v277h-4l-181 -277h-171v520zM180 603c-30.667 28 -46 67.333 -46 118h109c2 -20.667 8.66699 -35.667 20 -45s27.666 -14 48.999 -14c20.667 0 36.667 4.66699 48 14s18 24.333 20 45h109c0 -50.667 -15.167 -90 -45.5 -118
s-74.166 -42 -131.499 -42s-101.333 14 -132 42z" />
    <glyph glyph-name="uni043A" unicode="&#x43a;" horiz-adv-x="593" 
d="M410 0l-155 190l-40 -43v-147h-164v520h164v-182l160 182h184l-204 -222l233 -298h-178z" />
    <glyph glyph-name="uni043B" unicode="&#x43b;" horiz-adv-x="631" 
d="M88 144.5c18 14.333 27 41.501 27 81.501v294h466v-520h-156l-6 393h-140v-176c0 -74 -19.5 -129.667 -58.5 -167s-92.5 -56 -160.5 -56c-14 0 -29 1 -45 3v127c30.667 -0.666992 55 6.16602 73 20.499z" />
    <glyph glyph-name="uni043C" unicode="&#x43c;" horiz-adv-x="756" 
d="M51 520h193l134 -328l134 328h194v-520h-164v268h-5l-100 -268h-118l-100 268h-4v-268h-164v520z" />
    <glyph glyph-name="uni043D" unicode="&#x43d;" horiz-adv-x="586" 
d="M51 520h164v-185h157v185h164v-520h-164v207h-157v-207h-164v520z" />
    <glyph glyph-name="uni043E" unicode="&#x43e;" horiz-adv-x="579" 
d="M160 19c-40 19.333 -72.333 49.166 -97 89.499s-37 90.833 -37 151.5s12.333 111.167 37 151.5s57 70.166 97 89.499s83.333 29 130 29c46 0 89 -9.66699 129 -29s72.5 -49.166 97.5 -89.499s37.5 -90.833 37.5 -151.5s-12.5 -111.167 -37.5 -151.5
s-57.5 -70.166 -97.5 -89.499s-83 -29 -129 -29c-46.667 0 -90 9.66699 -130 29zM370 160c20 22.667 30 56 30 100s-10 77.333 -30 100s-46.667 34 -80 34s-60.166 -11.333 -80.499 -34s-30.5 -56 -30.5 -100s10.167 -77.333 30.5 -100s47.166 -34 80.499 -34
s60 11.333 80 34z" />
    <glyph glyph-name="uni043F" unicode="&#x43f;" horiz-adv-x="577" 
d="M51 520h476v-520h-164v393h-148v-393h-164v520z" />
    <glyph glyph-name="uni0440" unicode="&#x440;" 
d="M215 520v-70c7.33301 21.333 24.166 40 50.499 56s57.5 24 93.5 24c38 0 74.167 -9.66699 108.5 -29s62.5 -49.166 84.5 -89.499s33 -90.833 33 -151.5s-11 -111.334 -33 -152.001s-50.167 -70.5 -84.5 -89.5s-70.5 -28.5 -108.5 -28.5c-36 0 -67.167 8 -93.5 24
s-43.166 34.667 -50.499 56v-260h-164v710h164zM398 160.5c22 23 33 56.167 33 99.5s-11 76.5 -33 99.5s-48.667 34.5 -80 34.5c-30.667 0 -56.667 -11.5 -78 -34.5s-32 -56.167 -32 -99.5s10.667 -76.5 32 -99.5s47.333 -34.5 78 -34.5c31.333 0 58 11.5 80 34.5z" />
    <glyph glyph-name="uni0441" unicode="&#x441;" horiz-adv-x="563" 
d="M162 17.5c-40 18.333 -72.666 47.502 -97.999 87.502s-38 91.333 -38 154c0 63.333 12.667 115.166 38 155.499s57.833 69.666 97.5 87.999s82.5 27.5 128.5 27.5c59.333 0 112.5 -15.833 159.5 -47.5s74.833 -88.5 83.5 -170.5h-145c-10.667 54.667 -43.667 82 -99 82
c-37.333 0 -65 -12.333 -83 -37s-27 -57.334 -27 -98.001c0 -39.333 9 -71.333 27 -96s45.667 -37 83 -37c54.667 0 87.667 27.667 99 83h145c-6.66699 -81.333 -33.834 -138.166 -81.501 -170.499s-101.5 -48.5 -161.5 -48.5c-45.333 0 -88 9.16699 -128 27.5z" />
    <glyph glyph-name="uni0442" unicode="&#x442;" horiz-adv-x="545" 
d="M515 520v-127h-160v-393h-164v393h-161v127h485z" />
    <glyph glyph-name="uni0443" unicode="&#x443;" horiz-adv-x="591" 
d="M110 -67c31.333 0 53.999 4.66797 67.999 14.001s24 20.666 30 33.999c5.33301 12 8 22.333 8 31c0 9.33301 -3.66699 23 -11 41l-189 467h167l111 -311l114 311h168l-210 -514c-21.333 -52 -42.833 -93.167 -64.5 -123.5s-47 -52.5 -76 -66.5s-64.167 -21 -105.5 -21
c-15.333 0 -32.666 1 -51.999 3v138c16 -2 30 -3 42 -3z" />
    <glyph glyph-name="uni0444" unicode="&#x444;" horiz-adv-x="622" 
d="M537 83.5c-39.333 -43 -88.666 -71.165 -147.999 -84.498v-189h-154v190c-60 13.333 -109.833 41.166 -149.5 83.499s-59.5 100.166 -59.5 173.499c0 74 20 132.667 60 176s89.667 71.666 149 84.999v182h154v-182c59.333 -14 108.666 -42.667 147.999 -86
s59 -101.666 59 -174.999c0 -72.667 -19.667 -130.5 -59 -173.5zM235 124.002v269c-50.667 -20.667 -76 -66 -76 -136c0 -68 25.333 -112.333 76 -133zM463 257.002c0 69.333 -24.667 114.333 -74 135v-267c49.333 20.667 74 64.667 74 132z" />
    <glyph glyph-name="uni0445" unicode="&#x445;" horiz-adv-x="595" 
d="M204 263l-166 257h176l84 -140l83 140h176l-166 -257l179 -263h-176l-96 145l-97 -145h-175z" />
    <glyph glyph-name="uni0446" unicode="&#x446;" horiz-adv-x="649" 
d="M527 127h71v-267h-156v140h-391v520h164v-393h148v393h164v-393z" />
    <glyph glyph-name="uni0447" unicode="&#x447;" horiz-adv-x="588" 
d="M537 520l0.00292969 -519.998h-164v228c-2.66699 -14.667 -10.334 -29.334 -23.001 -44.001s-30.334 -26.834 -53.001 -36.501s-49.334 -14.5 -80.001 -14.5c-56 0 -101.833 16.667 -137.5 50s-53.5 85 -53.5 155v182h164v-162c0 -30 8.33301 -52.5 25 -67.5
s38.667 -22.5 66 -22.5c28.667 0 51.167 8.5 67.5 25.5s24.5 38.5 24.5 64.5v162h164z" />
    <glyph glyph-name="uni0448" unicode="&#x448;" horiz-adv-x="808" 
d="M51 520h164v-393h112v393h154v-393h113v393h164v-520h-707v520z" />
    <glyph glyph-name="uni0449" unicode="&#x449;" horiz-adv-x="880" 
d="M758 127h72v-267h-156v140h-623v520h164v-393h112v393h154v-393h113v393h164v-393z" />
    <glyph glyph-name="uni044A" unicode="&#x44a;" horiz-adv-x="641" 
d="M560 303c37.333 -32 56 -74.667 56 -128c0 -54.667 -18.5 -97.5 -55.5 -128.5s-88.833 -46.5 -155.5 -46.5h-299v393h-90v127h254v-169h135c66 0 117.667 -16 155 -48zM442.5 139.5c10.333 8.33301 15.5 20.168 15.5 35.501s-5.16699 27.166 -15.5 35.499
s-24.833 12.5 -43.5 12.5h-129v-96h129c18.667 0 33.167 4.16699 43.5 12.5z" />
    <glyph glyph-name="uni044B" unicode="&#x44b;" horiz-adv-x="834" 
d="M215 520v-169h135c66 0 117.667 -16 155 -48s56 -74.667 56 -128c0 -54.667 -18.5 -97.5 -55.5 -128.5s-88.833 -46.5 -155.5 -46.5h-299v520h164zM387.5 139.5c10.333 8.33301 15.5 20.168 15.5 35.501s-5.16699 27.166 -15.5 35.499s-24.833 12.5 -43.5 12.5h-129v-96
h129c18.667 0 33.167 4.16699 43.5 12.5zM619 520.002h164v-520h-164v520z" />
    <glyph glyph-name="uni044C" unicode="&#x44c;" horiz-adv-x="586" 
d="M215 520v-169h135c66 0 117.667 -16 155 -48s56 -74.667 56 -128c0 -54.667 -18.5 -97.5 -55.5 -128.5s-88.833 -46.5 -155.5 -46.5h-299v520h164zM387.5 139.5c10.333 8.33301 15.5 20.168 15.5 35.501s-5.16699 27.166 -15.5 35.499s-24.833 12.5 -43.5 12.5h-129v-96
h129c18.667 0 33.167 4.16699 43.5 12.5z" />
    <glyph glyph-name="uni044D" unicode="&#x44d;" horiz-adv-x="559" 
d="M397 502.5c40 -18.333 72.668 -47.8311 98.001 -88.498s38 -92.334 38 -155.001s-12.667 -114 -38 -154s-58 -69.167 -98 -87.5s-82.667 -27.5 -128 -27.5c-60 0 -113.833 16.167 -161.5 48.5s-74.834 89.166 -81.501 170.499h144c12 -55.333 45.333 -83 100 -83
c29.333 0 52.5 7.5 69.5 22.5s28.833 35.833 35.5 62.5h-134v99h133c-6.66699 26 -18.5 46.5 -35.5 61.5s-39.833 22.5 -68.5 22.5c-54.667 0 -88 -27.333 -100 -82h-144c8.66699 82 36.5 138.833 83.5 170.5s100.167 47.5 159.5 47.5c45.333 0 88 -9.16699 128 -27.5z" />
    <glyph glyph-name="uni044E" unicode="&#x44e;" horiz-adv-x="814" 
d="M654 501c40 -19.333 72.5 -49.168 97.5 -89.501s37.5 -90.833 37.5 -151.5s-12.5 -111.167 -37.5 -151.5s-57.5 -70.166 -97.5 -89.499s-83 -29 -129 -29c-63.333 0 -119.166 17.167 -167.499 51.5s-78.833 85.833 -91.5 154.5h-58v-196h-164v520h164v-196h58
c12.667 68.667 43.167 120.167 91.5 154.5s104.166 51.5 167.499 51.5c46 0 89 -9.66699 129 -29zM605 159.998c20 22.667 30 56 30 100s-10 77.333 -30 100s-46.667 34 -80 34s-60.166 -11.333 -80.499 -34s-30.5 -56 -30.5 -100s10.167 -77.333 30.5 -100
s47.166 -34 80.499 -34s60 11.333 80 34z" />
    <glyph glyph-name="uni044F" unicode="&#x44f;" horiz-adv-x="591" 
d="M541 520l-0.000976562 -520h-164v169h-56l-113 -169h-172l123 179c-40.667 12 -72.167 32.5 -94.5 61.5s-33.5 63.833 -33.5 104.5c0 54.667 18.333 97.5 55 128.5s88.334 46.5 155.001 46.5h300zM376.999 393l-130 -0.00195312c-18.667 0 -33.167 -4.16699 -43.5 -12.5
s-15.5 -20.166 -15.5 -35.499s5.16699 -27.166 15.5 -35.499s24.833 -12.5 43.5 -12.5h130v96z" />
    <glyph glyph-name="uni0451" unicode="&#x451;" horiz-adv-x="568" 
d="M540 218l-359.003 -0.000976562c4.66699 -39.333 17 -67.5 37 -84.5s47.667 -25.5 83 -25.5c28.667 0 49.334 5.33301 62.001 16s22.334 26.667 29.001 48h144c-12 -59.333 -39.5 -105.166 -82.5 -137.499s-97.167 -48.5 -162.5 -48.5c-46.667 0 -90 9 -130 27
s-72.5 47.333 -97.5 88s-37.5 93 -37.5 157c0 92.667 25 161.167 75 205.5s113.333 66.5 190 66.5c74.667 0 135.334 -22.167 182.001 -66.5s70 -114.833 70 -211.5c0 -10.667 -1 -22 -3 -34zM387.997 304.999c-2 30 -10.667 54.333 -26 73s-40.333 28 -75 28
c-31.333 0 -56 -8.66699 -74 -26s-28.667 -42.333 -32 -75h207zM92.4971 595.499c-17.667 17 -26.5 37.167 -26.5 60.5c0 24 8.83301 44.5 26.5 61.5s38.167 25.5 61.5 25.5c24 0 44.833 -8.5 62.5 -25.5s26.5 -37.5 26.5 -61.5s-8.83301 -44.333 -26.5 -61
s-38.5 -25 -62.5 -25c-23.333 0 -43.833 8.5 -61.5 25.5zM345.497 594.999c-17.667 16.667 -26.5 37 -26.5 61s8.83301 44.5 26.5 61.5s38.5 25.5 62.5 25.5c23.333 0 43.833 -8.5 61.5 -25.5s26.5 -37.5 26.5 -61.5c0 -23.333 -8.83301 -43.5 -26.5 -60.5
s-38.167 -25.5 -61.5 -25.5c-24 0 -44.833 8.33301 -62.5 25z" />
    <glyph glyph-name="uni0453" unicode="&#x453;" horiz-adv-x="448" 
d="M51 520h381v-127h-217v-393h-164v520zM253 721h144l-104 -141h-144z" />
    <glyph glyph-name="uni0454" unicode="&#x454;" horiz-adv-x="563" 
d="M388 209l145.001 0.000976562c-6.66699 -81.333 -33.834 -138.166 -81.501 -170.499s-101.5 -48.5 -161.5 -48.5c-45.333 0 -88 9.16699 -128 27.5s-72.667 47.5 -98 87.5s-38 91.333 -38 154c0 63.333 12.667 115.166 38 155.499s57.833 69.666 97.5 87.999
s82.5 27.5 128.5 27.5c59.333 0 112.5 -15.833 159.5 -47.5s74.833 -88.5 83.5 -170.5h-145c-10.667 54.667 -43.667 82 -99 82c-28.667 0 -51.5 -7.5 -68.5 -22.5s-28.833 -35.5 -35.5 -61.5h133v-99h-134c6.66699 -26.667 18.5 -47.5 35.5 -62.5s40.167 -22.5 69.5 -22.5
c54.667 0 87.667 27.667 99 83z" />
    <glyph glyph-name="uni0457" unicode="&#x457;" horiz-adv-x="252" 
d="M44 520h164v-520h-164v520zM-64.5 595.5c-17.667 17 -26.5 37.167 -26.5 60.5c0 24 8.83301 44.5 26.5 61.5s38.167 25.5 61.5 25.5c24 0 44.833 -8.5 62.5 -25.5s26.5 -37.5 26.5 -61.5s-8.83301 -44.333 -26.5 -61s-38.5 -25 -62.5 -25
c-23.333 0 -43.833 8.5 -61.5 25.5zM188.5 595c-17.667 16.667 -26.5 37 -26.5 61s8.83301 44.5 26.5 61.5s38.5 25.5 62.5 25.5c23.333 0 43.833 -8.5 61.5 -25.5s26.5 -37.5 26.5 -61.5c0 -23.333 -8.83301 -43.5 -26.5 -60.5s-38.167 -25.5 -61.5 -25.5
c-24 0 -44.833 8.33301 -62.5 25z" />
    <glyph glyph-name="uni045C" unicode="&#x45c;" horiz-adv-x="593" 
d="M410 0l-155 190l-40 -43v-147h-164v520h164v-182l160 182h184l-204 -222l233 -298h-178zM323 721h144l-104 -141h-144z" />
    <glyph glyph-name="uni045E" unicode="&#x45e;" horiz-adv-x="591" 
d="M110 -67c31.333 0 53.999 4.66797 67.999 14.001s24 20.666 30 33.999c5.33301 12 8 22.333 8 31c0 9.33301 -3.66699 23 -11 41l-189 467h167l111 -311l114 311h168l-210 -514c-21.333 -52 -42.833 -93.167 -64.5 -123.5s-47 -52.5 -76 -66.5s-64.167 -21 -105.5 -21
c-15.333 0 -32.666 1 -51.999 3v138c16 -2 30 -3 42 -3zM162.999 603.001c-30.667 28 -46 67.333 -46 118h109c2 -20.667 8.66699 -35.667 20 -45s27.666 -14 48.999 -14c20.667 0 36.667 4.66699 48 14s18 24.333 20 45h109c0 -50.667 -15.167 -90 -45.5 -118
s-74.166 -42 -131.499 -42s-101.333 14 -132 42z" />
    <glyph glyph-name="uni0490" unicode="&#x490;" horiz-adv-x="533" 
d="M340 800h172v-248h-290v-552h-171v700h289v100z" />
    <glyph glyph-name="uni0491" unicode="&#x491;" horiz-adv-x="448" 
d="M292 586h140v-193h-217v-393h-164v520h241v66z" />
    <glyph glyph-name="Wgrave" unicode="&#x1e80;" horiz-adv-x="1026" 
d="M21 700h172l103 -463h6l125 463h172l125 -463h6l103 463h173l-181 -700h-174l-138 489l-138 -489h-174zM442 760l-103 141h144l103 -141h-144z" />
    <glyph glyph-name="wgrave" unicode="&#x1e81;" horiz-adv-x="837" 
d="M16 520h154l81 -362h4l93 362h141l93 -362h4l81 362h155l-136 -520h-184l-83 302l-83 -302h-185zM347 580l-103 141h144l103 -141h-144z" />
    <glyph glyph-name="Wacute" unicode="&#x1e82;" horiz-adv-x="1026" 
d="M21 700h172l103 -463h6l125 463h172l125 -463h6l103 463h173l-181 -700h-174l-138 489l-138 -489h-174zM540 901h144l-104 -141h-144z" />
    <glyph glyph-name="wacute" unicode="&#x1e83;" horiz-adv-x="837" 
d="M16 520h154l81 -362h4l93 362h141l93 -362h4l81 362h155l-136 -520h-184l-83 302l-83 -302h-185zM444 721h144l-104 -141h-144z" />
    <glyph glyph-name="Wdieresis" unicode="&#x1e84;" horiz-adv-x="1026" 
d="M21 700h172l103 -463h6l125 463h172l125 -463h6l103 463h173l-181 -700h-174l-138 489l-138 -489h-174zM322.5 775.5c-17.667 17 -26.5 37.167 -26.5 60.5c0 24 8.83301 44.5 26.5 61.5s38.167 25.5 61.5 25.5c24 0 44.833 -8.5 62.5 -25.5s26.5 -37.5 26.5 -61.5
s-8.83301 -44.333 -26.5 -61s-38.5 -25 -62.5 -25c-23.333 0 -43.833 8.5 -61.5 25.5zM575.5 775c-17.667 16.667 -26.5 37 -26.5 61s8.83301 44.5 26.5 61.5s38.5 25.5 62.5 25.5c23.333 0 43.833 -8.5 61.5 -25.5s26.5 -37.5 26.5 -61.5
c0 -23.333 -8.83301 -43.5 -26.5 -60.5s-38.167 -25.5 -61.5 -25.5c-24 0 -44.833 8.33301 -62.5 25z" />
    <glyph glyph-name="wdieresis" unicode="&#x1e85;" horiz-adv-x="837" 
d="M16 520h154l81 -362h4l93 362h141l93 -362h4l81 362h155l-136 -520h-184l-83 302l-83 -302h-185zM227.5 595.5c-17.667 17 -26.5 37.167 -26.5 60.5c0 24 8.83301 44.5 26.5 61.5s38.167 25.5 61.5 25.5c24 0 44.833 -8.5 62.5 -25.5s26.5 -37.5 26.5 -61.5
s-8.83301 -44.333 -26.5 -61s-38.5 -25 -62.5 -25c-23.333 0 -43.833 8.5 -61.5 25.5zM480.5 595c-17.667 16.667 -26.5 37 -26.5 61s8.83301 44.5 26.5 61.5s38.5 25.5 62.5 25.5c23.333 0 43.833 -8.5 61.5 -25.5s26.5 -37.5 26.5 -61.5
c0 -23.333 -8.83301 -43.5 -26.5 -60.5s-38.167 -25.5 -61.5 -25.5c-24 0 -44.833 8.33301 -62.5 25z" />
    <glyph glyph-name="uni1E9E" unicode="&#x1e9e;" horiz-adv-x="750" 
d="M308.5 47c-33.667 38 -50.501 93.668 -50.501 167.001h154c0 -52 20.667 -78 62 -78c21.333 0 36.666 7.5 45.999 22.5s14 34.5 14 58.5c0 30.667 -9.66699 54 -29 70s-51.666 24 -96.999 24h-125l143 252h-124c-28.667 0 -49.167 -6.33301 -61.5 -19
s-18.5 -32.667 -18.5 -60v-484h-171v503c0 70.667 19.167 123 57.5 157s96.5 51 174.5 51h380l-162 -266c60.667 -8.66699 111.334 -32.334 152.001 -71.001s61 -92.667 61 -162c0 -68 -20.5 -122 -61.5 -162s-100.833 -60 -179.5 -60c-76 0 -130.833 19 -164.5 57z" />
    <glyph glyph-name="Ygrave" unicode="&#x1ef2;" horiz-adv-x="719" 
d="M273 253l-252 447h191l148 -284l148 284h191l-253 -447v-253h-173v253zM289 760l-103 141h144l103 -141h-144z" />
    <glyph glyph-name="ygrave" unicode="&#x1ef3;" horiz-adv-x="591" 
d="M110 -67c31.333 0 53.999 4.66797 67.999 14.001s24 20.666 30 33.999c5.33301 12 8 22.333 8 31c0 9.33301 -3.66699 23 -11 41l-189 467h167l111 -311l114 311h168l-210 -514c-21.333 -52 -42.833 -93.167 -64.5 -123.5s-47 -52.5 -76 -66.5s-64.167 -21 -105.5 -21
c-15.333 0 -32.666 1 -51.999 3v138c16 -2 30 -3 42 -3zM222.999 580.001l-103 141h144l103 -141h-144z" />
    <glyph glyph-name="endash" unicode="&#x2013;" horiz-adv-x="600" 
d="M45 336h510v-122h-510v122z" />
    <glyph glyph-name="emdash" unicode="&#x2014;" horiz-adv-x="660" 
d="M45 336h570v-122h-570v122z" />
    <glyph glyph-name="quoteleft" unicode="&#x2018;" horiz-adv-x="270" 
d="M160 625c-14.667 -4 -24.3311 -10.834 -28.998 -20.501s-7.33398 -24.5 -8.00098 -44.5c34.667 -0.666992 62 -10.5 82 -29.5s30 -41.5 30 -67.5c0 -25.333 -9 -46.5 -27 -63.5s-40.333 -25.5 -67 -25.5c-32.667 0 -59.167 11.833 -79.5 35.5s-30.5 60.834 -30.5 111.501
c0 60.667 15.167 106.5 45.5 137.5s72.5 46.5 126.5 46.5h32v-74h-7c-30.667 0 -53.334 -2 -68.001 -6z" />
    <glyph glyph-name="quoteright" unicode="&#x2019;" horiz-adv-x="270" 
d="M43 452c30.667 0 53.1641 2.00098 67.4971 6.00098s23.833 10.667 28.5 20s7.33398 24.333 8.00098 45c-34 0.666992 -61 10.5 -81 29.5s-30 41.5 -30 67.5c0 25.333 8.83301 46.5 26.5 63.5s39.834 25.5 66.501 25.5c32.667 0 59.334 -11.833 80.001 -35.5
s31 -60.834 31 -111.501c0 -61.333 -15.333 -107.333 -46 -138s-73 -46 -127 -46h-31v74h7z" />
    <glyph glyph-name="quotesinglbase" unicode="&#x201a;" horiz-adv-x="275" 
d="M43 -77c30.667 0 53.1641 2.00098 67.4971 6.00098s23.833 10.667 28.5 20s7.33398 24.333 8.00098 45c-34 0.666992 -61 10.5 -81 29.5s-30 41.5 -30 67.5c0 25.333 8.83301 46.5 26.5 63.5s39.834 25.5 66.501 25.5c32.667 0 59.334 -11.833 80.001 -35.5
s31 -60.834 31 -111.501c0 -61.333 -15.333 -107.333 -46 -138s-73 -46 -127 -46h-31v74h7z" />
    <glyph glyph-name="quotedblleft" unicode="&#x201c;" horiz-adv-x="516" 
d="M160 625c-14.667 -4 -24.3311 -10.834 -28.998 -20.501s-7.33398 -24.5 -8.00098 -44.5c34.667 -0.666992 62 -10.5 82 -29.5s30 -41.5 30 -67.5c0 -25.333 -9 -46.5 -27 -63.5s-40.333 -25.5 -67 -25.5c-32.667 0 -59.167 11.833 -79.5 35.5s-30.5 60.834 -30.5 111.501
c0 60.667 15.167 106.5 45.5 137.5s72.5 46.5 126.5 46.5h32v-74h-7c-30.667 0 -53.334 -2 -68.001 -6zM406.003 624.999c-14.667 -4 -24.3311 -10.834 -28.998 -20.501s-7.33398 -24.5 -8.00098 -44.5c34.667 -0.666992 62 -10.5 82 -29.5s30 -41.5 30 -67.5
c0 -25.333 -9 -46.5 -27 -63.5s-40.333 -25.5 -67 -25.5c-32.667 0 -59.167 11.833 -79.5 35.5s-30.5 60.834 -30.5 111.501c0 60.667 15.167 106.5 45.5 137.5s72.5 46.5 126.5 46.5h32v-74h-7c-30.667 0 -53.334 -2 -68.001 -6z" />
    <glyph glyph-name="quotedblright" unicode="&#x201d;" horiz-adv-x="516" 
d="M289 452c30.667 0 53.1641 2.00098 67.4971 6.00098s23.833 10.667 28.5 20s7.33398 24.333 8.00098 45c-34 0.666992 -61 10.5 -81 29.5s-30 41.5 -30 67.5c0 25.333 8.83301 46.5 26.5 63.5s39.834 25.5 66.501 25.5c32.667 0 59.334 -11.833 80.001 -35.5
s31 -60.834 31 -111.501c0 -61.333 -15.333 -107.333 -46 -138s-73 -46 -127 -46h-31v74h7zM42.9971 452.001c30.667 0 53.1641 2.00098 67.4971 6.00098s23.833 10.667 28.5 20s7.33398 24.333 8.00098 45c-34 0.666992 -61 10.5 -81 29.5s-30 41.5 -30 67.5
c0 25.333 8.83301 46.5 26.5 63.5s39.834 25.5 66.501 25.5c32.667 0 59.334 -11.833 80.001 -35.5s31 -60.834 31 -111.501c0 -61.333 -15.333 -107.333 -46 -138s-73 -46 -127 -46h-31v74h7z" />
    <glyph glyph-name="quotedblbase" unicode="&#x201e;" horiz-adv-x="521" 
d="M289 -77c30.667 0 53.1641 2.00098 67.4971 6.00098s23.833 10.667 28.5 20s7.33398 24.333 8.00098 45c-34 0.666992 -61 10.5 -81 29.5s-30 41.5 -30 67.5c0 25.333 8.83301 46.5 26.5 63.5s39.834 25.5 66.501 25.5c32.667 0 59.334 -11.833 80.001 -35.5
s31 -60.834 31 -111.501c0 -61.333 -15.333 -107.333 -46 -138s-73 -46 -127 -46h-31v74h7zM42.9971 -76.999c30.667 0 53.1641 2.00098 67.4971 6.00098s23.833 10.667 28.5 20s7.33398 24.333 8.00098 45c-34 0.666992 -61 10.5 -81 29.5s-30 41.5 -30 67.5
c0 25.333 8.83301 46.5 26.5 63.5s39.834 25.5 66.501 25.5c32.667 0 59.334 -11.833 80.001 -35.5s31 -60.834 31 -111.501c0 -61.333 -15.333 -107.333 -46 -138s-73 -46 -127 -46h-31v74h7z" />
    <glyph glyph-name="dagger" unicode="&#x2020;" horiz-adv-x="451" 
d="M401 546v-123h-110v-245h-130v245h-111v123h111v154h130v-154h110z" />
    <glyph glyph-name="daggerdbl" unicode="&#x2021;" horiz-adv-x="451" 
d="M401 449h-110v-198h110v-123h-110v-128h-130v128h-111v123h111v198h-111v123h111v128h130v-128h110v-123z" />
    <glyph glyph-name="bullet" unicode="&#x2022;" horiz-adv-x="283" 
d="M77 199c-18 18 -27 39.667 -27 65c0 24.667 9 46 27 64s39.667 27 65 27s46.833 -8.83301 64.5 -26.5s26.5 -39.167 26.5 -64.5s-8.83301 -47 -26.5 -65s-39.167 -27 -64.5 -27s-47 9 -65 27z" />
    <glyph glyph-name="ellipsis" unicode="&#x2026;" horiz-adv-x="806" 
d="M334 17.5c-18.667 18.333 -28 40.833 -28 67.5s9.33301 49.167 28 67.5s41.667 27.5 69 27.5c26.667 0 49.5 -9.16699 68.5 -27.5s28.5 -40.833 28.5 -67.5s-9.5 -49.167 -28.5 -67.5s-41.833 -27.5 -68.5 -27.5c-27.333 0 -50.333 9.16699 -69 27.5zM605 17.5
c-18.667 18.333 -28 40.833 -28 67.5s9.33301 49.167 28 67.5s41.667 27.5 69 27.5c26.667 0 49.5 -9.16699 68.5 -27.5s28.5 -40.833 28.5 -67.5s-9.5 -49.167 -28.5 -67.5s-41.833 -27.5 -68.5 -27.5c-27.333 0 -50.333 9.16699 -69 27.5zM64 17.5
c-18.667 18.333 -28 40.833 -28 67.5s9.33301 49.167 28 67.5s41.667 27.5 69 27.5c26.667 0 49.5 -9.16699 68.5 -27.5s28.5 -40.833 28.5 -67.5s-9.5 -49.167 -28.5 -67.5s-41.833 -27.5 -68.5 -27.5c-27.333 0 -50.333 9.16699 -69 27.5z" />
    <glyph glyph-name="perthousand" unicode="&#x2030;" horiz-adv-x="1115" 
d="M79 426c-28.667 28 -43 69.333 -43 124c0 52 14.333 92.167 43 120.5s64.667 42.5 108 42.5c44 0 80.333 -14.167 109 -42.5s43 -68.5 43 -120.5c0 -54.667 -14.167 -96 -42.5 -124s-64.833 -42 -109.5 -42c-43.333 0 -79.333 14 -108 42zM212.5 504.5
c7.66699 8.33301 11.5 23.5 11.5 45.5c0 20.667 -3.83301 35 -11.5 43s-16.167 12 -25.5 12s-17.666 -4 -24.999 -12s-11 -22.333 -11 -43c0 -22 3.66699 -37.167 11 -45.5s15.666 -12.5 24.999 -12.5s17.833 4.16699 25.5 12.5zM619 598l67 -92l-553 -401l-67 92zM457 33
c-28.667 28 -43 69.333 -43 124c0 51.333 14.5 91.166 43.5 119.499s65.167 42.5 108.5 42.5s79.5 -14.167 108.5 -42.5s43.5 -68.166 43.5 -119.499c0 -54.667 -14.333 -96 -43 -124s-65 -42 -109 -42s-80.333 14 -109 42zM819 33c-28.667 28 -43 69.333 -43 124
c0 51.333 14.5 91.166 43.5 119.499s65.167 42.5 108.5 42.5s79.5 -14.167 108.5 -42.5s43.5 -68.166 43.5 -119.499c0 -54.667 -14.333 -96 -43 -124s-65 -42 -109 -42s-80.333 14 -109 42zM591 111c7.33301 8.66699 11 24 11 46c0 20.667 -3.66699 35 -11 43
s-15.666 12 -24.999 12s-17.833 -4 -25.5 -12s-11.5 -22.333 -11.5 -43c0 -22 3.83301 -37.333 11.5 -46s16.167 -13 25.5 -13s17.666 4.33301 24.999 13zM953 111c7.33301 8.66699 11 24 11 46c0 20.667 -3.66699 35 -11 43s-15.666 12 -24.999 12s-17.833 -4 -25.5 -12
s-11.5 -22.333 -11.5 -43c0 -22 3.83301 -37.333 11.5 -46s16.167 -13 25.5 -13s17.666 4.33301 24.999 13z" />
    <glyph glyph-name="guilsinglleft" unicode="&#x2039;" horiz-adv-x="260" 
d="M40 232v128l180 149v-146l-82 -63l82 -65v-146z" />
    <glyph glyph-name="guilsinglright" unicode="&#x203a;" horiz-adv-x="266" 
d="M51 89v146l82 65l-82 63v146l180 -149v-128z" />
    <glyph glyph-name="fraction" unicode="&#x2044;" horiz-adv-x="158" 
d="M257 700h80l-436 -700h-80z" />
    <glyph glyph-name="Euro" unicode="&#x20ac;" horiz-adv-x="741" 
d="M547 253l164 -0.000976562c-6 -88 -36.333 -153.833 -91 -197.5s-124.667 -65.5 -210 -65.5c-82.667 0 -151.667 21.833 -207 65.5s-92 104.834 -110 183.501h-58v79h47c-0.666992 6.66699 -1 17.334 -1 32.001v4h-46v80h53c14 86.667 49.333 154.167 106 202.5
s128.667 72.5 216 72.5c85.333 0 155.333 -21.833 210 -65.5s85 -109.167 91 -196.5h-164c-19.333 78 -65 117 -137 117c-41.333 0 -74 -11.5 -98 -34.5s-40.667 -54.833 -50 -95.5h129v-80h-137v-4c0 -14.667 0.333008 -25.334 1 -32.001h136v-79h-122
c22.667 -69.333 69.667 -104 141 -104c72 0 117.667 39.333 137 118z" />
    <glyph glyph-name="trademark" unicode="&#x2122;" horiz-adv-x="526" 
d="M99 649h-59v51h180v-51h-59v-129h-62v129zM251 700h66l52 -133l51 133h66v-180h-62v81l-28 -81h-55l-28 81v-81h-62v180z" />
    <glyph glyph-name="partialdiff" unicode="&#x2202;" horiz-adv-x="615" 
d="M508.5 614c47 -63.333 70.502 -150.001 70.502 -260.001c0 -86.667 -12.667 -157 -38 -211s-58.5 -93 -99.5 -117s-86.833 -36 -137.5 -36c-40 0 -79.833 7.16699 -119.5 21.5s-73.5 39.333 -101.5 75s-42 83.5 -42 143.5c0 56 12 101.5 36 136.5s53.5 60 88.5 75
s70.5 22.5 106.5 22.5c35.333 0 65.166 -6.16699 89.499 -18.5s46.166 -28.166 65.499 -47.499c0.666992 44.667 -8 86.167 -26 124.5s-51.667 57.5 -101 57.5c-58 0 -91.333 -26.667 -100 -80h-144c-1.33301 33.333 6.5 66 23.5 98s43.667 58.5 80 79.5
s81.833 31.5 136.5 31.5c94.667 0 165.5 -31.667 212.5 -95zM378.002 147.499c22.667 17 33.999 45.167 33.999 84.5c0 38.667 -11.167 66.5 -33.5 83.5s-46.5 25.5 -72.5 25.5c-27.333 0 -52.333 -8.5 -75 -25.5s-34 -44.833 -34 -83.5s11.333 -66.667 34 -84
s47.334 -26 74.001 -26c26 0 50.333 8.5 73 25.5z" />
    </font>
</defs>
</svg>
